<?xml version="1.0" encoding="utf-8"?>
<!-- Generator: Adobe Illustrator 26.2.1, SVG Export Plug-In . SVG Version: 6.00 Build 0)  -->
<svg version="1.1" id="Capa_1" xmlns="http://www.w3.org/2000/svg" xmlns:xlink="http://www.w3.org/1999/xlink" x="0px" y="0px"
	 viewBox="0 0 147 40" style="enable-background:new 0 0 147 40;" xml:space="preserve">
<style type="text/css">
	.st0{fill:#1A44DB;}
	.st1{fill:#FFFFFF;}
</style>
<path class="st0" d="M8,0h131c4.4,0,8,3.6,8,8v24c0,4.4-3.6,8-8,8H8c-4.4,0-8-3.6-8-8V8C0,3.6,3.6,0,8,0z"/>
<path class="st1" d="M39.4,19.6v-0.8h1.8c0.4,0,0.7-0.1,1-0.2c0.3-0.1,0.5-0.3,0.7-0.6c0.2-0.2,0.3-0.5,0.3-0.9
	c0-0.5-0.2-0.9-0.6-1.2c-0.4-0.3-0.8-0.4-1.4-0.4h-1.5v8.8h1.7c0.5,0,0.9-0.1,1.3-0.3c0.4-0.2,0.7-0.4,0.9-0.7
	c0.2-0.3,0.3-0.7,0.3-1.2c0-0.3-0.1-0.6-0.2-0.9c-0.1-0.3-0.3-0.5-0.5-0.7c-0.2-0.2-0.5-0.3-0.8-0.4c-0.3-0.1-0.6-0.1-1-0.1h-2v-0.8
	h2c0.5,0,1,0.1,1.5,0.2c0.5,0.1,0.9,0.3,1.2,0.5c0.4,0.2,0.6,0.5,0.8,0.9c0.2,0.4,0.3,0.8,0.3,1.3c0,0.7-0.2,1.3-0.5,1.8
	c-0.3,0.5-0.8,0.8-1.4,1.1c-0.6,0.2-1.2,0.4-1.9,0.4h-3V14.3h2.9c0.7,0,1.3,0.1,1.7,0.3c0.5,0.2,0.9,0.5,1.2,0.9
	c0.3,0.4,0.4,0.9,0.4,1.6c0,0.5-0.1,1-0.4,1.3c-0.3,0.4-0.7,0.7-1.2,0.8c-0.5,0.2-1.1,0.3-1.7,0.3H39.4z M46.6,21.8
	c0-0.7,0.2-1.4,0.5-2c0.3-0.6,0.8-1,1.4-1.4c0.6-0.3,1.2-0.5,1.9-0.5c0.7,0,1.4,0.2,1.9,0.5c0.6,0.3,1,0.8,1.4,1.4
	c0.3,0.6,0.5,1.2,0.5,2c0,0.7-0.2,1.4-0.5,2c-0.3,0.6-0.8,1-1.4,1.4c-0.6,0.3-1.2,0.5-1.9,0.5c-0.7,0-1.4-0.2-1.9-0.5
	c-0.6-0.3-1-0.8-1.4-1.4C46.8,23.2,46.6,22.6,46.6,21.8z M47.9,21.8c0,0.5,0.1,1,0.3,1.4c0.2,0.4,0.5,0.7,0.9,0.9
	c0.4,0.2,0.8,0.3,1.3,0.3s0.9-0.1,1.3-0.3c0.4-0.2,0.7-0.5,0.9-0.9c0.2-0.4,0.3-0.8,0.3-1.4c0-0.5-0.1-1-0.3-1.4
	c-0.2-0.4-0.5-0.7-0.9-0.9c-0.4-0.2-0.8-0.3-1.3-0.3s-0.9,0.1-1.3,0.3c-0.4,0.2-0.7,0.5-0.9,0.9C48,20.9,47.9,21.3,47.9,21.8z
	 M57.4,18.1v7.4h-1.3v-7.4H57.4z M59.6,19.5c-0.2-0.1-0.3-0.2-0.5-0.3c-0.1-0.1-0.3-0.1-0.5-0.1c-0.3,0-0.6,0.1-0.8,0.2
	c-0.2,0.2-0.3,0.4-0.4,0.7c-0.1,0.3-0.1,0.6-0.1,0.9h-0.6c0-0.6,0.1-1.1,0.3-1.6c0.2-0.5,0.5-0.8,0.8-1.1c0.3-0.3,0.7-0.4,1-0.4
	c0.3,0,0.5,0,0.7,0.1c0.2,0.1,0.4,0.2,0.6,0.4L59.6,19.5z M62.9,18.1v7.4h-1.3v-7.4H62.9z M65.1,19.5c-0.2-0.1-0.3-0.2-0.5-0.3
	c-0.1-0.1-0.3-0.1-0.5-0.1c-0.3,0-0.6,0.1-0.8,0.2c-0.2,0.2-0.3,0.4-0.4,0.7c-0.1,0.3-0.1,0.6-0.1,0.9h-0.6c0-0.6,0.1-1.1,0.3-1.6
	c0.2-0.5,0.5-0.8,0.8-1.1c0.3-0.3,0.7-0.4,1-0.4c0.3,0,0.5,0,0.7,0.1c0.2,0.1,0.4,0.2,0.6,0.4L65.1,19.5z M67.8,23.2
	c0,0.3,0.1,0.5,0.2,0.7c0.1,0.2,0.3,0.4,0.6,0.5c0.2,0.1,0.5,0.1,0.8,0.1c0.4,0,0.7-0.1,1.1-0.2c0.3-0.2,0.6-0.4,0.8-0.7
	c0.2-0.3,0.3-0.6,0.3-1l0.3,1c0,0.5-0.1,0.9-0.4,1.2c-0.3,0.3-0.6,0.5-1,0.7c-0.4,0.1-0.8,0.2-1.2,0.2c-0.4,0-0.9-0.1-1.3-0.3
	c-0.4-0.2-0.7-0.5-0.9-0.8c-0.2-0.4-0.4-0.8-0.4-1.3c0-0.7,0.3-1.3,0.8-1.7c0.5-0.4,1.2-0.7,2.1-0.7c0.5,0,1,0.1,1.3,0.2
	c0.4,0.1,0.7,0.3,0.9,0.4c0.2,0.1,0.4,0.3,0.4,0.4v0.8c-0.4-0.3-0.8-0.4-1.2-0.5c-0.4-0.1-0.8-0.2-1.3-0.2c-0.4,0-0.8,0.1-1,0.2
	c-0.3,0.1-0.4,0.3-0.6,0.4C67.8,22.7,67.8,23,67.8,23.2z M67.6,19.8L67,18.9c0.3-0.2,0.7-0.4,1.1-0.6c0.5-0.2,1.1-0.3,1.8-0.3
	c0.6,0,1.1,0.1,1.5,0.3c0.4,0.2,0.8,0.4,1,0.8c0.2,0.3,0.4,0.7,0.4,1.2v5.3h-1.3v-5.1c0-0.3,0-0.5-0.1-0.6c-0.1-0.2-0.2-0.3-0.4-0.4
	c-0.1-0.1-0.3-0.2-0.5-0.2c-0.2,0-0.4-0.1-0.6-0.1c-0.4,0-0.7,0-1,0.1c-0.3,0.1-0.5,0.2-0.7,0.3C67.9,19.6,67.7,19.8,67.6,19.8z
	 M76.3,18.1v7.4H75v-7.4H76.3z M78.5,19.5c-0.2-0.1-0.3-0.2-0.5-0.3c-0.1-0.1-0.3-0.1-0.5-0.1c-0.3,0-0.6,0.1-0.8,0.2
	c-0.2,0.2-0.3,0.4-0.4,0.7c-0.1,0.3-0.1,0.6-0.1,0.9h-0.6c0-0.6,0.1-1.1,0.3-1.6c0.2-0.5,0.5-0.8,0.8-1.1c0.3-0.3,0.7-0.4,1-0.4
	c0.3,0,0.5,0,0.7,0.1c0.2,0.1,0.4,0.2,0.6,0.4L78.5,19.5z M85.5,14.3h1.4v11.2h-1.4V14.3z M99.5,20.9v4.6h-1.3V21
	c0-0.6-0.1-1.1-0.4-1.4c-0.2-0.3-0.6-0.4-1.1-0.4c-0.4,0-0.7,0.1-0.9,0.2c-0.3,0.1-0.5,0.3-0.6,0.6c-0.1,0.3-0.2,0.6-0.2,1v4.5h-1.3
	V21c0-0.6-0.1-1.1-0.4-1.4c-0.2-0.3-0.6-0.4-1.1-0.4c-0.4,0-0.7,0.1-0.9,0.2c-0.3,0.1-0.5,0.3-0.6,0.6c-0.1,0.3-0.2,0.6-0.2,1v4.5
	h-1.3v-7.4h1.3v1.1c0.2-0.4,0.5-0.7,0.8-0.9c0.3-0.2,0.7-0.3,1.2-0.3c0.5,0,0.9,0.1,1.3,0.4c0.4,0.2,0.6,0.6,0.8,1
	c0.3-0.5,0.6-0.8,1-1c0.4-0.2,0.8-0.4,1.3-0.4c0.5,0,0.9,0.1,1.3,0.3s0.6,0.6,0.8,1C99.4,19.7,99.5,20.3,99.5,20.9z M102.6,23.2
	c0,0.3,0.1,0.5,0.2,0.7c0.1,0.2,0.3,0.4,0.6,0.5c0.2,0.1,0.5,0.1,0.8,0.1c0.4,0,0.7-0.1,1.1-0.2c0.3-0.2,0.6-0.4,0.8-0.7
	c0.2-0.3,0.3-0.6,0.3-1l0.3,1c0,0.5-0.1,0.9-0.4,1.2c-0.3,0.3-0.6,0.5-1,0.7c-0.4,0.1-0.8,0.2-1.2,0.2c-0.4,0-0.9-0.1-1.3-0.3
	c-0.4-0.2-0.7-0.5-0.9-0.8c-0.2-0.4-0.4-0.8-0.4-1.3c0-0.7,0.3-1.3,0.8-1.7c0.5-0.4,1.2-0.7,2.1-0.7c0.5,0,1,0.1,1.3,0.2
	c0.4,0.1,0.7,0.3,0.9,0.4c0.2,0.1,0.4,0.3,0.4,0.4v0.8c-0.4-0.3-0.8-0.4-1.2-0.5c-0.4-0.1-0.8-0.2-1.3-0.2c-0.4,0-0.8,0.1-1,0.2
	c-0.3,0.1-0.4,0.3-0.6,0.4C102.6,22.7,102.6,23,102.6,23.2z M102.4,19.8l-0.6-0.9c0.3-0.2,0.7-0.4,1.1-0.6c0.5-0.2,1.1-0.3,1.8-0.3
	c0.6,0,1.1,0.1,1.5,0.3c0.4,0.2,0.8,0.4,1,0.8c0.2,0.3,0.4,0.7,0.4,1.2v5.3h-1.3v-5.1c0-0.3,0-0.5-0.1-0.6c-0.1-0.2-0.2-0.3-0.4-0.4
	c-0.1-0.1-0.3-0.2-0.5-0.2c-0.2,0-0.4-0.1-0.6-0.1c-0.4,0-0.7,0-1,0.1c-0.3,0.1-0.5,0.2-0.7,0.3C102.7,19.6,102.5,19.8,102.4,19.8z
	 M109.3,26h1.3c0,0.4,0.1,0.7,0.3,1c0.2,0.3,0.5,0.6,0.8,0.7c0.4,0.2,0.8,0.3,1.2,0.3c0.4,0,0.7-0.1,1.1-0.3
	c0.4-0.2,0.7-0.5,0.9-0.9c0.2-0.4,0.4-0.9,0.4-1.5v-7.2h1.3v7.2c0,0.8-0.2,1.5-0.5,2.1c-0.4,0.6-0.8,1-1.4,1.3
	c-0.6,0.3-1.1,0.4-1.8,0.4c-0.7,0-1.3-0.1-1.9-0.4c-0.5-0.3-1-0.6-1.3-1.1C109.4,27.2,109.3,26.6,109.3,26z M109.1,21.8
	c0-0.8,0.2-1.5,0.5-2c0.3-0.6,0.8-1,1.3-1.3c0.6-0.3,1.2-0.5,1.8-0.5c0.6,0,1.2,0.2,1.6,0.5c0.5,0.3,0.8,0.8,1.1,1.3
	c0.3,0.6,0.4,1.2,0.4,2c0,0.8-0.1,1.5-0.4,2c-0.3,0.6-0.6,1-1.1,1.3c-0.5,0.3-1,0.5-1.6,0.5c-0.7,0-1.3-0.2-1.8-0.5
	c-0.6-0.3-1-0.8-1.3-1.3C109.3,23.3,109.1,22.6,109.1,21.8z M110.4,21.8c0,0.6,0.1,1,0.3,1.4c0.2,0.4,0.5,0.7,0.9,0.9
	s0.8,0.3,1.2,0.3c0.4,0,0.7-0.1,1.1-0.3c0.4-0.2,0.7-0.5,0.9-0.9c0.2-0.4,0.4-0.9,0.4-1.4c0-0.4-0.1-0.8-0.2-1.1
	c-0.1-0.3-0.3-0.6-0.6-0.8c-0.2-0.2-0.5-0.4-0.8-0.5c-0.3-0.1-0.6-0.2-0.8-0.2c-0.4,0-0.9,0.1-1.2,0.3c-0.4,0.2-0.7,0.5-0.9,0.9
	C110.5,20.8,110.4,21.3,110.4,21.8z M121.8,25.7c-0.7,0-1.3-0.2-1.8-0.5c-0.5-0.3-0.9-0.8-1.2-1.4c-0.3-0.6-0.4-1.2-0.4-2
	c0-0.8,0.2-1.4,0.4-2c0.3-0.6,0.7-1,1.3-1.3c0.6-0.3,1.2-0.5,1.9-0.5c0.7,0,1.3,0.2,1.9,0.5c0.5,0.3,0.9,0.7,1.2,1.3
	c0.3,0.6,0.4,1.2,0.4,2c0,0.1,0,0.2,0,0.2c0,0.1,0,0.1,0,0.1h-6.3v-1.1h5.3l-0.5,0.7c0-0.1,0.1-0.1,0.1-0.2c0-0.1,0-0.2,0-0.3
	c0-0.4-0.1-0.8-0.3-1.1c-0.2-0.3-0.4-0.6-0.7-0.8c-0.3-0.2-0.7-0.3-1.1-0.3c-0.5,0-0.9,0.1-1.3,0.3c-0.3,0.2-0.6,0.5-0.8,0.9
	c-0.2,0.4-0.3,0.9-0.3,1.4c0,0.6,0.1,1.1,0.3,1.5c0.2,0.4,0.4,0.7,0.8,0.9c0.4,0.2,0.8,0.3,1.3,0.3c0.5,0,0.9-0.1,1.3-0.3
	c0.4-0.2,0.7-0.6,1-1l1,0.7c-0.4,0.6-0.9,1.1-1.5,1.4C123.3,25.5,122.6,25.7,121.8,25.7z M132,21c0-0.6-0.1-1.1-0.4-1.4
	c-0.3-0.3-0.7-0.5-1.2-0.5c-0.4,0-0.7,0.1-1,0.2c-0.3,0.1-0.5,0.4-0.7,0.6c-0.2,0.3-0.2,0.6-0.2,1v4.5h-1.3v-7.4h1.3v1.2
	c0.2-0.4,0.5-0.8,0.9-1c0.4-0.2,0.8-0.3,1.3-0.3c0.8,0,1.4,0.3,1.8,0.8c0.5,0.5,0.7,1.2,0.7,2.1v4.6H132V21z"/>
<path class="st1" d="M28.6,15.2c-0.3-0.3-0.8-0.3-1.1,0l-3.7,3.7l-3.7-3.7c-0.3-0.3-0.8-0.3-1.1,0c-0.3,0.3-0.3,0.8,0,1.1l3.7,3.7
	L19,23.7c-0.3,0.3-0.3,0.8,0,1.1c0.3,0.3,0.8,0.3,1.1,0l3.7-3.7l3.7,3.7c0.3,0.3,0.8,0.3,1.1,0c0.3-0.3,0.3-0.8,0-1.1L24.9,20
	l3.7-3.7C28.9,16,28.9,15.5,28.6,15.2z"/>
</svg>
