<?xml version="1.0" encoding="utf-8"?>
<!-- Generator: Adobe Illustrator 24.2.1, SVG Export Plug-In . SVG Version: 6.00 Build 0)  -->
<svg version="1.1" id="Capa_1" xmlns="http://www.w3.org/2000/svg" xmlns:xlink="http://www.w3.org/1999/xlink" x="0px" y="0px"
	 viewBox="0 0 20 20" style="enable-background:new 0 0 20 20;" xml:space="preserve">
<style type="text/css">
	.st0{fill:#D9D9D9;}
	.st1{fill:#1D1D1B;}
</style>
<circle class="st0" cx="10" cy="10" r="10"/>
<path class="st1" d="M10.7,10l4.6-4.6c0.2-0.2,0.2-0.5,0-0.7s-0.5-0.2-0.7,0L10,9.3L5.4,4.6c-0.2-0.2-0.5-0.2-0.7,0s-0.2,0.5,0,0.7
	L9.3,10l-4.6,4.6c-0.2,0.2-0.2,0.5,0,0.7c0.1,0.1,0.2,0.1,0.4,0.1s0.3,0,0.4-0.1l4.6-4.6l4.6,4.6c0.1,0.1,0.2,0.1,0.4,0.1
	s0.3,0,0.4-0.1c0.2-0.2,0.2-0.5,0-0.7L10.7,10z"/>
</svg>
