<?xml version="1.0" encoding="utf-8"?>
<!-- Generator: Adobe Illustrator 24.2.1, SVG Export Plug-In . SVG Version: 6.00 Build 0)  -->
<svg version="1.1" id="Capa_1" xmlns="http://www.w3.org/2000/svg" xmlns:xlink="http://www.w3.org/1999/xlink" x="0px" y="0px"
	 viewBox="0 0 73.9 73.9" style="enable-background:new 0 0 73.9 73.9;" xml:space="preserve">
<style type="text/css">
	.st0{fill:#5DB075;}
</style>
<path class="st0" d="M36.9,7.4c16.3,0,29.6,13.3,29.6,29.6c0,16.3-13.3,29.6-29.6,29.6c-16.3,0-29.6-13.3-29.6-29.6
	C7.4,20.6,20.6,7.4,36.9,7.4z M36.9,1.4C17.3,1.4,1.4,17.3,1.4,36.9s15.9,35.5,35.5,35.5s35.5-15.9,35.5-35.5S56.6,1.4,36.9,1.4z
	 M49.9,23.6L33.3,40.7l-7.8-7.4l-5.5,5.5l13.3,12.9l22.2-22.6L49.9,23.6z"/>
</svg>
