<?xml version="1.0" encoding="utf-8"?>
<!-- Generator: Adobe Illustrator 24.2.1, SVG Export Plug-In . SVG Version: 6.00 Build 0)  -->
<svg version="1.1" id="Capa_1" xmlns="http://www.w3.org/2000/svg" xmlns:xlink="http://www.w3.org/1999/xlink" x="0px" y="0px"
	 viewBox="0 0 14.3 13.3" style="enable-background:new 0 0 14.3 13.3;" xml:space="preserve">
<style type="text/css">
	.st0{fill:#FFFFFF;}
</style>
<path class="st0" d="M13.5,2.8l-2.1-1.9c-0.2-0.2-0.5-0.2-0.7,0L1.9,8.8C1.8,8.9,1.8,9,1.8,9c0,0,0,0,0,0l-1,2.8
	c-0.1,0.2,0,0.4,0.1,0.5c0.1,0.1,0.2,0.2,0.4,0.2c0,0,0.1,0,0.1,0l3.1-0.9c0,0,0,0,0,0c0.1,0,0.1-0.1,0.2-0.1l8.9-7.9
	c0.1-0.1,0.2-0.2,0.2-0.4S13.6,2.9,13.5,2.8z M9.5,3.4l1.3,1.2l-6.6,5.8L3.4,9.6L3,9.2L9.5,3.4z M2.4,10.1l0.9,0.8L2,11.2L2.4,10.1z
	 M11.6,3.9l-1.3-1.2L11.1,2l1.3,1.2L11.6,3.9z"/>
</svg>
