<?xml version="1.0" encoding="utf-8"?>
<!-- Generator: Adobe Illustrator 24.2.1, SVG Export Plug-In . SVG Version: 6.00 Build 0)  -->
<svg version="1.1" id="Capa_1" xmlns="http://www.w3.org/2000/svg" xmlns:xlink="http://www.w3.org/1999/xlink" x="0px" y="0px"
	 viewBox="0 0 500 500" style="enable-background:new 0 0 500 500;" xml:space="preserve">
<style type="text/css">
	.st0{fill:#DCDCDC;}
	.st1{fill:#666666;}
</style>
<path class="st0" d="M442.4,318.4H58.7c-18.5,0-33.3-14.8-33.3-33.3v-56.4c0-18.5,14.8-33.3,33.3-33.3h383.4
	c18.5,0,33.3,14.8,33.3,33.3V285C475.7,303.5,460.9,318.4,442.4,318.4z"/>
<g>
	<g>
		<path class="st1" d="M122,261c0,1.9-0.6,3.7-1.5,5.2s-2.5,2.5-4,3.4s-4,1.2-6.5,1.2c-1.2,0-2.2,0-3.4-0.3c-1.2,0-2.2-0.3-3.1-0.6
			c-0.9-0.3-1.9-0.6-2.8-1.2v-6.5c1.5,0.6,3.1,1.2,4.9,1.9c1.9,0.6,3.4,0.9,4.9,0.9c1.2,0,2.2,0,2.8-0.3s1.2-0.6,1.5-1.2
			s0.6-1.2,0.6-1.9c0-0.9-0.3-1.5-0.9-2.2c-0.6-0.6-1.2-1.2-2.2-1.5c-0.9-0.6-2.2-0.9-3.4-1.5c-0.6-0.3-1.5-0.9-2.5-1.2
			c-0.9-0.6-1.9-1.2-2.5-1.9c-0.9-0.6-1.5-1.5-1.9-2.8c-0.6-0.9-0.9-2.5-0.9-4c0-1.9,0.3-3.7,1.2-4.9c0.9-1.5,2.2-2.5,4-3.1
			c1.9-0.6,3.7-1.2,5.9-1.2c1.9,0,3.4,0.3,4.9,0.6s3.1,0.9,4.9,1.9l-2.2,5.6c-1.5-0.6-2.8-1.2-4-1.5s-2.5-0.6-3.7-0.6
			c-0.9,0-1.5,0-2.2,0.3s-1.2,0.6-1.5,1.2c-0.3,0.6-0.6,1.2-0.6,1.9c0,0.9,0.3,1.5,0.6,1.9c0.3,0.6,1.2,0.9,2.2,1.5s2.2,0.9,3.4,1.9
			c1.5,0.9,3.1,1.5,4.3,2.5s2.2,1.9,2.8,3.1C121.6,257.9,122,259.4,122,261z"/>
		<path class="st1" d="M150.6,244.9v25.3h-5.2l-0.9-3.1h-0.3c-0.6,0.9-1.2,1.5-2.2,2.2c-0.9,0.6-1.9,0.9-2.8,1.2
			c-0.9,0.3-1.9,0.3-3.1,0.3c-1.9,0-3.4-0.3-4.6-0.9c-1.2-0.6-2.5-1.5-3.1-3.1c-0.6-1.2-1.2-3.1-1.2-5.2v-16.3h6.8v14.8
			c0,1.9,0.3,3.1,0.9,4c0.6,0.9,1.5,1.2,3.1,1.2c1.5,0,2.5-0.3,3.4-0.9s1.2-1.5,1.5-2.8c0.3-1.2,0.6-2.8,0.6-4.6v-12L150.6,244.9
			L150.6,244.9z"/>
		<path class="st1" d="M164.5,235.1v8.3c0,0.9,0,1.9,0,2.8c0,0.9,0,1.5-0.3,2.2h0.3c0.6-0.9,1.5-1.9,2.8-2.8
			c1.2-0.6,2.8-1.2,4.3-1.2c2.8,0,5.2,1.2,6.8,3.4c1.9,2.2,2.8,5.6,2.8,9.9c0,2.8-0.3,5.2-1.2,7.1s-1.9,3.4-3.4,4.3
			s-3.1,1.5-4.9,1.5s-3.4-0.3-4.3-0.9c-0.9-0.6-1.9-1.5-2.5-2.2h-0.6l-1.2,2.8h-5.2v-35.2L164.5,235.1L164.5,235.1z M169.5,249.9
			c-1.2,0-2.2,0.3-2.8,0.6s-1.2,1.2-1.5,2.2c-0.3,0.9-0.6,2.2-0.6,3.7v0.6c0,2.5,0.3,4.3,1.2,5.6c0.9,1.2,2.2,1.9,4,1.9
			c1.5,0,2.5-0.6,3.4-1.9c0.9-1.2,1.2-3.1,1.2-5.6s-0.3-4.3-1.2-5.6C172.2,250.5,171,249.9,169.5,249.9z"/>
		<path class="st1" d="M190.4,235.1c0.9,0,1.9,0.3,2.8,0.6s1.2,1.2,1.2,2.8c0,1.2-0.3,2.2-1.2,2.8s-1.5,0.6-2.8,0.6
			c-0.9,0-1.9-0.3-2.8-0.6s-1.2-1.2-1.2-2.8c0-1.2,0.3-2.2,1.2-2.8C188.6,235.1,189.5,235.1,190.4,235.1z M193.8,244.9v25.3H187
			v-25.3L193.8,244.9L193.8,244.9z"/>
		<path class="st1" d="M215.4,244.3c0.3,0,0.6,0,1.2,0c0.3,0,0.9,0,1.2,0l-0.6,6.5c-0.3,0-0.6,0-0.9-0.3c-0.3,0-0.6,0-0.9,0
			c-0.9,0-1.9,0-2.5,0.3c-0.9,0.3-1.5,0.6-2.2,1.2c-0.6,0.6-1.2,1.2-1.5,1.9c-0.3,0.6-0.6,1.9-0.6,3.1v13h-7.4v-25.3h5.2l0.9,4.3
			h0.3c0.6-0.9,1.2-1.5,1.9-2.5c0.6-0.6,1.5-1.2,2.5-1.9C213.2,244.6,214.2,244.3,215.4,244.3z"/>
		<path class="st1" d="M244.7,244.3c3.4,0,5.9,0.6,7.7,2.2c1.9,1.5,2.8,3.7,2.8,6.8v17h-4.9l-1.2-3.4h-0.3c-0.6,0.9-1.5,1.5-2.2,2.2
			c-0.6,0.6-1.5,0.9-2.5,1.2c-0.9,0.3-2.2,0.3-3.7,0.3s-2.8-0.3-4-0.9s-2.2-1.5-2.8-2.8c-0.6-1.2-0.9-2.8-0.9-4.6
			c0-2.8,0.9-4.6,2.8-5.9c1.9-1.2,4.6-1.9,8.3-2.2h4.3V253c0-1.2-0.3-2.2-0.9-2.8c-0.6-0.6-1.5-0.9-2.8-0.9s-2.5,0.3-3.7,0.6
			s-2.5,0.9-3.4,1.2l-2.2-4.6c1.2-0.6,2.8-1.2,4.6-1.5C241.6,244.6,242.9,244.3,244.7,244.3z M248.1,258.5h-2.8
			c-2.2,0-3.7,0.3-4.6,1.2c-0.9,0.6-1.2,1.9-1.2,2.8s0.3,1.9,0.9,2.2c0.6,0.3,1.5,0.6,2.5,0.6c1.5,0,2.8-0.3,3.7-1.2
			c0.9-0.9,1.5-2.2,1.5-3.7L248.1,258.5L248.1,258.5z"/>
		<path class="st1" d="M276.2,244.3c0.3,0,0.6,0,1.2,0c0.3,0,0.9,0,1.2,0l-0.6,6.5c-0.3,0-0.6,0-0.9-0.3c-0.3,0-0.9,0-0.9,0
			c-0.9,0-1.9,0-2.5,0.3s-1.5,0.6-2.2,1.2c-0.6,0.6-1.2,1.2-1.5,1.9c-0.3,0.9-0.6,1.9-0.6,3.1v13h-6.8v-25.3h5.2l0.9,4.3h0.3
			c0.6-0.9,1.2-1.5,1.9-2.5c0.6-0.6,1.5-1.2,2.5-1.9C274,244.6,275.2,244.3,276.2,244.3z"/>
		<path class="st1" d="M293.4,270.5c-2.5,0-4.6-0.3-6.5-1.2c-1.9-0.9-3.1-2.5-4-4.3c-0.9-1.9-1.2-4.3-1.2-7.4s0.6-5.6,1.5-7.7
			c0.9-2.2,2.5-3.4,4.3-4.3s4-1.2,6.5-1.2c1.9,0,3.4,0.3,4.6,0.6s2.5,0.6,3.4,1.2l-2.2,5.2c-1.2-0.3-2.2-0.9-3.1-0.9
			s-1.9-0.3-2.8-0.3c-1.2,0-2.2,0.3-3.1,0.9c-0.9,0.6-1.5,1.5-1.9,2.5c-0.3,0.9-0.6,2.5-0.6,4.3c0,1.5,0.3,3.1,0.6,4
			c0.3,1.2,0.9,1.9,1.9,2.5c0.9,0.6,1.9,0.9,2.8,0.9c1.5,0,2.8-0.3,3.7-0.6c1.2-0.3,2.2-0.9,3.4-1.5v5.9c-0.9,0.6-2.2,1.2-3.4,1.5
			C296.8,270.5,295.3,270.5,293.4,270.5z"/>
		<path class="st1" d="M313.8,235.1v7.1c0,1.2,0,2.5,0,3.7s0,1.9-0.3,2.5h0.3c0.6-0.9,1.2-1.5,1.9-2.2c0.6-0.6,1.5-0.9,2.5-1.2
			c0.9-0.3,1.9-0.3,2.8-0.3c1.9,0,3.4,0.3,4.6,0.9c1.2,0.6,2.5,1.5,3.1,3.1c0.6,1.5,1.2,3.1,1.2,5.2v16.3H323v-14.8
			c0-1.9-0.3-3.1-0.9-4s-1.5-1.2-3.1-1.2s-2.5,0.3-3.4,0.9c-0.9,0.6-1.2,1.5-1.5,2.8c-0.3,1.2-0.6,2.8-0.6,4.6v12h-6.8v-35.2h7.1
			L313.8,235.1L313.8,235.1z"/>
		<path class="st1" d="M340.9,235.1c0.9,0,1.9,0.3,2.8,0.6s1.2,1.2,1.2,2.8c0,1.2-0.3,2.2-1.2,2.8c-0.9,0.6-1.5,0.6-2.8,0.6
			c-0.9,0-1.9-0.3-2.8-0.6s-1.2-1.2-1.2-2.8c0-1.2,0.3-2.2,1.2-2.8C339.1,235.1,340,235.1,340.9,235.1z M344.3,244.9v25.3h-6.8
			v-25.3L344.3,244.9L344.3,244.9z"/>
		<path class="st1" d="M357.6,270.2l-9.6-25.3h7.1l4.9,14.5c0.3,0.9,0.6,1.9,0.6,2.8c0.3,0.9,0.3,1.9,0.3,2.5h0.3
			c0-0.9,0.3-1.5,0.3-2.5c0.3-0.9,0.3-1.9,0.6-2.5l4.9-14.5h7.1l-9.6,25H357.6z"/>
		<path class="st1" d="M400.8,257.6c0,2.2-0.3,4-0.9,5.6c-0.6,1.5-1.5,3.1-2.5,4c-0.9,1.2-2.5,1.9-4,2.5s-3.1,0.9-5.2,0.9
			c-1.9,0-3.4-0.3-4.9-0.9s-2.8-1.5-4-2.5c-1.2-1.2-1.9-2.5-2.5-4s-0.9-3.4-0.9-5.6c0-2.8,0.6-5.2,1.5-7.1c0.9-1.9,2.5-3.4,4.3-4.3
			c1.9-0.9,4-1.5,6.5-1.5s4.3,0.6,6.2,1.5c1.9,0.9,3.4,2.5,4.3,4.3C400.5,252.3,400.8,254.8,400.8,257.6z M383.5,257.6
			c0,1.5,0.3,3.1,0.6,4.3c0.3,1.2,0.9,1.9,1.5,2.5s1.9,0.9,3.1,0.9s2.2-0.3,3.1-0.9c0.6-0.6,1.2-1.5,1.5-2.5
			c0.3-1.2,0.6-2.5,0.6-4.3c0-1.5-0.3-3.1-0.6-4.3c-0.3-1.2-0.9-1.9-1.5-2.5s-1.9-0.9-3.1-0.9c-1.9,0-3.1,0.6-4,1.9
			C383.8,253.3,383.5,255.1,383.5,257.6z"/>
	</g>
</g>
</svg>
