<?xml version="1.0" encoding="utf-8"?>
<!-- Generator: Adobe Illustrator 24.2.1, SVG Export Plug-In . SVG Version: 6.00 Build 0)  -->
<svg version="1.1" id="Capa_1" xmlns="http://www.w3.org/2000/svg" xmlns:xlink="http://www.w3.org/1999/xlink" x="0px" y="0px"
	 viewBox="0 0 500 500" style="enable-background:new 0 0 500 500;" xml:space="preserve">
<style type="text/css">
	.st0{fill:#DCDCDC;}
	.st1{fill:#8F8F8F;}
</style>
<path class="st0" d="M447.7,314.2H64c-18.5,0-33.3-14.8-33.3-33.3v-56.4c0-18.5,14.8-33.3,33.3-33.3h383.4
	c18.5,0,33.3,14.8,33.3,33.3v56.4C481,299.4,466.2,314.2,447.7,314.2z"/>
<g>
	<g>
		<path class="st1" d="M137.7,257.2c0,1.9-0.6,3.7-1.5,4.9c-0.9,1.2-2.5,2.5-4,3.1c-1.9,0.6-3.7,1.2-6.2,1.2c-1.2,0-2.5,0-3.7-0.3
			c-1.2,0-2.2-0.3-3.1-0.6c-0.9-0.3-1.9-0.6-2.5-0.9v-3.7c1.2,0.6,2.5,0.9,4,1.2c1.5,0.3,3.4,0.6,5.2,0.6c1.5,0,3.1-0.3,4.3-0.6
			c1.2-0.3,2.2-1.2,2.5-1.9c0.6-0.9,0.9-1.9,0.9-3.1c0-1.2-0.3-2.2-0.6-2.8c-0.6-0.6-1.2-1.5-2.5-2.2s-2.8-1.2-4.6-1.9
			c-1.5-0.6-2.8-0.9-3.7-1.5s-1.9-1.2-2.8-2.2c-0.6-0.6-1.2-1.5-1.5-2.5c-0.3-0.9-0.6-2.2-0.6-3.4c0-1.9,0.3-3.4,1.2-4.6
			c0.9-1.2,2.2-2.2,3.7-2.8c1.5-0.6,3.4-0.9,5.6-0.9c1.9,0,3.4,0.3,4.9,0.6c1.5,0.3,2.8,0.9,4,1.2l-1.2,3.4
			c-1.2-0.6-2.5-0.9-3.7-1.2c-1.2-0.3-2.8-0.6-4-0.6c-1.5,0-2.5,0.3-3.7,0.6c-1.2,0.3-1.9,0.9-2.2,1.9c-0.6,0.6-0.6,1.5-0.6,2.8
			s0.3,2.2,0.6,2.8c0.6,0.6,1.2,1.5,2.5,2.2c1.2,0.6,2.5,1.2,4.3,1.9c1.9,0.6,3.7,1.5,4.9,2.2c1.2,0.9,2.5,1.9,3.1,2.8
			C137.4,254.1,137.7,255.6,137.7,257.2z"/>
		<path class="st1" d="M164.3,241.4v24.7h-3.1l-0.6-3.4h-0.3c-0.6,0.9-1.2,1.5-1.9,2.2c-0.9,0.6-1.9,0.9-2.8,1.2
			c-0.9,0.3-2.2,0.3-3.4,0.3c-1.9,0-3.7-0.3-4.9-0.9c-1.2-0.6-2.5-1.5-3.1-3.1c-0.6-1.2-0.9-3.1-0.9-5.2v-15.7h3.7v16
			c0,2.2,0.6,3.7,1.5,4.6c0.9,0.9,2.5,1.5,4.3,1.5c1.9,0,3.4-0.3,4.3-0.9c1.2-0.6,1.9-1.9,2.5-3.1c0.6-1.2,0.6-3.1,0.6-4.9v-13.3
			H164.3z"/>
		<path class="st1" d="M176,230.9v8.9c0,0.9,0,1.9,0,3.1s0,1.5,0,2.2h0.3c0.6-1.2,1.5-2.2,3.1-2.8c1.2-0.6,2.8-1.2,4.9-1.2
			c3.1,0,5.6,0.9,7.4,3.1c1.9,2.2,2.8,5.2,2.8,9.6c0,2.8-0.3,5.2-1.2,7.1c-0.9,1.9-2.2,3.4-3.7,4.3c-1.5,0.9-3.4,1.5-5.6,1.5
			c-1.9,0-3.7-0.3-4.9-1.2c-1.2-0.9-2.2-1.5-2.8-2.8h-0.6l-0.6,3.4h-2.8v-35.2L176,230.9L176,230.9z M183.4,243.9
			c-1.9,0-3.1,0.3-4.3,0.9c-0.9,0.6-1.9,1.9-2.2,3.1c-0.3,1.5-0.6,3.1-0.6,5.2v0.3c0,3.1,0.6,5.6,1.5,7.1c0.9,1.5,3.1,2.5,5.6,2.5
			c2.2,0,4-0.9,5.2-2.5c1.2-1.5,1.9-4,1.9-7.1c0-3.1-0.6-5.6-1.9-7.1C187.4,244.8,185.5,243.9,183.4,243.9z"/>
		<path class="st1" d="M202.5,232.2c0.6,0,1.2,0.3,1.5,0.6c0.3,0.3,0.6,0.9,0.6,1.9c0,0.9-0.3,1.5-0.6,1.9s-0.9,0.6-1.5,0.6
			c-0.6,0-1.2-0.3-1.5-0.6s-0.6-0.9-0.6-1.9c0-0.9,0.3-1.5,0.6-1.9C201.3,232.2,201.9,232.2,202.5,232.2z M204.3,241.4v24.7h-3.7
			v-24.7H204.3z"/>
		<path class="st1" d="M223.5,240.8c0.6,0,0.9,0,1.5,0c0.6,0,0.9,0,1.5,0.3l-0.6,3.4c-0.3,0-0.9-0.3-1.2-0.3s-0.9,0-1.5,0
			c-0.9,0-1.9,0.3-2.8,0.6c-0.9,0.3-1.5,0.9-2.5,1.9c-0.6,0.6-1.2,1.5-1.5,2.8c-0.3,1.2-0.6,2.2-0.6,3.4v13.3h-3.7v-24.7h3.1
			l0.3,4.6h0.3c0.6-0.9,1.2-1.9,1.9-2.5c0.6-0.6,1.5-1.2,2.5-1.9C221.3,241.1,222.2,240.8,223.5,240.8z"/>
		<path class="st1" d="M252.5,240.8c3.1,0,5.2,0.6,6.5,1.9c1.2,1.2,2.2,3.4,2.2,6.5v17h-2.8l-0.6-3.7h-0.3c-0.6,0.9-1.5,1.5-2.2,2.2
			c-0.6,0.6-1.5,0.9-2.5,1.2c-0.9,0.3-2.2,0.6-3.7,0.6c-1.5,0-2.8-0.3-4-0.9c-1.2-0.6-2.2-1.2-2.8-2.5c-0.6-0.9-0.9-2.5-0.9-4
			c0-2.5,0.9-4.3,3.1-5.6c1.9-1.2,4.9-2.2,8.9-2.2l4.3-0.3v-1.5c0-2.2-0.3-3.7-1.2-4.6c-0.9-0.9-2.2-1.2-4-1.2
			c-1.2,0-2.5,0.3-3.7,0.6c-1.2,0.3-2.2,0.9-3.4,1.2l-1.2-2.8c1.2-0.6,2.5-0.9,3.7-1.5C249.4,241.1,250.9,240.8,252.5,240.8z
			 M257.4,253.8l-3.7,0.3c-3.1,0-5.2,0.6-6.5,1.5c-1.2,0.9-1.9,2.2-1.9,3.7c0,1.5,0.3,2.5,1.2,3.1s1.9,0.9,3.4,0.9
			c2.2,0,4-0.6,5.6-1.9c1.5-1.2,2.2-3.1,2.2-5.6v-2.2H257.4z"/>
		<path class="st1" d="M280.2,240.8c0.6,0,0.9,0,1.5,0s0.9,0,1.5,0.3l-0.6,3.4c-0.3,0-0.9-0.3-1.2-0.3c-0.6,0-0.9,0-1.5,0
			c-0.9,0-1.9,0.3-2.8,0.6c-0.9,0.3-1.5,0.9-2.5,1.9c-0.6,0.6-1.2,1.5-1.5,2.8s-0.6,2.2-0.6,3.4v13.3h-3.7v-24.7h3.1l0.3,4.6h0.3
			c0.6-0.9,1.2-1.9,1.9-2.5c0.6-0.6,1.5-1.2,2.5-1.9C278.1,241.1,279,240.8,280.2,240.8z"/>
		<path class="st1" d="M297.8,266.4c-2.2,0-4.3-0.3-5.9-1.2c-1.9-0.9-3.1-2.5-4-4.3c-0.9-1.9-1.5-4.3-1.5-7.1c0-3.1,0.6-5.6,1.5-7.4
			c0.9-1.9,2.5-3.4,4-4.3c1.9-0.9,3.7-1.2,6.2-1.2c1.2,0,2.5,0,3.7,0.3c1.2,0.3,2.2,0.6,2.8,0.9l-1.2,3.1c-0.6-0.3-1.5-0.6-2.5-0.9
			c-0.9-0.3-1.9-0.3-2.8-0.3c-1.9,0-3.1,0.3-4.3,1.2c-1.2,0.6-1.9,1.9-2.5,3.4c-0.6,1.5-0.9,3.1-0.9,5.2c0,1.9,0.3,3.7,0.9,5.2
			c0.6,1.5,1.2,2.5,2.5,3.4c1.2,0.6,2.5,1.2,4,1.2c1.2,0,2.5,0,3.7-0.3c0.9-0.3,2.2-0.6,2.8-0.9v3.4c-0.9,0.3-1.9,0.6-2.8,0.9
			C300.6,266.4,299.3,266.4,297.8,266.4z"/>
		<path class="st1" d="M313.8,230.9v10.5c0,0.6,0,1.2,0,1.9s0,1.2-0.3,1.5h0.3c0.6-0.9,1.2-1.5,1.9-2.2c0.9-0.6,1.5-0.9,2.8-1.2
			c0.9-0.3,2.2-0.6,3.1-0.6c1.9,0,3.7,0.3,4.9,0.9c1.2,0.6,2.5,1.5,3.1,3.1c0.6,1.2,0.9,3.1,0.9,5.2v16h-3.7v-16
			c0-2.2-0.6-3.7-1.5-4.6c-0.9-0.9-2.5-1.5-4.3-1.5s-3.4,0.3-4.3,0.9c-1.2,0.6-1.9,1.9-2.5,3.1c-0.6,1.2-0.6,3.1-0.6,4.9v13h-3.7
			v-35.2h4V230.9z"/>
		<path class="st1" d="M340.4,232.2c0.6,0,1.2,0.3,1.5,0.6c0.3,0.3,0.6,0.9,0.6,1.9c0,0.9-0.3,1.5-0.6,1.9c-0.3,0.3-0.9,0.6-1.5,0.6
			s-1.2-0.3-1.5-0.6s-0.6-0.9-0.6-1.9c0-0.9,0.3-1.5,0.6-1.9C339.1,232.2,339.7,232.2,340.4,232.2z M342.2,241.4v24.7h-3.7v-24.7
			H342.2z"/>
		<path class="st1" d="M355.5,266.1l-9.3-24.7h4l5.6,15.1c0.3,0.9,0.6,2.2,1.2,3.4c0.3,1.2,0.6,2.2,0.9,3.1h0.3
			c0.3-0.6,0.6-1.9,0.9-3.1c0.3-1.2,0.9-2.5,1.2-3.4l5.6-15.1h4l-9.6,24.7H355.5z"/>
		<path class="st1" d="M394.6,253.8c0,2.2-0.3,3.7-0.9,5.6c-0.6,1.5-1.2,3.1-2.2,4c-0.9,1.2-2.2,1.9-3.7,2.5
			c-1.5,0.6-3.1,0.9-4.6,0.9c-1.5,0-3.1-0.3-4.6-0.9c-1.2-0.6-2.5-1.5-3.7-2.5c-0.9-1.2-1.9-2.5-2.5-4c-0.6-1.5-0.9-3.4-0.9-5.6
			c0-2.8,0.3-4.9,1.2-6.8c0.9-1.9,2.2-3.4,4-4.3c1.9-0.9,3.7-1.5,6.2-1.5c2.2,0,4.3,0.6,5.9,1.5c1.5,0.9,3.1,2.5,4,4.3
			C394,248.5,394.6,251,394.6,253.8z M375.8,253.8c0,1.9,0.3,3.7,0.9,5.2c0.6,1.5,1.2,2.5,2.5,3.4c1.2,0.9,2.5,1.2,4.3,1.2
			s3.1-0.3,4.3-1.2c1.2-0.9,1.9-1.9,2.5-3.4c0.6-1.5,0.9-3.1,0.9-5.2c0-1.9-0.3-3.7-0.9-5.2c-0.6-1.5-1.2-2.5-2.5-3.4
			c-1.2-0.9-2.5-1.2-4.3-1.2c-2.5,0-4.3,0.9-5.6,2.5C376.4,248.2,375.8,250.7,375.8,253.8z"/>
	</g>
</g>
</svg>
