<?xml version="1.0" encoding="utf-8"?>
<!-- Generator: Adobe Illustrator 24.2.1, SVG Export Plug-In . SVG Version: 6.00 Build 0)  -->
<svg version="1.1" id="Capa_2" xmlns="http://www.w3.org/2000/svg" xmlns:xlink="http://www.w3.org/1999/xlink" x="0px" y="0px"
	 viewBox="0 0 1837.7 588.5" style="enable-background:new 0 0 1837.7 588.5;" xml:space="preserve">
<style type="text/css">
	.st0{opacity:0.29;}
	.st1{fill:#1A44DB;fill-opacity:0.2;}
	.st2{fill:#1A44DB;fill-opacity:0.15;}
	.st3{fill:#1A44DB;fill-opacity:0.1;}
</style>
<g class="st0">
	<path class="st1" d="M328,208.1h-76.3l13.1-75.4c4.4-20.5-1.9-27.4-22.5-27.4h-63.1c-20.6,0-29.4,6.9-32.5,27.4l-13.1,75.4H57.9
		c-20.6,0-29.4,6.9-32.5,27.4l-11.2,62.9c-3.1,20.5,1.9,27.4,22.5,27.4h75.6l-13.1,76c-3.1,20.5,1.9,27.4,22.5,27.4h63.1
		c20.6,0,28.1-6.9,32.5-27.4l13.1-76h76.3c20.6,0,28.1-6.9,32.5-27.4l11.3-62.9C353.6,214.9,348.6,208.1,328,208.1L328,208.1z"/>
	<path class="st2" d="M358.5,469.2h-35.4l6.1-35.1c2-9.6-0.9-12.8-10.4-12.8h-29.3c-9.6,0-13.6,3.2-15.1,12.8l-6.1,35.1h-35.1
		c-9.6,0-13.6,3.2-15.1,12.8l-5.2,29.3c-1.4,9.6,0.9,12.8,10.4,12.8h35.1l-6.1,35.4c-1.4,9.6,0.9,12.8,10.4,12.8H292
		c9.6,0,13.1-3.2,15.1-12.8l6.1-35.4h35.4c9.6,0,13.1-3.2,15.1-12.8l5.2-29.3C370.4,472.4,368.1,469.2,358.5,469.2L358.5,469.2z"/>
	<path class="st3" d="M375.4,76.1h-16.2l2.8-16.1c0.9-4.4-0.4-5.8-4.8-5.8h-13.4c-4.4,0-6.3,1.5-6.9,5.8l-2.8,16.1h-16.1
		c-4.4,0-6.3,1.5-6.9,5.8l-2.4,13.4c-0.7,4.4,0.4,5.8,4.8,5.8h16.1l-2.8,16.2c-0.7,4.4,0.4,5.8,4.8,5.8h13.4c4.4,0,6-1.5,6.9-5.8
		l2.8-16.2h16.2c4.4,0,6-1.5,6.9-5.8l2.4-13.4C380.8,77.6,379.8,76.1,375.4,76.1L375.4,76.1z"/>
	<path class="st3" d="M439.4,293.8h-16.2l2.8-15.8c0.9-4.3-0.4-5.8-4.8-5.8h-13.4c-4.4,0-6.3,1.4-6.9,5.8l-2.8,15.8h-16.1
		c-4.4,0-6.3,1.4-6.9,5.8l-2.4,13.2c-0.7,4.3,0.4,5.8,4.8,5.8h16.1l-2.8,16c-0.7,4.3,0.4,5.8,4.8,5.8h13.4c4.4,0,6-1.4,6.9-5.8
		l2.8-16h16.2c4.4,0,6-1.4,6.9-5.8l2.4-13.2C444.8,295.3,443.8,293.8,439.4,293.8L439.4,293.8z"/>
	<path class="st3" d="M559.4,358.3h-29.1l5-28.6c1.7-7.8-0.7-10.4-8.6-10.4h-24.1c-7.9,0-11.2,2.6-12.4,10.4l-5,28.6h-28.9
		c-7.9,0-11.2,2.6-12.4,10.4l-4.3,23.9c-1.2,7.8,0.7,10.4,8.6,10.4h28.9l-5,28.9c-1.2,7.8,0.7,10.4,8.6,10.4h24.1
		c7.9,0,10.7-2.6,12.4-10.4l5-28.9h29.1c7.9,0,10.7-2.6,12.4-10.4l4.3-23.9C569.2,360.9,567.3,358.3,559.4,358.3L559.4,358.3z"/>
	<path class="st1" d="M1813.6,204.2h-35l6-34.4c2-9.4-0.9-12.5-10.3-12.5h-29c-9.5,0-13.5,3.1-14.9,12.5l-6,34.4h-34.7
		c-9.5,0-13.5,3.1-14.9,12.5l-5.1,28.7c-1.4,9.4,0.8,12.5,10.3,12.5h34.7l-6,34.7c-1.4,9.4,0.9,12.5,10.3,12.5h28.9
		c9.5,0,12.9-3.1,14.9-12.5l6-34.7h35c9.4,0,12.9-3.1,14.9-12.5l5.2-28.7C1825.4,207.3,1823.1,204.2,1813.6,204.2L1813.6,204.2z"/>
	<path class="st1" d="M1794.4,342.8h-16.2l2.8-15.8c0.9-4.3-0.4-5.8-4.8-5.8h-13.5c-4.4,0-6.2,1.4-6.9,5.8l-2.8,15.8h-16.1
		c-4.4,0-6.3,1.4-6.9,5.8l-2.4,13.2c-0.7,4.3,0.4,5.8,4.8,5.8h16.1l-2.8,16c-0.7,4.3,0.4,5.8,4.8,5.8h13.5c4.4,0,6-1.4,6.9-5.8
		l2.8-16h16.2c4.4,0,6-1.4,6.9-5.8l2.4-13.2C1799.8,344.3,1798.8,342.8,1794.4,342.8L1794.4,342.8z"/>
	<path class="st1" d="M665.5,171.5h-35.2l6.1-34.7c2-9.5-0.9-12.6-10.4-12.6h-29.1c-9.5,0-13.6,3.2-15,12.6l-6.1,34.7h-34.9
		c-9.5,0-13.6,3.2-15,12.6l-5.2,28.9c-1.4,9.4,0.9,12.6,10.4,12.6H566l-6.1,35c-1.4,9.4,0.9,12.6,10.4,12.6h29.1
		c9.5,0,13-3.2,15-12.6l6.1-35h35.2c9.5,0,13-3.2,15-12.6l5.2-28.9C677.4,174.7,675.1,171.5,665.5,171.5L665.5,171.5z"/>
	<path class="st1" d="M847.5,339.2h-35.2l6.1-35.1c2-9.6-0.9-12.8-10.4-12.8h-29.1c-9.5,0-13.6,3.2-15,12.8l-6.1,35.1h-34.9
		c-9.5,0-13.6,3.2-15,12.8l-5.2,29.3c-1.4,9.6,0.9,12.8,10.4,12.8H748l-6.1,35.4c-1.4,9.6,0.9,12.8,10.4,12.8h29.1
		c9.5,0,13-3.2,15-12.8l6.1-35.4h35.2c9.5,0,13-3.2,15-12.8l5.2-29.3C859.4,342.4,857.1,339.2,847.5,339.2L847.5,339.2z"/>
	<path class="st1" d="M655.4,347.1h-16l2.8-16.1c0.9-4.4-0.4-5.8-4.7-5.8h-13.3c-4.3,0-6.2,1.5-6.8,5.8l-2.8,16.1h-15.9
		c-4.3,0-6.2,1.5-6.8,5.8l-2.4,13.4c-0.7,4.4,0.4,5.8,4.7,5.8h15.9l-2.8,16.2c-0.7,4.4,0.4,5.8,4.7,5.8h13.3c4.3,0,5.9-1.5,6.8-5.8
		l2.8-16.2h16c4.3,0,5.9-1.5,6.8-5.8l2.4-13.4C660.8,348.6,659.8,347.1,655.4,347.1L655.4,347.1z"/>
	<path class="st1" d="M907.4,262.5h-16.2l2.8-16.3c0.9-4.4-0.4-5.9-4.8-5.9h-13.4c-4.4,0-6.3,1.5-6.9,5.9l-2.8,16.3h-16.1
		c-4.4,0-6.3,1.5-6.9,5.9l-2.4,13.6c-0.7,4.4,0.4,5.9,4.8,5.9h16.1l-2.8,16.4c-0.7,4.4,0.4,5.9,4.8,5.9h13.4c4.4,0,6-1.5,6.9-5.9
		l2.8-16.4h16.2c4.4,0,6-1.5,6.9-5.9l2.4-13.6C912.8,263.9,911.8,262.5,907.4,262.5L907.4,262.5z"/>
	<path class="st3" d="M975.4,429.1h-16.2l2.8-16.1c0.9-4.4-0.4-5.8-4.8-5.8h-13.4c-4.4,0-6.3,1.5-6.9,5.8l-2.8,16.1h-16.1
		c-4.4,0-6.3,1.5-6.9,5.8l-2.4,13.4c-0.7,4.4,0.4,5.8,4.8,5.8h16.1l-2.8,16.2c-0.7,4.4,0.4,5.8,4.8,5.8h13.4c4.4,0,6-1.5,6.9-5.8
		l2.8-16.2h16.2c4.4,0,6-1.5,6.9-5.8l2.4-13.4C980.8,430.6,979.8,429.1,975.4,429.1L975.4,429.1z"/>
	<path class="st3" d="M849.5,166.3h-28.9l5-28.6c1.7-7.8-0.7-10.4-8.5-10.4h-23.9c-7.8,0-11.1,2.6-12.3,10.4l-5,28.6h-28.6
		c-7.8,0-11.1,2.6-12.3,10.4l-4.2,23.9c-1.2,7.8,0.7,10.4,8.5,10.4h28.6l-5,28.9c-1.2,7.8,0.7,10.4,8.5,10.4h23.9
		c7.8,0,10.7-2.6,12.3-10.4l5-28.9h28.9c7.8,0,10.7-2.6,12.3-10.4l4.3-23.9C859.2,168.9,857.3,166.3,849.5,166.3L849.5,166.3z"/>
	<path class="st1" d="M1428.6,224.4h-51.2l8.8-50.7c2.9-13.8-1.3-18.4-15.1-18.4h-42.4c-13.8,0-19.7,4.6-21.8,18.4l-8.8,50.7h-50.8
		c-13.8,0-19.7,4.6-21.8,18.4l-7.5,42.3c-2.1,13.8,1.2,18.4,15.1,18.4h50.8l-8.8,51.2c-2.1,13.8,1.3,18.4,15.1,18.4h42.4
		c13.8,0,18.9-4.6,21.8-18.4l8.8-51.2h51.2c13.8,0,18.9-4.6,21.8-18.4l7.6-42.3C1445.9,229,1442.5,224.4,1428.6,224.4L1428.6,224.4z
		"/>
	<path class="st2" d="M1523,392.4h-37l6.4-36.8c2.1-10-0.9-13.4-10.9-13.4h-30.6c-10,0-14.2,3.3-15.8,13.4l-6.4,36.8H1392
		c-10,0-14.2,3.3-15.8,13.4l-5.4,30.7c-1.5,10,0.9,13.4,10.9,13.4h36.7l-6.4,37.1c-1.5,10,0.9,13.4,10.9,13.4h30.6
		c10,0,13.7-3.3,15.8-13.4l6.4-37.1h37c10,0,13.7-3.3,15.8-13.4l5.5-30.7C1535.4,395.7,1533,392.4,1523,392.4L1523,392.4z"/>
	<path class="st3" d="M576.5,439.4h-12.6l2.2-12.6c0.7-3.4-0.3-4.6-3.7-4.6h-10.5c-3.4,0-4.9,1.1-5.4,4.6l-2.2,12.6h-12.5
		c-3.4,0-4.9,1.1-5.4,4.6l-1.9,10.5c-0.5,3.4,0.3,4.6,3.7,4.6h12.5l-2.2,12.7c-0.5,3.4,0.3,4.6,3.7,4.6h10.5c3.4,0,4.7-1.1,5.4-4.6
		l2.2-12.7h12.6c3.4,0,4.7-1.1,5.4-4.6l1.9-10.5C580.7,440.5,579.9,439.4,576.5,439.4L576.5,439.4z"/>
	<path class="st3" d="M1759.2,39.1h-16.9l2.9-16.8c1-4.6-0.4-6.1-5-6.1h-14c-4.6,0-6.5,1.5-7.2,6.1l-2.9,16.8h-16.8
		c-4.6,0-6.5,1.5-7.2,6.1l-2.5,14c-0.7,4.6,0.4,6.1,5,6.1h16.8l-2.9,16.9c-0.7,4.6,0.4,6.1,5,6.1h14c4.6,0,6.2-1.5,7.2-6.1l2.9-16.9
		h16.9c4.6,0,6.2-1.5,7.2-6.1l2.5-14C1764.8,40.6,1763.7,39.1,1759.2,39.1L1759.2,39.1z"/>
	<path class="st3" d="M1489.2,141.4h-16.9l2.9-17c1-4.6-0.4-6.2-5-6.2h-14c-4.6,0-6.5,1.5-7.2,6.2l-2.9,17h-16.8
		c-4.6,0-6.5,1.5-7.2,6.2l-2.5,14.2c-0.7,4.6,0.4,6.2,5,6.2h16.8l-2.9,17.1c-0.7,4.6,0.4,6.2,5,6.2h14c4.6,0,6.2-1.5,7.2-6.2
		l2.9-17.1h16.9c4.6,0,6.2-1.5,7.2-6.2l2.5-14.2C1494.8,143,1493.7,141.4,1489.2,141.4L1489.2,141.4z"/>
	<path class="st3" d="M1750.1,523.1h-17.2l3-16.8c1-4.6-0.4-6.1-5.1-6.1h-14.2c-4.6,0-6.6,1.5-7.3,6.1l-2.9,16.8h-17
		c-4.6,0-6.6,1.5-7.3,6.1l-2.5,14c-0.7,4.6,0.4,6.1,5.1,6.1h17l-2.9,16.9c-0.7,4.6,0.4,6.1,5,6.1h14.2c4.6,0,6.3-1.5,7.3-6.1l3-16.9
		h17.1c4.6,0,6.3-1.5,7.3-6.1l2.5-14C1755.9,524.6,1754.7,523.1,1750.1,523.1L1750.1,523.1z"/>
	<path class="st3" d="M1587.1,293.1h-17.2l3-16.8c1-4.6-0.4-6.1-5.1-6.1h-14.2c-4.6,0-6.6,1.5-7.3,6.1l-2.9,16.8h-17
		c-4.6,0-6.6,1.5-7.3,6.1l-2.5,14c-0.7,4.6,0.4,6.1,5.1,6.1h17l-2.9,16.9c-0.7,4.6,0.4,6.1,5,6.1h14.2c4.6,0,6.3-1.5,7.3-6.1l3-16.9
		h17.1c4.6,0,6.3-1.5,7.3-6.1l2.5-14C1592.9,294.6,1591.7,293.1,1587.1,293.1L1587.1,293.1z"/>
	<path class="st3" d="M1712.1,360.9h-30.2l5.2-29.8c1.7-8.1-0.7-10.8-8.9-10.8h-25c-8.2,0-11.6,2.7-12.9,10.8l-5.2,29.8h-30
		c-8.2,0-11.7,2.7-12.9,10.8l-4.5,24.9c-1.2,8.1,0.8,10.8,8.9,10.8h30l-5.2,30c-1.2,8.1,0.7,10.8,8.9,10.8h25
		c8.2,0,11.2-2.7,12.9-10.8l5.2-30h30.2c8.2,0,11.2-2.7,12.9-10.8l4.5-24.9C1722.2,363.6,1720.3,360.9,1712.1,360.9L1712.1,360.9z"
		/>
	<path class="st2" d="M971.1,215.2h9l-1.6,8.8c-0.5,2.4,0.2,3.2,2.7,3.2h7.5c2.4,0,3.5-0.8,3.8-3.2l1.6-8.8h9c2.4,0,3.5-0.8,3.8-3.2
		l1.3-7.4c0.4-2.4-0.2-3.2-2.7-3.2h-9l1.6-8.9c0.4-2.4-0.2-3.2-2.7-3.2h-7.5c-2.4,0-3.3,0.8-3.8,3.2l-1.6,8.9h-9
		c-2.4,0-3.3,0.8-3.8,3.2l-1.3,7.4C968.1,214.4,968.7,215.2,971.1,215.2L971.1,215.2z"/>
	<path class="st3" d="M1105.3,220.4h16.2l-2.8,16.1c-0.9,4.4,0.4,5.8,4.8,5.8h13.5c4.4,0,6.2-1.5,6.9-5.8l2.8-16.1h16.1
		c4.4,0,6.3-1.5,6.9-5.8l2.4-13.4c0.7-4.4-0.4-5.8-4.8-5.8h-16.1l2.8-16.2c0.7-4.4-0.4-5.8-4.8-5.8h-13.5c-4.4,0-6,1.5-6.9,5.8
		l-2.8,16.2h-16.2c-4.4,0-6,1.5-6.9,5.8l-2.4,13.4C1099.9,218.9,1100.9,220.4,1105.3,220.4L1105.3,220.4z"/>
	<path class="st3" d="M983.2,304.9h19.2l-3.3,18.6c-1.1,5.1,0.5,6.8,5.7,6.8h15.9c5.2,0,7.4-1.7,8.2-6.8l3.3-18.6h19
		c5.2,0,7.4-1.7,8.2-6.8l2.8-15.5c0.8-5.1-0.5-6.8-5.7-6.8h-19l3.3-18.8c0.8-5.1-0.5-6.8-5.7-6.8h-15.9c-5.2,0-7.1,1.7-8.2,6.8
		l-3.3,18.8h-19.2c-5.2,0-7.1,1.7-8.2,6.8l-2.8,15.5C976.8,303.2,978,304.9,983.2,304.9L983.2,304.9z"/>
	<path class="st3" d="M1188.5,344h-28.9l5-28.4c1.7-7.7-0.7-10.3-8.5-10.3h-23.9c-7.8,0-11.1,2.6-12.3,10.3l-5,28.4h-28.6
		c-7.8,0-11.1,2.6-12.3,10.3l-4.2,23.7c-1.2,7.7,0.7,10.3,8.5,10.3h28.6l-5,28.6c-1.2,7.7,0.7,10.3,8.5,10.3h23.9
		c7.8,0,10.7-2.6,12.3-10.3l5-28.6h28.9c7.8,0,10.7-2.6,12.3-10.3l4.3-23.7C1198.2,346.5,1196.3,344,1188.5,344L1188.5,344z"/>
</g>
</svg>
