<svg width="1342" height="376" viewBox="0 0 1342 376" fill="none" xmlns="http://www.w3.org/2000/svg">
<path d="M332.806 91.2732H273.462L283.685 32.409C287.093 16.3626 282.23 11 266.189 11H217.069C201.028 11 194.212 16.3626 191.761 32.409L181.538 91.2732H122.693C106.652 91.2732 99.8362 96.6359 97.3844 112.682L88.6574 161.819C86.2471 177.865 90.1119 183.228 106.153 183.228H164.998L154.775 242.591C152.364 258.637 156.229 264 172.27 264H221.391C237.432 264 243.291 258.637 246.699 242.591L256.922 183.228H316.266C332.307 183.228 338.166 177.865 341.574 161.819L350.343 112.682C352.753 96.6359 348.888 91.2732 332.847 91.2732H332.806Z" fill="white" fill-opacity="0.2"/>
<path d="M1225.26 73.6102H1170.65L1180.06 19.6319C1183.2 4.91752 1178.72 0 1163.96 0H1118.76C1104 0 1097.73 4.91752 1095.48 19.6319L1086.07 73.6102H1031.92C1017.16 73.6102 1010.89 78.5278 1008.64 93.2422L1000.6 138.3C998.387 153.015 1001.94 157.932 1016.7 157.932H1070.85L1061.44 212.368C1059.23 227.082 1062.78 232 1077.54 232H1122.74C1137.5 232 1142.89 227.082 1146.03 212.368L1155.43 157.932H1210.04C1224.8 157.932 1230.19 153.015 1233.33 138.3L1241.4 93.2422C1243.61 78.5278 1240.06 73.6102 1225.3 73.6102H1225.26Z" fill="white" fill-opacity="0.2"/>
<path d="M392.157 130.258H376.362L379.083 114.67C379.99 110.42 378.696 109 374.427 109H361.353C357.083 109 355.269 110.42 354.617 114.67L351.896 130.258H336.234C331.964 130.258 330.15 131.678 329.498 135.928L327.175 148.94C326.533 153.19 327.562 154.61 331.832 154.61H347.494L344.773 170.33C344.131 174.58 345.16 176 349.429 176H362.503C366.773 176 368.332 174.58 369.239 170.33L371.96 154.61H387.755C392.025 154.61 393.584 153.19 394.491 148.94L396.825 135.928C397.467 131.678 396.438 130.258 392.168 130.258H392.157Z" fill="white" fill-opacity="0.1"/>
<path d="M65.1574 245.258H49.3625L52.0835 229.67C52.9904 225.42 51.6963 224 47.4268 224H34.3529C30.0835 224 28.2695 225.42 27.6169 229.67L24.8959 245.258H9.23379C4.96431 245.258 3.15033 246.678 2.49774 250.928L0.174967 263.94C-0.466562 268.19 0.562096 269.61 4.83158 269.61H20.4937L17.7728 285.33C17.1312 289.58 18.1599 291 22.4294 291H35.5033C39.7727 291 41.3323 289.58 42.2393 285.33L44.9603 269.61H60.7551C65.0246 269.61 66.5842 268.19 67.4912 263.94L69.825 250.928C70.4666 246.678 69.4379 245.258 65.1684 245.258H65.1574Z" fill="white" fill-opacity="0.2"/>
<path d="M1337.16 221.258H1321.36L1324.08 205.67C1324.99 201.42 1323.7 200 1319.43 200H1306.35C1302.08 200 1300.27 201.42 1299.62 205.67L1296.9 221.258H1281.23C1276.96 221.258 1275.15 222.678 1274.5 226.928L1272.17 239.94C1271.53 244.19 1272.56 245.61 1276.83 245.61H1292.49L1289.77 261.33C1289.13 265.58 1290.16 267 1294.43 267H1307.5C1311.77 267 1313.33 265.58 1314.24 261.33L1316.96 245.61H1332.76C1337.02 245.61 1338.58 244.19 1339.49 239.94L1341.83 226.928C1342.47 222.678 1341.44 221.258 1337.17 221.258H1337.16Z" fill="white" fill-opacity="0.2"/>
<path d="M1195.16 286.258H1179.36L1182.08 270.67C1182.99 266.42 1181.7 265 1177.43 265H1164.35C1160.08 265 1158.27 266.42 1157.62 270.67L1154.9 286.258H1139.23C1134.96 286.258 1133.15 287.678 1132.5 291.928L1130.17 304.94C1129.53 309.19 1130.56 310.61 1134.83 310.61H1150.49L1147.77 326.33C1147.13 330.58 1148.16 332 1152.43 332H1165.5C1169.77 332 1171.33 330.58 1172.24 326.33L1174.96 310.61H1190.76C1195.02 310.61 1196.58 309.19 1197.49 304.94L1199.83 291.928C1200.47 287.678 1199.44 286.258 1195.17 286.258H1195.16Z" fill="white" fill-opacity="0.2"/>
<path d="M383.069 274.276H347.418L353.56 239.608C355.607 230.158 352.686 227 343.049 227H313.539C303.903 227 299.808 230.158 298.335 239.608L292.194 274.276H256.842C247.205 274.276 243.111 277.434 241.638 286.884L236.395 315.822C234.947 325.272 237.269 328.431 246.906 328.431H282.257L276.116 363.392C274.668 372.842 276.989 376 286.626 376H316.136C325.773 376 329.293 372.842 331.34 363.392L337.482 328.431H373.133C382.77 328.431 386.29 325.272 388.337 315.822L393.605 286.884C395.053 277.434 392.731 274.276 383.094 274.276H383.069Z" fill="white" fill-opacity="0.1"/>
<path d="M1115.42 221.122H1087.44L1092.26 193.901C1093.87 186.48 1091.58 184 1084.01 184H1060.85C1053.29 184 1050.08 186.48 1048.92 193.901L1044.1 221.122H1016.36C1008.79 221.122 1005.58 223.602 1004.42 231.023L1000.31 253.746C999.174 261.167 1001 263.647 1008.56 263.647H1036.3L1031.48 291.099C1030.35 298.52 1032.17 301 1039.73 301H1062.89C1070.45 301 1073.22 298.52 1074.82 291.099L1079.64 263.647H1107.62C1115.19 263.647 1117.95 261.167 1119.56 253.746L1123.69 231.023C1124.83 223.602 1123 221.122 1115.44 221.122H1115.42Z" fill="white" fill-opacity="0.1"/>
</svg>
