<?xml version="1.0" encoding="utf-8"?>
<!-- Generator: Adobe Illustrator 24.2.1, SVG Export Plug-In . SVG Version: 6.00 Build 0)  -->
<svg version="1.1" id="Capa_1" xmlns="http://www.w3.org/2000/svg" xmlns:xlink="http://www.w3.org/1999/xlink" x="0px" y="0px"
	 viewBox="0 0 21.5 24.5" style="enable-background:new 0 0 21.5 24.5;" xml:space="preserve">
<style type="text/css">
	.st0{stroke:#000000;stroke-width:0.25;}
</style>
<g>
	<path class="st0" d="M13.6,4.9c0,0.3,0.2,0.6,0.5,0.7c1.9,0.8,3.5,2.2,4.4,4l0.1-0.1l-0.1,0.1c1,1.8,1.3,3.9,0.9,5.9
		c-0.4,2-1.5,3.8-3.1,5.1c-1.6,1.3-3.6,2-5.6,2c-2.1,0-4-0.7-5.6-2L5,20.7l0.1-0.1c-1.6-1.3-2.7-3.1-3.1-5.1c-0.4-2-0.1-4.1,0.9-5.9
		c1-1.8,2.5-3.2,4.4-4c0.3-0.1,0.5-0.4,0.5-0.7l0,0c0-0.3-0.1-0.6-0.3-0.8l0,0C7.3,3.9,7,3.8,6.7,3.9l0,0C4.4,4.9,2.5,6.6,1.4,8.8v0
		c-1.2,2.2-1.5,4.7-1,7.1C0.8,18.2,2.1,20.4,4,22c1.9,1.6,4.3,2.4,6.7,2.4c2.5,0,4.8-0.9,6.7-2.4c1.9-1.6,3.2-3.7,3.7-6.1
		c0.5-2.4,0.1-4.9-1-7.1c-1.2-2.2-3-3.9-5.3-4.8l0,0c-0.3-0.1-0.6-0.1-0.9,0.1l0,0C13.7,4.2,13.6,4.6,13.6,4.9L13.6,4.9z"/>
	<path class="st0" d="M10.8,10.1c0.2,0,0.5-0.1,0.6-0.3c0.2-0.2,0.3-0.4,0.3-0.6V1c0-0.3-0.2-0.6-0.4-0.8c-0.3-0.2-0.6-0.2-0.9,0
		C10,0.4,9.9,0.7,9.9,1v8.3c0,0.2,0.1,0.5,0.3,0.6C10.3,10,10.5,10.1,10.8,10.1z"/>
</g>
</svg>
