<?xml version="1.0" encoding="utf-8"?>
<!-- Generator: Adobe Illustrator 24.2.1, SVG Export Plug-In . SVG Version: 6.00 Build 0)  -->
<svg version="1.1" id="Capa_1" xmlns="http://www.w3.org/2000/svg" xmlns:xlink="http://www.w3.org/1999/xlink" x="0px" y="0px"
	 viewBox="0 0 21.5 24.5" style="enable-background:new 0 0 21.5 24.5;" xml:space="preserve">
<g>
	<path d="M20,8.8c-1.2-2.2-3-3.9-5.2-4.7c-0.4-0.1-0.7-0.1-1,0.1c-0.3,0.1-0.4,0.6-0.4,0.9c0,0.4,0.2,0.7,0.6,0.8
		c1.9,0.8,3.3,2.1,4.2,3.8l0,0l0.1,0.2l0,0c0.9,1.7,1.2,3.6,0.8,5.5c-0.4,1.9-1.4,3.7-3,4.9c-1.5,1.2-3.4,1.9-5.4,1.9
		c-2,0-3.8-0.6-5.4-1.9l0,0c-1.5-1.3-2.6-3-3-4.9c-0.4-2-0.1-4,0.9-5.7c1-1.8,2.4-3.1,4.2-3.8C7.8,5.8,8,5.4,8,5.1
		c0-0.3-0.1-0.7-0.3-0.9C7.4,4,7.1,3.9,6.7,4C4.4,5,2.6,6.7,1.5,8.8c-1.1,2.1-1.5,4.6-1,7c0.4,2.3,1.7,4.5,3.6,6
		c1.8,1.5,4.2,2.4,6.6,2.4c2.4,0,4.7-0.8,6.6-2.4c1.9-1.6,3.2-3.7,3.7-6C21.5,13.5,21.1,11.1,20,8.8z"/>
	<path d="M11.4,0.4c-0.3-0.2-0.7-0.2-1,0C10,0.6,9.8,0.8,9.8,1.3v8.1c0,0.2,0.1,0.6,0.3,0.7c0.1,0.1,0.3,0.2,0.7,0.2
		c0.2,0,0.6-0.1,0.7-0.3c0.2-0.2,0.3-0.4,0.3-0.7v-8C11.8,0.9,11.5,0.5,11.4,0.4z"/>
</g>
</svg>
