<?xml version="1.0" encoding="utf-8"?>
<!-- Generator: Adobe Illustrator 24.2.1, SVG Export Plug-In . SVG Version: 6.00 Build 0)  -->
<svg version="1.1" id="Capa_1" xmlns="http://www.w3.org/2000/svg" xmlns:xlink="http://www.w3.org/1999/xlink" x="0px" y="0px"
	 viewBox="0 0 29 29" style="enable-background:new 0 0 29 29;" xml:space="preserve">
<style type="text/css">
	.st0{fill:#717D96;}
</style>
<g>
	<path class="st0" d="M14.5,28.5c-7.7,0-14-6.3-14-14s6.3-14,14-14s14,6.3,14,14S22.2,28.5,14.5,28.5z M14.5,1.5
		c-7.2,0-13,5.8-13,13c0,7.2,5.8,13,13,13c7.2,0,13-5.8,13-13C27.5,7.3,21.7,1.5,14.5,1.5z"/>
	<path class="st0" d="M23.6,14.7c0.1-0.1,0.1-0.3,0-0.4c0-0.1-0.1-0.1-0.1-0.2l-7.4-7.4c-0.2-0.2-0.5-0.2-0.7,0s-0.2,0.5,0,0.7
		l6.5,6.5h-16c-0.3,0-0.5,0.2-0.5,0.5S5.6,15,5.9,15h16l-6.5,6.5c-0.2,0.2-0.2,0.5,0,0.7c0.1,0.1,0.2,0.1,0.4,0.1s0.3,0,0.4-0.1
		l7.4-7.4C23.5,14.8,23.5,14.8,23.6,14.7z"/>
</g>
</svg>
