<?xml version="1.0" encoding="utf-8"?>
<!-- Generator: Adobe Illustrator 24.2.1, SVG Export Plug-In . SVG Version: 6.00 Build 0)  -->
<svg version="1.1" id="Capa_1" xmlns="http://www.w3.org/2000/svg" xmlns:xlink="http://www.w3.org/1999/xlink" x="0px" y="0px"
	 viewBox="0 0 25.1 23.7" style="enable-background:new 0 0 25.1 23.7;" xml:space="preserve">
<style type="text/css">
	.st0{fill-rule:evenodd;clip-rule:evenodd;fill:#9A9AB0;}
</style>
<path class="st0" d="M3.2,1.2L1.8,2.6l4.1,4.1c-0.4,0.3-0.8,0.7-1.1,1c-0.8,0.8-1.6,1.7-2.2,2.5c-0.4,0.5-0.7,0.9-0.8,1.2l-0.3,0.5
	l0.3,0.5c0.2,0.2,0.4,0.6,0.8,1.2c0.7,0.9,1.4,1.7,2.2,2.5c2.4,2.4,5,3.8,7.8,3.8c1.7,0,3.4-0.6,5-1.6l4.3,4.3l1.4-1.4L3.2,1.2z
	 M16.1,16.8l-1.5-1.5c-0.6,0.4-1.3,0.6-2,0.6c-2.2,0-4-1.8-4-4c0-0.7,0.2-1.4,0.6-2L7.3,8.1c-0.4,0.3-0.8,0.7-1.2,1
	c-0.8,0.7-1.4,1.5-2,2.3c-0.1,0.2-0.3,0.3-0.4,0.5C3.9,12,4,12.2,4.1,12.3c0.6,0.8,1.3,1.6,2,2.3c2.1,2,4.3,3.2,6.4,3.2
	C13.7,17.9,14.9,17.5,16.1,16.8z M10.6,11.3c0,0.2-0.1,0.3-0.1,0.5c0,1.1,0.9,2,2,2c0.2,0,0.4,0,0.5-0.1L10.6,11.3z M20.6,15.8
	l-1.4-1.4c0.6-0.6,1.2-1.3,1.7-2c0.1-0.2,0.3-0.3,0.4-0.5c-0.1-0.2-0.2-0.3-0.4-0.5c-0.6-0.8-1.3-1.6-2-2.3c-2.1-2-4.3-3.2-6.4-3.2
	c-0.5,0-1,0.1-1.6,0.2L9.4,4.5c1-0.4,2.1-0.6,3.2-0.6c2.7,0,5.3,1.4,7.8,3.8c0.8,0.8,1.6,1.7,2.2,2.5c0.4,0.5,0.7,0.9,0.8,1.2
	l0.3,0.5l-0.3,0.5c-0.2,0.2-0.4,0.6-0.8,1.2C22,14.3,21.3,15,20.6,15.8z"/>
</svg>
