<svg width="16" height="16" viewBox="0 0 16 16" fill="none" xmlns="http://www.w3.org/2000/svg">
<path d="M15 14.3913V4.04348L11.9565 1H1.6087C1.27391 1 1 1.27391 1 1.6087V14.3913C1 14.7261 1.27391 15 1.6087 15H14.3913C14.7261 15 15 14.7261 15 14.3913Z" stroke="white" stroke-linecap="round" stroke-linejoin="round"/>
<path d="M12.5654 15L3.43499 15V10.1548C3.43499 9.80785 3.71498 9.52174 4.06802 9.52174H11.9567C12.2915 9.52174 12.5654 9.79565 12.5654 10.1304V15Z" stroke="white" stroke-linecap="round" stroke-linejoin="round"/>
<path d="M4.65234 1H9.52191V4.65217C9.52191 4.98696 9.248 5.26087 8.91321 5.26087H5.26104C4.92626 5.26087 4.65234 4.98696 4.65234 4.65217V1Z" stroke="white" stroke-linecap="round" stroke-linejoin="round"/>
</svg>
