<?xml version="1.0" encoding="utf-8"?>
<!-- Generator: Adobe Illustrator 24.2.1, SVG Export Plug-In . SVG Version: 6.00 Build 0)  -->
<svg version="1.1" id="Capa_1" xmlns="http://www.w3.org/2000/svg" xmlns:xlink="http://www.w3.org/1999/xlink" x="0px" y="0px"
	 viewBox="0 0 18.7 18.7" style="enable-background:new 0 0 18.7 18.7;" xml:space="preserve">
<style type="text/css">
	.st0{fill-rule:evenodd;clip-rule:evenodd;fill:#9A9AB0;}
</style>
<path class="st0" d="M13.3,11.8h-0.8l-0.3-0.3c1.2-1.4,1.8-3.3,1.5-5.3c-0.5-2.8-2.8-5-5.6-5.3c-4.2-0.5-7.8,3-7.3,7.3
	c0.3,2.8,2.6,5.1,5.3,5.6c2,0.3,3.9-0.3,5.3-1.5l0.3,0.3v0.8l4.2,4.2c0.4,0.4,1.1,0.4,1.5,0s0.4-1.1,0-1.5L13.3,11.8z M7.3,11.8
	c-2.5,0-4.5-2-4.5-4.5s2-4.5,4.5-4.5s4.5,2,4.5,4.5S9.8,11.8,7.3,11.8z"/>
</svg>
