<?xml version="1.0" encoding="utf-8"?>
<!-- Generator: Adobe Illustrator 24.2.1, SVG Export Plug-In . SVG Version: 6.00 Build 0)  -->
<svg version="1.1" id="Capa_1" xmlns="http://www.w3.org/2000/svg" xmlns:xlink="http://www.w3.org/1999/xlink" x="0px" y="0px"
	 viewBox="0 0 16.6 16.6" style="enable-background:new 0 0 16.6 16.6;" xml:space="preserve">
<style type="text/css">
	.st0{fill:#D9D9D9;}
</style>
<path class="st0" d="M8.3,0.5C4,0.5,0.5,4,0.5,8.3c0,4.3,3.5,7.8,7.8,7.8c4.3,0,7.8-3.5,7.8-7.8C16.1,4,12.6,0.5,8.3,0.5z
	 M13.2,12.1c0.1,0.1,0.1,0.1,0.1,0.2l0.1,0.1l0,0.1c0,0,0.1,0.1,0.1,0.2c0,0.1,0,0.2-0.1,0.3c0,0.1-0.1,0.2-0.2,0.2
	c-0.1,0.1-0.1,0.1-0.2,0.1L13,13.4l-0.1,0c0,0-0.1,0.1-0.2,0.1c-0.1,0-0.2,0-0.3-0.1c-0.1,0-0.2-0.1-0.2-0.2L8.3,9.3l-3.8,3.8
	c-0.1,0.1-0.1,0.1-0.2,0.1l-0.1,0.1l-0.1,0c0,0-0.2,0.2-0.5,0c-0.1,0-0.2-0.1-0.3-0.2C3.3,13.1,3.3,13,3.3,13l-0.1-0.1l0-0.1
	c0,0-0.1-0.1-0.1-0.2c0-0.1,0-0.2,0.1-0.3c0-0.1,0.1-0.2,0.2-0.2l3.8-3.8L3.3,4.4C3.3,4.3,3.2,4.1,3.2,3.9c0-0.2,0.1-0.3,0.1-0.5
	l0-0.1c0.2-0.2,0.4-0.2,0.5-0.2c0.2,0,0.3,0.1,0.5,0.1l0.1,0l3.8,3.8l3.8-3.8c0.1-0.1,0.1-0.1,0.2-0.1l0.1-0.1l0.1,0
	c0,0,0.2-0.2,0.5,0c0.1,0,0.2,0.1,0.2,0.2c0.1,0.1,0.1,0.1,0.1,0.2l0.1,0.1l0,0.1c0,0,0.1,0.1,0.1,0.2c0,0.1,0,0.2-0.1,0.3
	c0,0.1-0.1,0.2-0.2,0.2L9.3,8.3L13.2,12.1z"/>
</svg>
