<svg width="305" height="43" viewBox="0 0 305 43" fill="none" xmlns="http://www.w3.org/2000/svg">
<path d="M271.873 18.7871H270.008L269.546 21.4013H271.41C272.25 21.4013 272.833 20.9209 272.983 20.1013C273.132 19.2817 272.705 18.7871 271.865 18.7871H271.873Z" fill="white"/>
<path d="M301.713 13.6433H291.553L293.303 3.63868C293.887 0.911436 293.054 0 290.308 0H281.898C279.151 0 277.984 0.911436 277.564 3.63868L275.814 13.6433H265.739C262.993 13.6433 261.826 14.5547 261.406 17.282L259.905 25.6333C259.492 28.3605 260.154 29.2719 262.9 29.2719H272.975L271.225 39.3613C270.812 42.0886 271.474 43 274.22 43H282.63C285.377 43 286.38 42.0886 286.964 39.3613L288.714 29.2719H298.874C301.621 29.2719 302.624 28.3605 303.208 25.6333L304.709 17.282C305.122 14.5547 304.46 13.6433 301.713 13.6433ZM274.462 20.2212C274.185 21.8321 273.004 22.7364 271.31 22.7364H269.311L268.884 25.1669C268.827 25.4496 268.713 25.5555 268.421 25.5555H267.753C267.468 25.5555 267.383 25.4496 267.432 25.1669L268.735 17.8331C268.791 17.5504 268.905 17.4445 269.197 17.4445H272.257C273.075 17.4445 273.694 17.6988 274.099 18.2075C274.505 18.7233 274.619 19.3804 274.469 20.2141L274.462 20.2212ZM280.695 24.6088L280.603 25.1669C280.546 25.4496 280.432 25.5555 280.14 25.5555H275.779C275.494 25.5555 275.409 25.4496 275.458 25.1669L276.76 17.8331C276.817 17.5504 276.931 17.4445 277.223 17.4445H277.892C278.176 17.4445 278.269 17.5504 278.212 17.8331L277.074 24.2131H280.375C280.66 24.2131 280.752 24.3191 280.695 24.6017V24.6088ZM289.909 17.8401L288.999 22.9131C288.678 24.743 287.426 25.7322 285.32 25.7322C284.288 25.7322 283.534 25.4496 283.065 24.8773C282.595 24.305 282.446 23.5631 282.616 22.6375L283.477 17.8401C283.52 17.5575 283.648 17.4515 283.94 17.4515H284.594C284.879 17.4515 284.971 17.5575 284.914 17.8401L284.039 22.7859C283.854 23.8245 284.359 24.3968 285.519 24.3968C286.679 24.3968 287.398 23.8245 287.576 22.7859L288.451 17.8401C288.508 17.5575 288.621 17.4515 288.913 17.4515H289.568C289.852 17.4515 289.945 17.5575 289.902 17.8401H289.909ZM297.245 19.5288L296.598 19.8043C296.32 19.9103 296.221 19.875 296.128 19.6135C295.907 18.9847 295.509 18.6526 294.648 18.6526C293.531 18.6526 292.926 18.9988 292.798 19.6913C292.741 20.094 292.891 20.3554 293.268 20.5038C293.645 20.6522 293.979 20.7299 294.591 20.7864C296.512 21.0054 297.33 21.8745 297.06 23.3935C296.776 24.955 295.566 25.7322 293.438 25.7322C291.774 25.7322 290.792 25.0963 290.528 23.8245C290.486 23.5419 290.571 23.4147 290.863 23.3229L291.532 23.0968C291.816 23.0049 291.902 23.0615 291.98 23.337C292.151 24.0435 292.691 24.3968 293.588 24.3968C294.797 24.3968 295.473 23.9941 295.623 23.2098C295.751 22.5103 295.139 22.2701 293.993 22.15C293.36 22.0935 292.926 22.0016 292.385 21.7473C292.108 21.6201 291.887 21.4717 291.731 21.3022C291.411 20.9489 291.211 20.3413 291.354 19.5782C291.631 18.1015 292.812 17.282 294.876 17.282C296.406 17.282 297.174 17.9178 297.544 19.0554C297.636 19.3168 297.565 19.4086 297.259 19.5358L297.245 19.5288Z" fill="white"/>
<path d="M24.1988 28.9824H9.79051L6.90886 35.4754H0L15.3688 3.45508H18.6134L34.0249 35.4754H27.116L24.1917 28.9824H24.1988ZM12.1243 23.5773H21.865L16.9697 12.9934L12.1243 23.5773Z" fill="white"/>
<path d="M65.7299 19.4437V31.1581C62.1652 34.0196 57.2202 35.8354 51.6845 35.8354C42.264 35.8354 34.5796 28.5227 34.5796 19.486C34.5796 10.4494 42.264 3.13672 51.6845 3.13672C57.085 3.13672 61.475 4.91013 64.5844 7.72216L60.4647 12.2652C58.3159 10.3576 55.2066 9.22002 51.6845 9.22002C45.9212 9.22002 41.2536 13.8549 41.2536 19.486C41.2536 25.4351 45.9212 30.07 51.6845 30.07C54.5662 30.07 57.1277 29.2504 59.1839 27.8939V24.8981H50.9944V19.4507H65.7228L65.7299 19.4437Z" fill="white"/>
<path d="M96.233 29.8443V35.4754H71.4863V3.45508H95.2724V9.0862H77.8473V17.2185H92.4406V22.6659H77.8473V29.8443H96.233Z" fill="white"/>
<path d="M122.673 3.45508H129.945L118.966 19.3098L130.265 35.4825H122.809L114.712 24.3121L106.614 35.4825H99.1577L110.499 19.3098L99.4779 3.45508H106.799L114.712 14.357L122.673 3.45508Z" fill="white"/>
<path d="M147.733 3.45508C157.154 3.45508 160.356 8.99435 160.356 14.9929C160.356 23.761 154.635 27.2584 146.453 27.2584H141.01V35.4825H134.471V3.45508H147.733ZM145.812 21.8534C151.028 21.8534 153.497 19.2604 153.497 15.4945C153.497 12.1808 151.761 9.09326 146.68 9.09326H141.01V21.8534H145.812Z" fill="white"/>
<path d="M197.953 19.486C197.953 28.5227 190.311 35.8354 180.798 35.8354C171.285 35.8354 163.643 28.5227 163.643 19.486C163.643 10.4494 171.327 3.13672 180.798 3.13672C190.268 3.13672 197.953 10.4494 197.953 19.486ZM191.271 19.486C191.271 13.8549 186.561 9.22002 180.798 9.22002C175.034 9.22002 170.367 13.8549 170.367 19.486C170.367 25.1172 175.034 29.7521 180.798 29.7521C186.561 29.7521 191.271 25.1666 191.271 19.486Z" fill="white"/>
<path d="M217.163 27.2089C216.8 27.2513 216.338 27.2513 215.925 27.2513H209.934V35.4754H203.395V3.45508H217.618C227.039 3.45508 230.241 8.99435 230.241 14.9929C230.241 20.4897 227.957 24.1214 223.702 25.9372L231.201 35.4754H223.382L217.163 27.2089ZM209.934 21.8958H215.697C220.913 21.8958 223.382 19.2604 223.382 15.4945C223.382 12.1808 221.646 9.09326 216.565 9.09326H209.934V21.8958Z" fill="white"/>
<path d="M260.936 9.0862H250.647V35.4754H244.058V9.0862H233.812V3.45508H260.936V9.0862Z" fill="white"/>
</svg>
