<svg width="375" height="812" viewBox="0 0 375 812" fill="none" xmlns="http://www.w3.org/2000/svg">
<g clip-path="url(#clip0_352_10470)">
<rect width="375" height="812" fill="white"/>
<rect width="375" height="812" fill="#000F9F"/>
<path d="M309.517 380.66H307.566L307.082 383.396H309.033C309.912 383.396 310.522 382.893 310.679 382.035C310.835 381.178 310.388 380.66 309.509 380.66H309.517Z" fill="white"/>
<path d="M340.746 375.278H330.113L331.945 364.808C332.556 361.954 331.684 361 328.81 361H320.009C317.135 361 315.913 361.954 315.474 364.808L313.642 375.278H303.099C300.224 375.278 299.003 376.232 298.564 379.086L296.993 387.825C296.561 390.68 297.253 391.633 300.128 391.633H310.671L308.84 402.192C308.408 405.046 309.1 406 311.974 406H320.776C323.65 406 324.7 405.046 325.31 402.192L327.142 391.633H337.775C340.649 391.633 341.699 390.68 342.31 387.825L343.881 379.086C344.313 376.232 343.621 375.278 340.746 375.278ZM312.228 382.162C311.937 383.848 310.701 384.794 308.929 384.794H306.837L306.39 387.337C306.33 387.633 306.211 387.744 305.906 387.744H305.206C304.908 387.744 304.819 387.633 304.871 387.337L306.233 379.663C306.293 379.367 306.412 379.256 306.717 379.256H309.919C310.776 379.256 311.423 379.522 311.848 380.054C312.272 380.594 312.391 381.282 312.235 382.154L312.228 382.162ZM318.75 386.753L318.654 387.337C318.594 387.633 318.475 387.744 318.17 387.744H313.605C313.307 387.744 313.218 387.633 313.27 387.337L314.633 379.663C314.692 379.367 314.811 379.256 315.117 379.256H315.817C316.114 379.256 316.211 379.367 316.152 379.663L314.96 386.339H318.415C318.713 386.339 318.81 386.45 318.75 386.746V386.753ZM328.393 379.67L327.44 384.979C327.105 386.894 325.794 387.929 323.59 387.929C322.511 387.929 321.721 387.633 321.23 387.034C320.739 386.435 320.582 385.659 320.761 384.69L321.662 379.67C321.707 379.374 321.841 379.263 322.146 379.263H322.831C323.129 379.263 323.226 379.374 323.166 379.67L322.25 384.846C322.056 385.933 322.585 386.532 323.799 386.532C325.013 386.532 325.765 385.933 325.951 384.846L326.867 379.67C326.926 379.374 327.045 379.263 327.351 379.263H328.036C328.334 379.263 328.43 379.374 328.386 379.67H328.393ZM336.07 381.437L335.393 381.725C335.102 381.836 334.998 381.799 334.901 381.526C334.67 380.868 334.253 380.52 333.352 380.52C332.183 380.52 331.55 380.883 331.416 381.607C331.357 382.029 331.513 382.302 331.908 382.457C332.302 382.613 332.652 382.694 333.293 382.753C335.303 382.982 336.159 383.892 335.877 385.482C335.579 387.116 334.313 387.929 332.086 387.929C330.344 387.929 329.316 387.264 329.041 385.933C328.996 385.637 329.086 385.504 329.391 385.408L330.091 385.171C330.389 385.075 330.478 385.134 330.56 385.422C330.739 386.162 331.305 386.532 332.243 386.532C333.509 386.532 334.216 386.11 334.372 385.289C334.506 384.557 333.866 384.306 332.667 384.18C332.005 384.121 331.55 384.025 330.984 383.759C330.694 383.626 330.463 383.47 330.299 383.293C329.964 382.923 329.756 382.287 329.905 381.489C330.195 379.943 331.431 379.086 333.591 379.086C335.191 379.086 335.996 379.751 336.383 380.942C336.48 381.215 336.405 381.311 336.085 381.444L336.07 381.437Z" fill="white"/>
<path d="M50.3243 391.33H35.2459L32.2302 398.125H25L41.0837 364.615H44.4791L60.6074 398.125H53.3772L50.3169 391.33H50.3243ZM37.6882 385.673H47.882L42.759 374.597L37.6882 385.673Z" fill="white"/>
<path d="M93.7877 381.349V393.608C90.0572 396.602 84.8821 398.503 79.089 398.503C69.2303 398.503 61.1885 390.85 61.1885 381.393C61.1885 371.936 69.2303 364.283 79.089 364.283C84.7406 364.283 89.3349 366.139 92.5888 369.082L88.2775 373.836C86.0288 371.84 82.7748 370.649 79.089 370.649C73.0576 370.649 68.173 375.5 68.173 381.393C68.173 387.619 73.0576 392.469 79.089 392.469C82.1047 392.469 84.7853 391.611 86.9372 390.192V387.057H78.3667V381.356H93.7802L93.7877 381.349Z" fill="white"/>
<path d="M125.709 392.232V398.125H99.8115V364.615H124.704V370.508H106.468V379.019H121.74V384.72H106.468V392.232H125.709Z" fill="white"/>
<path d="M153.379 364.615H160.989L149.5 381.207L161.324 398.132H153.52L145.047 386.442L136.573 398.132H128.77L140.639 381.207L129.105 364.615H136.767L145.047 376.024L153.379 364.615Z" fill="white"/>
<path d="M179.604 364.615C189.463 364.615 192.814 370.412 192.814 376.69C192.814 385.866 186.827 389.526 178.264 389.526H172.568V398.132H165.725V364.615H179.604ZM177.594 383.869C183.052 383.869 185.636 381.156 185.636 377.215C185.636 373.747 183.819 370.516 178.502 370.516H172.568V383.869H177.594Z" fill="white"/>
<path d="M232.159 381.393C232.159 390.85 224.162 398.503 214.207 398.503C204.251 398.503 196.254 390.85 196.254 381.393C196.254 371.936 204.296 364.283 214.207 364.283C224.117 364.283 232.159 371.936 232.159 381.393ZM225.167 381.393C225.167 375.5 220.238 370.649 214.207 370.649C208.175 370.649 203.291 375.5 203.291 381.393C203.291 387.286 208.175 392.136 214.207 392.136C220.238 392.136 225.167 387.338 225.167 381.393Z" fill="white"/>
<path d="M252.264 389.474C251.884 389.518 251.4 389.518 250.968 389.518H244.698V398.125H237.855V364.615H252.74C262.599 364.615 265.95 370.412 265.95 376.69C265.95 382.442 263.56 386.243 259.107 388.143L266.955 398.125H258.772L252.264 389.474ZM244.698 383.914H250.73C256.188 383.914 258.772 381.156 258.772 377.215C258.772 373.747 256.955 370.516 251.638 370.516H244.698V383.914Z" fill="white"/>
<path d="M298.072 370.508H287.305V398.125H280.41V370.508H269.688V364.615H298.072V370.508Z" fill="white"/>
<path d="M163.434 323.534H112.665L121.411 273.278C124.326 259.578 120.167 255 106.443 255H64.4202C50.6968 255 44.8662 259.578 42.7686 273.278L34.0226 323.534H-16.32C-30.0433 323.534 -35.8739 328.112 -37.9715 341.812L-45.4376 383.762C-47.4997 397.462 -44.1933 402.04 -30.4699 402.04H19.8727L11.1267 452.722C9.06465 466.422 12.371 471 26.0944 471H68.1176C81.841 471 86.8539 466.422 89.7692 452.722L98.5152 402.04H149.284C163.008 402.04 168.021 397.462 170.936 383.762L178.438 341.812C180.5 328.112 177.193 323.534 163.47 323.534H163.434Z" fill="white" fill-opacity="0.2"/>
<path d="M196.805 443.729H173.339L177.381 420.462C178.729 414.12 176.806 412 170.463 412H151.039C144.695 412 142 414.12 141.031 420.462L136.988 443.729H113.719C107.376 443.729 104.68 445.848 103.711 452.191L100.26 471.612C99.3068 477.955 100.835 480.074 107.178 480.074H130.448L126.405 503.538C125.452 509.88 126.98 512 133.324 512H152.748C159.091 512 161.408 509.88 162.756 503.538L166.798 480.074H190.265C196.608 480.074 198.925 477.955 200.273 471.612L203.74 452.191C204.693 445.848 203.165 443.729 196.822 443.729H196.805Z" fill="white" fill-opacity="0.15"/>
<path d="M388.805 320.729H365.339L369.381 297.462C370.729 291.12 368.806 289 362.463 289H343.039C336.695 289 334 291.12 333.031 297.462L328.988 320.729H305.719C299.376 320.729 296.68 322.848 295.711 329.191L292.26 348.612C291.307 354.955 292.835 357.074 299.178 357.074H322.448L318.405 380.538C317.452 386.88 318.98 389 325.324 389H344.748C351.091 389 353.408 386.88 354.756 380.538L358.798 357.074H382.265C388.608 357.074 390.925 354.955 392.273 348.612L395.74 329.191C396.693 322.848 395.165 320.729 388.822 320.729H388.805Z" fill="white" fill-opacity="0.2"/>
<path d="M175.679 284.595H164.849L166.714 273.893C167.336 270.975 166.449 270 163.521 270H154.556C151.629 270 150.385 270.975 149.937 273.893L148.071 284.595H137.332C134.404 284.595 133.16 285.57 132.713 288.488L131.12 297.422C130.68 300.339 131.385 301.314 134.313 301.314H145.053L143.187 312.107C142.747 315.025 143.452 316 146.38 316H155.345C158.273 316 159.342 315.025 159.964 312.107L161.83 301.314H172.661C175.588 301.314 176.658 300.339 177.28 297.422L178.88 288.488C179.32 285.57 178.615 284.595 175.687 284.595H175.679Z" fill="white" fill-opacity="0.1"/>
<path d="M375.679 413.595H364.849L366.714 402.893C367.336 399.975 366.449 399 363.521 399H354.556C351.629 399 350.385 399.975 349.937 402.893L348.071 413.595H337.332C334.404 413.595 333.16 414.57 332.713 417.488L331.12 426.422C330.68 429.339 331.385 430.314 334.313 430.314H345.053L343.187 441.107C342.747 444.025 343.452 445 346.38 445H355.345C358.273 445 359.342 444.025 359.964 441.107L361.83 430.314H372.661C375.588 430.314 376.658 429.339 377.28 426.422L378.88 417.488C379.32 414.57 378.615 413.595 375.687 413.595H375.679Z" fill="white" fill-opacity="0.2"/>
<path d="M237.679 380.595H226.849L228.714 369.893C229.336 366.975 228.449 366 225.521 366H216.556C213.629 366 212.385 366.975 211.937 369.893L210.071 380.595H199.332C196.404 380.595 195.16 381.57 194.713 384.488L193.12 393.422C192.68 396.339 193.385 397.314 196.313 397.314H207.053L205.187 408.107C204.747 411.025 205.452 412 208.38 412H217.345C220.273 412 221.342 411.025 221.964 408.107L223.83 397.314H234.661C237.588 397.314 238.658 396.339 239.28 393.422L240.88 384.488C241.32 381.57 240.615 380.595 237.687 380.595H237.679Z" fill="white" fill-opacity="0.1"/>
<path d="M317.12 423.7H297.94L301.244 404.854C302.346 399.717 300.774 398 295.59 398H279.714C274.53 398 272.327 399.717 271.535 404.854L268.231 423.7H249.212C244.028 423.7 241.825 425.417 241.033 430.554L238.212 446.286C237.433 451.423 238.683 453.14 243.867 453.14H262.885L259.581 472.146C258.802 477.283 260.051 479 265.236 479H281.111C286.295 479 288.189 477.283 289.291 472.146L292.595 453.14H311.774C316.958 453.14 318.852 451.423 319.954 446.286L322.788 430.554C323.567 425.417 322.317 423.7 317.133 423.7H317.12Z" fill="white" fill-opacity="0.1"/>
</g>
<defs>
<clipPath id="clip0_352_10470">
<rect width="375" height="812" fill="white"/>
</clipPath>
</defs>
</svg>
