<svg width="71" height="71" viewBox="0 0 71 71" fill="none" xmlns="http://www.w3.org/2000/svg">
<path d="M35.5 5.91667C51.8122 5.91667 65.0833 19.1877 65.0833 35.5C65.0833 51.8122 51.8122 65.0833 35.5 65.0833C19.1877 65.0833 5.91667 51.8122 5.91667 35.5C5.91667 19.1877 19.1877 5.91667 35.5 5.91667ZM35.5 0C15.8951 0 0 15.8951 0 35.5C0 55.1049 15.8951 71 35.5 71C55.1049 71 71 55.1049 71 35.5C71 15.8951 55.1049 0 35.5 0ZM48.496 22.1875L31.8021 39.2985L23.9802 31.8849L18.4896 37.3815L31.8021 50.2917L53.9896 27.6811L48.496 22.1875Z" fill="#5DB075"/>
</svg>
