<svg width="218" height="31" viewBox="0 0 218 31" fill="none" xmlns="http://www.w3.org/2000/svg">
<path d="M194.436 13.4359H193.103L192.772 15.3055H194.105C194.706 15.3055 195.123 14.9619 195.23 14.3758C195.337 13.7896 195.031 13.4359 194.431 13.4359H194.436Z" fill="#000F9F"/>
<path d="M215.778 9.75732H208.511L209.763 2.60229C210.18 0.651835 209.585 0 207.62 0H201.606C199.642 0 198.807 0.651835 198.507 2.60229L197.255 9.75732H190.05C188.085 9.75732 187.251 10.4092 186.951 12.3596L185.877 18.3322C185.582 20.2827 186.055 20.9345 188.019 20.9345H195.225L193.973 28.1502C193.678 30.1006 194.151 30.7525 196.115 30.7525H202.13C204.094 30.7525 204.812 30.1006 205.229 28.1502L206.481 20.9345H213.747C215.711 20.9345 216.429 20.2827 216.846 18.3322L217.92 12.3596C218.215 10.4092 217.742 9.75732 215.778 9.75732ZM196.288 14.4616C196.09 15.6137 195.245 16.2605 194.034 16.2605H192.604L192.299 17.9987C192.258 18.2009 192.177 18.2767 191.968 18.2767H191.49C191.286 18.2767 191.225 18.2009 191.261 17.9987L192.192 12.7537C192.233 12.5516 192.314 12.4758 192.523 12.4758H194.711C195.296 12.4758 195.739 12.6577 196.029 13.0215C196.319 13.3904 196.4 13.8603 196.293 14.4566L196.288 14.4616ZM200.746 17.5996L200.68 17.9987C200.639 18.2009 200.558 18.2767 200.349 18.2767H197.23C197.026 18.2767 196.965 18.2009 197.001 17.9987L197.932 12.7537C197.972 12.5516 198.054 12.4758 198.263 12.4758H198.741C198.944 12.4758 199.011 12.5516 198.97 12.7537L198.156 17.3166H200.517C200.72 17.3166 200.786 17.3924 200.746 17.5945V17.5996ZM207.336 12.7588L206.684 16.3868C206.455 17.6956 205.56 18.403 204.053 18.403C203.316 18.403 202.776 18.2009 202.44 17.7916C202.104 17.3823 201.998 16.8517 202.12 16.1898L202.735 12.7588C202.766 12.5567 202.858 12.4809 203.066 12.4809H203.534C203.738 12.4809 203.804 12.5567 203.763 12.7588L203.137 16.2959C203.005 17.0387 203.366 17.448 204.196 17.448C205.025 17.448 205.539 17.0387 205.666 16.2959L206.292 12.7588C206.333 12.5567 206.414 12.4809 206.623 12.4809H207.091C207.295 12.4809 207.361 12.5567 207.33 12.7588H207.336ZM212.582 13.9665L212.119 14.1635C211.92 14.2393 211.849 14.2141 211.783 14.0271C211.625 13.5774 211.34 13.3399 210.725 13.3399C209.926 13.3399 209.493 13.5875 209.402 14.0827C209.361 14.3707 209.468 14.5577 209.737 14.6638C210.007 14.7699 210.246 14.8255 210.684 14.8659C212.058 15.0225 212.643 15.644 212.45 16.7304C212.246 17.8472 211.381 18.403 209.859 18.403C208.669 18.403 207.967 17.9482 207.778 17.0387C207.748 16.8366 207.809 16.7456 208.017 16.6799L208.496 16.5182C208.699 16.4525 208.76 16.493 208.816 16.69C208.938 17.1953 209.325 17.448 209.966 17.448C210.831 17.448 211.315 17.1599 211.422 16.5991C211.513 16.0988 211.076 15.927 210.256 15.8411C209.804 15.8007 209.493 15.735 209.106 15.5531C208.908 15.4621 208.75 15.356 208.638 15.2348C208.409 14.9821 208.267 14.5476 208.369 14.0018C208.567 12.9458 209.412 12.3596 210.887 12.3596C211.981 12.3596 212.531 12.8144 212.796 13.6279C212.862 13.8149 212.811 13.8806 212.592 13.9715L212.582 13.9665Z" fill="#000F9F"/>
<path d="M17.3063 20.7275H7.00192L4.94104 25.3712H0L10.9914 2.47107H13.3118L24.3337 25.3712H19.3927L17.3013 20.7275H17.3063ZM8.67098 16.862H15.6373L12.1363 9.2926L8.67098 16.862Z" fill="#000F9F"/>
<path d="M47.0089 13.9061V22.2839C44.4595 24.3304 40.9229 25.629 36.964 25.629C30.2267 25.629 24.731 20.3992 24.731 13.9364C24.731 7.47362 30.2267 2.24377 36.964 2.24377C40.8262 2.24377 43.9659 3.51207 46.1896 5.52316L43.2433 8.77223C41.7065 7.40793 39.4828 6.5944 36.964 6.5944C32.8422 6.5944 29.5041 9.90915 29.5041 13.9364C29.5041 18.191 32.8422 21.5058 36.964 21.5058C39.0248 21.5058 40.8567 20.9196 42.3274 19.9494V17.807H36.4704V13.9111H47.0038L47.0089 13.9061Z" fill="#000F9F"/>
<path d="M68.8237 21.344V25.3712H51.1255V2.47107H68.1367V6.4983H55.6747V12.3143H66.1114V16.2101H55.6747V21.344H68.8237Z" fill="#000F9F"/>
<path d="M87.7329 2.47107H92.9334L85.0817 13.81L93.1624 25.3763H87.8296L82.0387 17.3875L76.2479 25.3763H70.915L79.0263 13.81L71.144 2.47107H76.3802L82.0387 10.2678L87.7329 2.47107Z" fill="#000F9F"/>
<path d="M105.655 2.47107C112.392 2.47107 114.682 6.43261 114.682 10.7226C114.682 16.9934 110.591 19.4946 104.739 19.4946H100.846V25.3763H96.1694V2.47107H105.655ZM104.281 15.629C108.011 15.629 109.776 13.7746 109.776 11.0814C109.776 8.71151 108.535 6.50335 104.901 6.50335H100.846V15.629H104.281Z" fill="#000F9F"/>
<path d="M141.57 13.9364C141.57 20.3992 136.105 25.629 129.301 25.629C122.498 25.629 117.033 20.3992 117.033 13.9364C117.033 7.47362 122.528 2.24377 129.301 2.24377C136.074 2.24377 141.57 7.47362 141.57 13.9364ZM136.792 13.9364C136.792 9.90915 133.423 6.5944 129.301 6.5944C125.18 6.5944 121.841 9.90915 121.841 13.9364C121.841 17.9636 125.18 21.2784 129.301 21.2784C133.423 21.2784 136.792 17.999 136.792 13.9364Z" fill="#000F9F"/>
<path d="M155.309 19.4592C155.05 19.4895 154.719 19.4895 154.424 19.4895H150.139V25.3712H145.463V2.47107H155.635C162.372 2.47107 164.662 6.43261 164.662 10.7226C164.662 14.6538 163.029 17.2511 159.986 18.5497L165.349 25.3712H159.757L155.309 19.4592ZM150.139 15.6594H154.261C157.991 15.6594 159.757 13.7746 159.757 11.0814C159.757 8.71151 158.515 6.50335 154.882 6.50335H150.139V15.6594Z" fill="#000F9F"/>
<path d="M186.615 6.4983H179.256V25.3712H174.544V6.4983H167.217V2.47107H186.615V6.4983Z" fill="#000F9F"/>
</svg>
