<svg width="553" height="877" viewBox="0 0 553 877" fill="none" xmlns="http://www.w3.org/2000/svg">
<g clip-path="url(#clip0_10728_12766)">
<path d="M540.968 61.3634C529.513 49.8271 507.538 58.4063 461.694 93.4656C460.47 94.401 423.699 132.494 402.528 142.838L408.98 210.685C422.865 199.854 477.131 151.538 491.152 140.883C544.294 100.493 555.086 75.5821 540.968 61.3634Z" fill="white" stroke="#000F9F" stroke-width="6" stroke-miterlimit="10"/>
<path d="M0.700195 876.752C0.700195 876.752 55.3911 720.354 111.406 584.125C122.141 558.026 123.821 537.78 135.098 513.935C146.712 489.377 154.856 477.455 159.919 447.531C163.506 426.324 161.064 323.38 169.357 298.863C177.007 276.253 195.868 203.65 201.353 184.007C201.511 183.442 202.204 183.225 202.343 182.752C202.422 182.485 201.937 181.891 201.996 181.567C204.112 170.929 200.277 131.158 219.313 134.251C223.187 134.885 229.128 136.02 237.718 145.639C237.787 145.718 237.866 145.867 237.936 146.094C239.952 151.986 243.064 207.003 244.559 253.012C245.4 278.705 245.724 301.602 245.073 311.557C245.073 311.557 247.407 313.643 251.529 317.36C279.699 342.726 391.424 443.9 413.763 472.62C416.136 475.664 417.489 477.888 417.647 479.135C418.852 488.863 410.618 500.953 398.45 513.153C372.563 539.133 352.686 560.399 320.658 571.173C320.451 571.243 320.243 571.312 320.045 571.381C317.237 572.351 314.134 572.262 312.365 574.514C296.422 582.245 290.917 594.078 287.841 613.466C284.924 631.864 262.635 876.752 262.635 876.752" fill="white"/>
<path d="M0.700195 876.752C0.700195 876.752 55.3911 720.354 111.406 584.125C122.141 558.026 123.821 537.78 135.098 513.935C146.712 489.377 154.856 477.455 159.919 447.531C163.506 426.324 161.064 323.38 169.357 298.863C177.007 276.253 195.868 203.65 201.353 184.007C201.511 183.442 202.204 183.225 202.343 182.752C202.422 182.485 201.937 181.891 201.996 181.567C204.112 170.929 200.277 131.158 219.313 134.251C223.187 134.885 229.128 136.02 237.718 145.639C237.787 145.718 237.866 145.867 237.936 146.094C239.952 151.986 243.064 207.003 244.559 253.012C245.4 278.705 245.724 301.602 245.073 311.557C245.073 311.557 247.407 313.643 251.529 317.36C279.699 342.726 391.424 443.9 413.763 472.62C416.136 475.664 417.489 477.888 417.647 479.135C418.852 488.863 410.618 500.953 398.45 513.153C372.563 539.133 352.686 560.399 320.658 571.173C320.451 571.243 320.243 571.312 320.045 571.381C317.237 572.351 314.134 572.262 312.365 574.514C296.422 582.245 290.917 594.078 287.841 613.466C284.924 631.864 262.635 876.752 262.635 876.752" stroke="#000F9F" stroke-width="6" stroke-miterlimit="10"/>
<path d="M532.346 192.743C521.86 189.595 491.661 197.278 491.661 197.278C491.661 197.278 490.671 216.545 490.642 216.562C490.642 216.562 532.351 192.738 532.346 192.743Z" fill="white" stroke="#000F9F" stroke-width="6" stroke-miterlimit="10"/>
<path d="M525.54 347.849C521.586 343.895 504.779 348.099 491.661 347.83C491.661 347.83 491.055 364.426 491.028 364.441C491.028 364.441 525.54 351.804 525.54 347.849Z" fill="white" stroke="#000F9F" stroke-width="6" stroke-miterlimit="10"/>
<path d="M525.539 270.737C515.655 264.806 504.121 267.233 491.661 269.973L488.294 287.918C488.294 287.955 488.219 288.024 488.256 288.024C488.739 288.007 525.544 270.732 525.539 270.737Z" stroke="#000F9F" stroke-width="6" stroke-miterlimit="10"/>
<path d="M225.315 459.916C218.971 461.732 212.333 462.447 205.423 462.051C204.742 462.012 204.22 461.428 204.26 460.747C204.3 460.064 204.886 459.545 205.564 459.584C221.883 460.517 236.659 454.972 249.487 443.096C280.152 414.708 288.764 361.889 288.774 361.429C288.786 360.753 289.343 360.202 290.016 360.204C290.692 360.209 291.238 360.741 291.243 361.417C291.27 364.908 281.008 416.505 251.989 444.136C243.844 451.893 234.919 457.167 225.315 459.916Z" fill="#000F9F"/>
<path d="M275.814 494.493L459.928 495.01C470.267 495.04 479.622 490.801 486.329 483.956C492.811 477.337 496.819 468.28 496.844 458.283L497.893 37.4301C497.918 27.2647 493.823 18.0519 487.18 11.3731C480.537 4.69436 471.348 0.549502 461.184 0.519808L277.069 0.000153838C266.69 -0.0295407 257.3 4.24152 250.591 11.1331C244.153 17.7451 240.177 26.7697 240.152 36.7273L239.103 457.58C239.078 467.186 242.735 475.944 248.745 482.514C255.455 489.851 265.092 494.461 275.814 494.493Z" fill="#3C425C"/>
<path d="M278.024 483.365L458.015 483.869C466.412 483.894 473.929 480.108 478.931 474.139C482.878 469.433 485.26 463.37 485.275 456.748L486.322 38.9046C486.341 30.8202 482.833 23.55 477.244 18.5564C472.454 14.2755 466.14 11.6648 459.213 11.6475L279.221 11.1427C271.341 11.1204 264.235 14.4536 259.255 19.7986C254.745 24.6388 251.979 31.1271 251.959 38.2661L250.912 456.11C250.895 463.118 253.53 469.512 257.869 474.345C262.833 479.861 270.02 483.342 278.024 483.365Z" fill="#000F9F" stroke="white" stroke-width="6" stroke-miterlimit="10"/>
<path d="M529.456 192.218C522.704 193.101 506.8 205.434 501.137 209.413C470.141 231.189 443.198 253.537 458.879 273.499C470.413 288.183 493.539 280.829 535.421 245.032C568.08 217.127 546.03 192.218 529.456 192.218Z" fill="white" stroke="#000F9F" stroke-width="6" stroke-miterlimit="10"/>
<path d="M514.668 346.86C511.583 347.53 500.934 356.01 495.971 359.497C468.818 378.573 452.35 394.052 462.835 408.733C471.126 420.341 488.875 415.545 527.517 384.426C545.241 370.155 538.786 341.616 514.668 346.86Z" fill="white" stroke="#000F9F" stroke-width="6" stroke-miterlimit="10"/>
<path d="M515.022 261.51C508.27 262.396 488.516 282.323 483.039 286.555C453.163 309.642 446.466 324.121 455.737 336.281C465.23 348.73 487.351 342.62 531.433 307.059C559.4 284.498 531.594 261.51 515.022 261.51Z" fill="white" stroke="#000F9F" stroke-width="6" stroke-miterlimit="10"/>
<path d="M479.58 410.873C479.142 410.873 478.716 410.641 478.494 410.228C478.167 409.629 478.39 408.879 478.988 408.552C479.154 408.463 495.399 399.481 490.57 389.889C489.677 388.115 488.328 386.999 486.443 386.474C479.261 384.485 467.503 391.824 467.387 391.899C466.811 392.26 466.046 392.089 465.683 391.513C465.319 390.936 465.492 390.171 466.068 389.808C466.588 389.481 478.885 381.812 487.104 384.091C489.659 384.802 491.567 386.378 492.774 388.776C498.678 400.5 480.923 410.312 480.166 410.722C479.978 410.824 479.778 410.873 479.58 410.873Z" fill="#000F9F"/>
<path d="M474.664 338.703C474.238 338.703 473.825 338.483 473.595 338.089C473.251 337.5 473.452 336.743 474.04 336.399C474.191 336.313 489.11 327.528 491.53 317.882C492.206 315.19 491.839 312.753 490.414 310.434C488.945 308.044 486.938 306.658 484.283 306.193C474.713 304.525 460.717 315.583 460.579 315.695C460.044 316.12 459.267 316.034 458.842 315.499C458.416 314.967 458.503 314.19 459.037 313.765C459.646 313.28 474.043 301.889 484.706 303.76C488.051 304.344 490.681 306.155 492.517 309.14C494.289 312.018 494.761 315.163 493.925 318.491C491.248 329.146 475.933 338.159 475.282 338.537C475.089 338.651 474.877 338.703 474.664 338.703Z" fill="#000F9F"/>
<path d="M478.281 276.31C477.846 276.31 477.425 276.08 477.198 275.671C476.868 275.075 477.084 274.323 477.682 273.994C477.942 273.85 503.614 259.476 497.095 246.257C496.013 244.067 494.333 242.678 491.956 242.015C481.767 239.179 463.402 250.827 463.216 250.943C462.642 251.312 461.878 251.144 461.509 250.57C461.14 249.996 461.309 249.231 461.883 248.862C462.674 248.357 481.369 236.502 492.616 239.635C495.669 240.483 497.921 242.344 499.311 245.163C506.867 260.49 480.023 275.525 478.877 276.159C478.689 276.26 478.484 276.31 478.281 276.31Z" fill="#000F9F"/>
<path d="M215.512 179.33C212.43 182.483 208.298 184.066 203.167 184.066C202.573 184.066 201.971 184.047 201.358 184.007C201.516 183.443 201.655 182.931 201.793 182.455C201.873 182.188 201.942 181.891 202.001 181.565C206.994 181.802 210.938 180.478 213.743 177.6C224.172 166.923 216.925 138.47 216.856 138.183C216.678 137.53 217.074 136.85 217.737 136.681C218.4 136.513 219.07 136.909 219.248 137.562C219.565 138.787 226.908 167.665 215.512 179.33Z" fill="#000F9F"/>
<path d="M320.047 571.382C317.239 572.352 314.691 573.389 312.367 574.515C312.11 574.525 311.853 574.525 311.595 574.525C292.933 574.525 274.095 565.362 257.399 547.901C256.924 547.416 256.944 546.627 257.439 546.162C257.924 545.687 258.713 545.706 259.178 546.201C277.94 565.807 299.391 574.646 320.047 571.382Z" fill="#000F9F"/>
<path d="M439.328 243.217H438.215L437.938 244.778H439.052C439.553 244.778 439.901 244.491 439.99 244.001C440.08 243.512 439.825 243.217 439.323 243.217H439.328Z" fill="white"/>
<path d="M457.145 240.146H451.078L452.123 234.173C452.472 232.544 451.975 232 450.335 232H445.313C443.674 232 442.977 232.544 442.726 234.173L441.681 240.146H435.666C434.026 240.146 433.329 240.69 433.078 242.319L432.182 247.305C431.936 248.933 432.331 249.477 433.97 249.477H439.986L438.941 255.501C438.695 257.13 439.09 257.674 440.729 257.674H445.751C447.391 257.674 447.99 257.13 448.338 255.501L449.383 249.477H455.45C457.09 249.477 457.689 248.933 458.037 247.305L458.933 242.319C459.18 240.69 458.785 240.146 457.145 240.146ZM440.874 244.073C440.708 245.035 440.003 245.575 438.992 245.575H437.798L437.543 247.026C437.509 247.195 437.441 247.258 437.267 247.258H436.868C436.698 247.258 436.647 247.195 436.677 247.026L437.454 242.648C437.488 242.479 437.556 242.416 437.73 242.416H439.557C440.046 242.416 440.415 242.567 440.657 242.871C440.899 243.179 440.967 243.571 440.878 244.069L440.874 244.073ZM444.595 246.693L444.54 247.026C444.506 247.195 444.438 247.258 444.264 247.258H441.66C441.49 247.258 441.439 247.195 441.469 247.026L442.246 242.648C442.28 242.479 442.348 242.416 442.522 242.416H442.922C443.092 242.416 443.147 242.479 443.113 242.648L442.433 246.457H444.404C444.574 246.457 444.629 246.52 444.595 246.689V246.693ZM450.097 242.652L449.553 245.681C449.362 246.773 448.614 247.364 447.357 247.364C446.741 247.364 446.29 247.195 446.01 246.853C445.73 246.512 445.64 246.069 445.742 245.516L446.256 242.652C446.282 242.483 446.358 242.42 446.533 242.42H446.923C447.093 242.42 447.149 242.483 447.115 242.652L446.592 245.605C446.482 246.225 446.783 246.567 447.476 246.567C448.168 246.567 448.597 246.225 448.704 245.605L449.226 242.652C449.26 242.483 449.328 242.42 449.502 242.42H449.893C450.063 242.42 450.118 242.483 450.093 242.652H450.097ZM454.477 243.66L454.09 243.825C453.925 243.888 453.865 243.867 453.81 243.711C453.678 243.335 453.44 243.137 452.926 243.137C452.259 243.137 451.898 243.344 451.822 243.757C451.788 243.998 451.877 244.154 452.102 244.242C452.327 244.331 452.527 244.377 452.892 244.411C454.039 244.542 454.528 245.061 454.366 245.968C454.197 246.9 453.474 247.364 452.204 247.364C451.21 247.364 450.624 246.984 450.467 246.225C450.441 246.056 450.492 245.98 450.666 245.925L451.066 245.79C451.235 245.736 451.286 245.769 451.333 245.934C451.435 246.356 451.758 246.567 452.293 246.567C453.016 246.567 453.419 246.326 453.508 245.858C453.585 245.44 453.219 245.297 452.535 245.225C452.157 245.191 451.898 245.137 451.575 244.985C451.41 244.909 451.278 244.82 451.184 244.719C450.993 244.508 450.874 244.145 450.959 243.69C451.125 242.808 451.83 242.319 453.062 242.319C453.976 242.319 454.434 242.698 454.655 243.377C454.711 243.533 454.668 243.588 454.485 243.664L454.477 243.66Z" fill="white"/>
<path d="M291.448 249.306H282.846L281.125 253.183H277L286.176 234.064H288.113L297.315 253.183H293.19L291.444 249.306H291.448ZM284.239 246.079H290.055L287.132 239.759L284.239 246.079Z" fill="white"/>
<path d="M316.245 243.61V250.605C314.117 252.313 311.165 253.397 307.859 253.397C302.235 253.397 297.646 249.031 297.646 243.636C297.646 238.24 302.235 233.874 307.859 233.874C311.084 233.874 313.705 234.933 315.561 236.612L313.102 239.324C311.819 238.185 309.962 237.506 307.859 237.506C304.418 237.506 301.631 240.274 301.631 243.636C301.631 247.188 304.418 249.955 307.859 249.955C309.58 249.955 311.109 249.466 312.337 248.656V246.867H307.447V243.615H316.241L316.245 243.61Z" fill="white"/>
<path d="M334.458 249.821V253.183H319.683V234.064H333.885V237.427H323.481V242.282H332.194V245.535H323.481V249.821H334.458Z" fill="white"/>
<path d="M350.245 234.064H354.586L348.031 243.531L354.778 253.187H350.325L345.491 246.518L340.656 253.187H336.204L342.976 243.531L336.395 234.064H340.767L345.491 240.574L350.245 234.064Z" fill="white"/>
<path d="M365.207 234.064C370.832 234.064 372.743 237.372 372.743 240.953C372.743 246.189 369.328 248.277 364.442 248.277H361.192V253.187H357.288V234.064H365.207ZM364.06 245.05C367.174 245.05 368.648 243.501 368.648 241.253C368.648 239.274 367.611 237.431 364.578 237.431H361.192V245.05H364.06Z" fill="white"/>
<path d="M395.191 243.636C395.191 249.031 390.629 253.397 384.949 253.397C379.269 253.397 374.706 249.031 374.706 243.636C374.706 238.24 379.294 233.874 384.949 233.874C390.603 233.874 395.191 238.24 395.191 243.636ZM391.202 243.636C391.202 240.274 388.39 237.506 384.949 237.506C381.508 237.506 378.721 240.274 378.721 243.636C378.721 246.998 381.508 249.765 384.949 249.765C388.39 249.765 391.202 247.027 391.202 243.636Z" fill="white"/>
<path d="M406.662 248.247C406.445 248.273 406.169 248.273 405.923 248.273H402.346V253.183H398.441V234.064H406.934C412.558 234.064 414.47 237.372 414.47 240.953C414.47 244.235 413.106 246.404 410.566 247.488L415.044 253.183H410.375L406.662 248.247ZM402.346 245.075H405.787C408.901 245.075 410.375 243.501 410.375 241.253C410.375 239.274 409.338 237.431 406.305 237.431H402.346V245.075Z" fill="white"/>
<path d="M432.797 237.427H426.654V253.183H422.721V237.427H416.603V234.064H432.797V237.427Z" fill="white"/>
</g>
<defs>
<clipPath id="clip0_10728_12766">
<rect width="553" height="877" fill="white"/>
</clipPath>
</defs>
</svg>
