<?xml version="1.0" encoding="utf-8"?>
<!-- Generator: Adobe Illustrator 24.2.1, SVG Export Plug-In . SVG Version: 6.00 Build 0)  -->
<svg version="1.1" id="Capa_1" xmlns="http://www.w3.org/2000/svg" xmlns:xlink="http://www.w3.org/1999/xlink" x="0px" y="0px"
	 viewBox="0 0 558.8 877" style="enable-background:new 0 0 558.8 877;" xml:space="preserve">
<style type="text/css">
	.st0{clip-path:url(#SVGID_2_);}
	.st1{fill:#FFFFFF;stroke:#000F9F;stroke-width:6;stroke-miterlimit:10;}
	.st2{fill:#FFFFFF;}
	.st3{fill:none;stroke:#000F9F;stroke-width:6;stroke-miterlimit:10;}
	.st4{fill:#000F9F;}
	.st5{fill:#3C425C;}
	.st6{fill:#000F9F;stroke:#FFFFFF;stroke-width:6;stroke-miterlimit:10;}
</style>
<g>
	<defs>
		<rect id="SVGID_1_" x="-5.3" y="0" width="564.1" height="877"/>
	</defs>
	<clipPath id="SVGID_2_">
		<use xlink:href="#SVGID_1_"  style="overflow:visible;"/>
	</clipPath>
	<g class="st0">
		<path class="st1" d="M543.8,61.4c-11.5-11.5-33.4-3-79.3,32.1c-1.2,0.9-38,39-59.2,49.4l6.5,67.8c13.9-10.8,68.2-59.1,82.2-69.8
			C547.1,100.5,557.9,75.6,543.8,61.4z"/>
		<path class="st2" d="M3.5,876.8c0,0,54.7-156.4,110.7-292.6c10.7-26.1,12.4-46.3,23.7-70.2c11.6-24.6,19.8-36.5,24.8-66.4
			c3.6-21.2,1.1-124.2,9.4-148.7c7.7-22.6,26.5-95.2,32-114.9c0.2-0.6,0.9-0.8,1-1.3c0.1-0.3-0.4-0.9-0.3-1.2
			c2.1-10.6-1.7-50.4,17.3-47.3c3.9,0.6,9.8,1.8,18.4,11.4c0.1,0.1,0.1,0.2,0.2,0.5c2,5.9,5.1,60.9,6.6,106.9
			c0.8,25.7,1.2,48.6,0.5,58.5c0,0,2.3,2.1,6.5,5.8c28.2,25.4,139.9,126.5,162.2,155.3c2.4,3,3.7,5.3,3.9,6.5
			c1.2,9.7-7,21.8-19.2,34c-25.9,26-45.8,47.2-77.8,58c-0.2,0.1-0.4,0.1-0.6,0.2c-2.8,1-5.9,0.9-7.7,3.1
			c-15.9,7.7-21.4,19.6-24.5,39c-2.9,18.4-25.2,263.3-25.2,263.3"/>
		<path class="st3" d="M2.4,888.8c-0.9-6.8,2.3-15.2,2.3-15.2s53.6-153.2,109.6-289.4c10.7-26.1,12.4-46.3,23.7-70.2
			c11.6-24.6,19.8-36.5,24.8-66.4c3.6-21.2,1.1-124.2,9.4-148.7c7.7-22.6,26.5-95.2,32-114.9c0.2-0.6,0.9-0.8,1-1.3
			c0.1-0.3-0.4-0.9-0.3-1.2c2.1-10.6-1.7-50.4,17.3-47.3c3.9,0.6,9.8,1.8,18.4,11.4c0.1,0.1,0.1,0.2,0.2,0.5
			c2,5.9,5.1,60.9,6.6,106.9c0.8,25.7,1.2,48.6,0.5,58.5c0,0,2.3,2.1,6.5,5.8c28.2,25.4,139.9,126.5,162.2,155.3
			c2.4,3,3.7,5.3,3.9,6.5c1.2,9.7-7,21.8-19.2,34c-25.9,26-45.8,47.2-77.8,58c-0.2,0.1-0.4,0.1-0.6,0.2c-2.8,1-5.9,0.9-7.7,3.1
			c-15.9,7.7-21.4,19.6-24.5,39c-2.9,18.4-25,261.1-25,261.1s-0.7,6.5-0.5,9.2"/>
		<path class="st1" d="M535.2,192.7c-10.5-3.1-40.7,4.5-40.7,4.5s-1,19.3-1,19.3C493.5,216.6,535.2,192.7,535.2,192.7z"/>
		<path class="st1" d="M528.4,347.8c-4-4-20.8,0.2-33.9,0c0,0-0.6,16.6-0.6,16.6C493.9,364.4,528.4,351.8,528.4,347.8z"/>
		<path class="st3" d="M528.4,270.7c-9.9-5.9-21.4-3.5-33.9-0.8l-3.4,17.9c0,0-0.1,0.1,0,0.1C491.6,288,528.4,270.7,528.4,270.7z"/>
		<path class="st4" d="M228.1,459.9c-6.3,1.8-13,2.5-19.9,2.1c-0.7,0-1.2-0.6-1.2-1.3c0-0.7,0.6-1.2,1.3-1.2
			c16.3,0.9,31.1-4.6,43.9-16.5c30.7-28.4,39.3-81.2,39.3-81.7c0-0.7,0.6-1.2,1.2-1.2c0.7,0,1.2,0.5,1.2,1.2
			c0,3.5-10.2,55.1-39.3,82.7C246.7,451.9,237.7,457.2,228.1,459.9z"/>
		<path class="st5" d="M278.6,494.5l184.1,0.5c10.3,0,19.7-4.2,26.4-11.1c6.5-6.6,10.5-15.7,10.5-25.7l1-420.9
			c0-10.2-4.1-19.4-10.7-26.1c-6.6-6.7-15.8-10.8-26-10.9L279.9,0c-10.4,0-19.8,4.2-26.5,11.1C247,17.7,243,26.8,243,36.7l-1,420.9
			c0,9.6,3.6,18.4,9.6,24.9C258.3,489.9,267.9,494.5,278.6,494.5z"/>
		<path class="st6" d="M280.9,483.4l180,0.5c8.4,0,15.9-3.8,20.9-9.7c3.9-4.7,6.3-10.8,6.3-17.4l1-417.8c0-8.1-3.5-15.4-9.1-20.3
			c-4.8-4.3-11.1-6.9-18-6.9l-180-0.5c-7.9,0-15,3.3-20,8.7c-4.5,4.8-7.3,11.3-7.3,18.5l-1,417.8c0,7,2.6,13.4,7,18.2
			C265.7,479.9,272.8,483.3,280.9,483.4z"/>
		<path class="st1" d="M532.3,192.2c-6.8,0.9-22.7,13.2-28.3,17.2c-31,21.8-57.9,44.1-42.3,64.1c11.5,14.7,34.7,7.3,76.5-28.5
			C570.9,217.1,548.9,192.2,532.3,192.2z"/>
		<path class="st1" d="M517.5,346.9c-3.1,0.7-13.7,9.2-18.7,12.6c-27.2,19.1-43.6,34.6-33.1,49.2c8.3,11.6,26,6.8,64.7-24.3
			C548.1,370.2,541.6,341.6,517.5,346.9z"/>
		<path class="st1" d="M517.9,261.5c-6.8,0.9-26.5,20.8-32,25c-29.9,23.1-36.6,37.6-27.3,49.7c9.5,12.4,31.6,6.3,75.7-29.2
			C562.2,284.5,534.4,261.5,517.9,261.5z"/>
		<path class="st4" d="M482.4,410.9c-0.4,0-0.9-0.2-1.1-0.6c-0.3-0.6-0.1-1.3,0.5-1.7c0.2-0.1,16.4-9.1,11.6-18.7
			c-0.9-1.8-2.2-2.9-4.1-3.4c-7.2-2-18.9,5.4-19.1,5.4c-0.6,0.4-1.3,0.2-1.7-0.4c-0.4-0.6-0.2-1.3,0.4-1.7c0.5-0.3,12.8-8,21-5.7
			c2.6,0.7,4.5,2.3,5.7,4.7c5.9,11.7-11.9,21.5-12.6,21.9C482.8,410.8,482.6,410.9,482.4,410.9z"/>
		<path class="st4" d="M477.5,338.7c-0.4,0-0.8-0.2-1.1-0.6c-0.3-0.6-0.1-1.3,0.4-1.7c0.2-0.1,15.1-8.9,17.5-18.5
			c0.7-2.7,0.3-5.1-1.1-7.4c-1.5-2.4-3.5-3.8-6.1-4.2c-9.6-1.7-23.6,9.4-23.7,9.5c-0.5,0.4-1.3,0.3-1.7-0.2
			c-0.4-0.5-0.3-1.3,0.2-1.7c0.6-0.5,15-11.9,25.7-10c3.3,0.6,6,2.4,7.8,5.4c1.8,2.9,2.2,6,1.4,9.4c-2.7,10.7-18,19.7-18.6,20
			C477.9,338.7,477.7,338.7,477.5,338.7z"/>
		<path class="st4" d="M481.1,276.3c-0.4,0-0.9-0.2-1.1-0.6c-0.3-0.6-0.1-1.3,0.5-1.7c0.3-0.1,25.9-14.5,19.4-27.7
			c-1.1-2.2-2.8-3.6-5.1-4.2c-10.2-2.8-28.6,8.8-28.7,8.9c-0.6,0.4-1.3,0.2-1.7-0.4c-0.4-0.6-0.2-1.3,0.4-1.7
			c0.8-0.5,19.5-12.4,30.7-9.2c3.1,0.8,5.3,2.7,6.7,5.5c7.6,15.3-19.3,30.4-20.4,31C481.5,276.3,481.3,276.3,481.1,276.3z"/>
		<path class="st4" d="M218.3,179.3c-3.1,3.2-7.2,4.7-12.3,4.7c-0.6,0-1.2,0-1.8-0.1c0.2-0.6,0.3-1.1,0.4-1.6
			c0.1-0.3,0.1-0.6,0.2-0.9c5,0.2,8.9-1.1,11.7-4c10.4-10.7,3.2-39.1,3.1-39.4c-0.2-0.7,0.2-1.3,0.9-1.5c0.7-0.2,1.3,0.2,1.5,0.9
			C222.4,138.8,229.7,167.7,218.3,179.3z"/>
		<path class="st4" d="M322.9,571.4c-2.8,1-5.4,2-7.7,3.1c-0.3,0-0.5,0-0.8,0c-18.7,0-37.5-9.2-54.2-26.6c-0.5-0.5-0.5-1.3,0-1.7
			c0.5-0.5,1.3-0.5,1.7,0C280.8,565.8,302.2,574.6,322.9,571.4z"/>
		<path class="st2" d="M442.2,243.2H441l-0.3,1.6h1.1c0.5,0,0.8-0.3,0.9-0.8C442.9,243.5,442.7,243.2,442.2,243.2L442.2,243.2z"/>
		<path class="st2" d="M460,240.1h-6.1l1-6c0.3-1.6-0.1-2.2-1.8-2.2h-5c-1.6,0-2.3,0.5-2.6,2.2l-1,6h-6c-1.6,0-2.3,0.5-2.6,2.2
			l-0.9,5c-0.2,1.6,0.1,2.2,1.8,2.2h6l-1,6c-0.2,1.6,0.1,2.2,1.8,2.2h5c1.6,0,2.2-0.5,2.6-2.2l1-6h6.1c1.6,0,2.2-0.5,2.6-2.2l0.9-5
			C462,240.7,461.6,240.1,460,240.1z M443.7,244.1c-0.2,1-0.9,1.5-1.9,1.5h-1.2l-0.3,1.5c0,0.2-0.1,0.2-0.3,0.2h-0.4
			c-0.2,0-0.2-0.1-0.2-0.2l0.8-4.4c0-0.2,0.1-0.2,0.3-0.2h1.8c0.5,0,0.9,0.2,1.1,0.5C443.7,243.2,443.8,243.6,443.7,244.1
			L443.7,244.1z M447.4,246.7l-0.1,0.3c0,0.2-0.1,0.2-0.3,0.2h-2.6c-0.2,0-0.2-0.1-0.2-0.2l0.8-4.4c0-0.2,0.1-0.2,0.3-0.2h0.4
			c0.2,0,0.2,0.1,0.2,0.2l-0.7,3.8h2C447.4,246.5,447.5,246.5,447.4,246.7L447.4,246.7z M452.9,242.7l-0.5,3
			c-0.2,1.1-0.9,1.7-2.2,1.7c-0.6,0-1.1-0.2-1.3-0.5c-0.3-0.3-0.4-0.8-0.3-1.3l0.5-2.9c0-0.2,0.1-0.2,0.3-0.2h0.4
			c0.2,0,0.2,0.1,0.2,0.2l-0.5,3c-0.1,0.6,0.2,1,0.9,1c0.7,0,1.1-0.3,1.2-1l0.5-3c0-0.2,0.1-0.2,0.3-0.2h0.4
			C452.9,242.4,452.9,242.5,452.9,242.7L452.9,242.7z M457.3,243.7l-0.4,0.2c-0.2,0.1-0.2,0-0.3-0.1c-0.1-0.4-0.4-0.6-0.9-0.6
			c-0.7,0-1,0.2-1.1,0.6c0,0.2,0.1,0.4,0.3,0.5c0.2,0.1,0.4,0.1,0.8,0.2c1.1,0.1,1.6,0.7,1.5,1.6c-0.2,0.9-0.9,1.4-2.2,1.4
			c-1,0-1.6-0.4-1.7-1.1c0-0.2,0-0.2,0.2-0.3l0.4-0.1c0.2-0.1,0.2,0,0.3,0.1c0.1,0.4,0.4,0.6,1,0.6c0.7,0,1.1-0.2,1.2-0.7
			c0.1-0.4-0.3-0.6-1-0.6c-0.4,0-0.6-0.1-1-0.2c-0.2-0.1-0.3-0.2-0.4-0.3c-0.2-0.2-0.3-0.6-0.2-1c0.2-0.9,0.9-1.4,2.1-1.4
			c0.9,0,1.4,0.4,1.6,1.1C457.5,243.5,457.5,243.6,457.3,243.7L457.3,243.7z"/>
		<path class="st2" d="M294.3,249.3h-8.6l-1.7,3.9h-4.1l9.2-19.1h1.9l9.2,19.1H296L294.3,249.3L294.3,249.3z M287.1,246.1h5.8
			l-2.9-6.3L287.1,246.1z"/>
		<path class="st2" d="M319.1,243.6v7c-2.1,1.7-5.1,2.8-8.4,2.8c-5.6,0-10.2-4.4-10.2-9.8c0-5.4,4.6-9.8,10.2-9.8
			c3.2,0,5.8,1.1,7.7,2.7l-2.5,2.7c-1.3-1.1-3.1-1.8-5.2-1.8c-3.4,0-6.2,2.8-6.2,6.1c0,3.6,2.8,6.3,6.2,6.3c1.7,0,3.2-0.5,4.5-1.3
			v-1.8h-4.9v-3.3L319.1,243.6L319.1,243.6z"/>
		<path class="st2" d="M337.3,249.8v3.4h-14.8v-19.1h14.2v3.4h-10.4v4.9h8.7v3.3h-8.7v4.3H337.3z"/>
		<path class="st2" d="M353.1,234.1h4.3l-6.6,9.5l6.7,9.7h-4.5l-4.8-6.7l-4.8,6.7H339l6.8-9.7l-6.6-9.5h4.4l4.7,6.5L353.1,234.1z"/>
		<path class="st2" d="M368,234.1c5.6,0,7.5,3.3,7.5,6.9c0,5.2-3.4,7.3-8.3,7.3H364v4.9h-3.9v-19.1H368z M366.9,245.1
			c3.1,0,4.6-1.5,4.6-3.8c0-2-1-3.8-4.1-3.8H364v7.6H366.9z"/>
		<path class="st2" d="M398,243.6c0,5.4-4.6,9.8-10.2,9.8s-10.2-4.4-10.2-9.8c0-5.4,4.6-9.8,10.2-9.8
			C393.4,233.9,398,238.2,398,243.6z M394,243.6c0-3.4-2.8-6.1-6.3-6.1s-6.2,2.8-6.2,6.1s2.8,6.1,6.2,6.1S394,247,394,243.6z"/>
		<path class="st2" d="M409.5,248.2c-0.2,0-0.5,0-0.7,0h-3.6v4.9h-3.9v-19.1h8.5c5.6,0,7.5,3.3,7.5,6.9c0,3.3-1.4,5.5-3.9,6.5
			l4.5,5.7h-4.7L409.5,248.2z M405.2,245.1h3.4c3.1,0,4.6-1.6,4.6-3.8c0-2-1-3.8-4.1-3.8h-4V245.1z"/>
		<path class="st2" d="M435.6,237.4h-6.1v15.8h-3.9v-15.8h-6.1v-3.4h16.2V237.4z"/>
	</g>
</g>
</svg>
