<?xml version="1.0" encoding="utf-8"?>
<!-- Generator: Adobe Illustrator 24.2.1, SVG Export Plug-In . SVG Version: 6.00 Build 0)  -->
<svg version="1.1" id="Capa_1" xmlns="http://www.w3.org/2000/svg" xmlns:xlink="http://www.w3.org/1999/xlink" x="0px" y="0px"
	 viewBox="0 0 215.4 204.1" style="enable-background:new 0 0 215.4 204.1;" xml:space="preserve">
<style type="text/css">
	.st0{fill:#000F9F;}
	.st1{fill:#FFFFFF;}
	.st2{fill:none;stroke:#000F9F;stroke-width:5;stroke-miterlimit:10;}
</style>
<g>
	<rect x="29.1" y="75.6" class="st0" width="158.6" height="51.5"/>
	<path class="st1" d="M194.6,66.9h-45.5l7.8-44.8c2.6-12.2-1.1-16.3-13.4-16.3h-37.6c-12.3,0-17.5,4.1-19.4,16.3l-7.8,44.8H33.6
		C21.3,66.9,16,71,14.2,83.2l-6.7,37.4c-1.8,12.2,1.1,16.3,13.4,16.3h45.1L58.1,182c-1.8,12.2,1.1,16.3,13.4,16.3h37.6
		c12.3,0,16.8-4.1,19.4-16.3l7.8-45.2h45.5c12.3,0,16.8-4.1,19.4-16.3l6.7-37.4C209.8,71,206.9,66.9,194.6,66.9z M72.6,96.3
		c-1.2,7.2-6.5,11.3-14.1,11.3h-8.9l-1.9,10.9c-0.3,1.3-0.8,1.7-2.1,1.7h-3c-1.3,0-1.7-0.5-1.4-1.7L47,85.6c0.3-1.3,0.8-1.7,2.1-1.7
		h13.7c3.7,0,6.4,1.1,8.3,3.4C72.8,89.6,73.3,92.6,72.6,96.3L72.6,96.3z M100.5,116l-0.4,2.5c-0.3,1.3-0.8,1.7-2.1,1.7H78.5
		c-1.3,0-1.7-0.5-1.4-1.7l5.8-32.8c0.3-1.3,0.8-1.7,2.1-1.7h3c1.3,0,1.7,0.5,1.4,1.7l-5.1,28.6h14.8
		C100.3,114.2,100.8,114.7,100.5,116L100.5,116z M141.7,85.7l-4.1,22.7c-1.4,8.2-7,12.6-16.5,12.6c-4.6,0-8-1.3-10.1-3.8
		c-2.1-2.6-2.8-5.9-2-10l3.9-21.5c0.2-1.3,0.8-1.7,2.1-1.7h2.9c1.3,0,1.7,0.5,1.4,1.7l-3.9,22.1c-0.8,4.6,1.4,7.2,6.6,7.2
		c5.2,0,8.4-2.6,9.2-7.2l3.9-22.1c0.3-1.3,0.8-1.7,2.1-1.7h2.9C141.5,83.9,141.9,84.4,141.7,85.7L141.7,85.7z M174.6,93.2l-2.9,1.2
		c-1.2,0.5-1.7,0.3-2.1-0.9c-1-2.8-2.8-4.3-6.6-4.3c-5,0-7.7,1.6-8.3,4.6c-0.3,1.8,0.4,3,2.1,3.6c1.7,0.7,3.2,1,5.9,1.3
		c8.6,1,12.3,4.9,11.1,11.7c-1.3,7-6.7,10.5-16.2,10.5c-7.5,0-11.8-2.8-13-8.5c-0.2-1.3,0.2-1.8,1.5-2.2l3-1c1.3-0.4,1.7-0.2,2,1.1
		c0.8,3.2,3.2,4.7,7.2,4.7c5.4,0,8.4-1.8,9.1-5.3c0.6-3.1-2.2-4.2-7.3-4.7c-2.8-0.3-4.8-0.7-7.2-1.8c-1.2-0.6-2.2-1.2-2.9-2
		c-1.4-1.6-2.3-4.3-1.7-7.7c1.2-6.6,6.5-10.3,15.8-10.3c6.8,0,10.3,2.8,11.9,7.9C176.3,92.3,176,92.7,174.6,93.2L174.6,93.2z
		 M61,89.9h-8.3l-2.1,11.7h8.3c3.8,0,6.4-2.2,7-5.8C66.6,92.1,64.7,89.9,61,89.9L61,89.9z"/>
	<path class="st2" d="M194.6,66.9h-45.5l7.8-44.8c2.6-12.2-1.1-16.3-13.4-16.3h-37.6c-12.3,0-17.5,4.1-19.4,16.3l-7.8,44.8H33.6
		C21.3,66.9,16,71,14.2,83.2l-6.7,37.4c-1.8,12.2,1.1,16.3,13.4,16.3h45.1L58.1,182c-1.8,12.2,1.1,16.3,13.4,16.3h37.6
		c12.3,0,16.8-4.1,19.4-16.3l7.8-45.2h45.5c12.3,0,16.8-4.1,19.4-16.3l6.7-37.4C209.8,71,206.9,66.9,194.6,66.9z"/>
</g>
</svg>
