<svg width="33" height="33" viewBox="0 0 33 33" fill="none" xmlns="http://www.w3.org/2000/svg">
<path d="M33 16.5C33 25.6127 25.6127 33 16.5 33C7.3873 33 0 25.6127 0 16.5C0 7.3873 7.3873 0 16.5 0C25.6127 0 33 7.3873 33 16.5Z" fill="#0C0C0C"/>
<path d="M15 9.04202C15 9.64706 15.197 10.1429 15.5909 10.5294C15.9848 10.916 16.4545 11.1092 17 11.1092C17.5606 11.1092 18.0303 10.916 18.4091 10.5294C18.803 10.1429 19 9.64706 19 9.04202C19 8.43698 18.803 7.94958 18.4091 7.57983C18.0303 7.19328 17.5606 7 17 7C16.4545 7 15.9848 7.19328 15.5909 7.57983C15.197 7.94958 15 8.43698 15 9.04202ZM15.3409 13.4034V25H18.6591V13.4034H15.3409Z" fill="white"/>
</svg>
