<svg width="23" height="26" viewBox="0 0 23 26" fill="none" xmlns="http://www.w3.org/2000/svg">
<path d="M14.3816 5.61644C14.422 5.92685 14.6248 6.19223 14.914 6.31252C16.8078 7.10164 18.3699 8.52254 19.3342 10.3336L19.4445 10.2748L19.3342 10.3336C20.2984 12.1444 20.6057 14.2336 20.2033 16.2456C19.801 18.2575 18.7139 20.0678 17.1273 21.3686C15.5406 22.6695 13.5523 23.3804 11.5005 23.3804C9.44862 23.3804 7.46032 22.6695 5.87371 21.3686L5.79446 21.4653L5.87371 21.3686C4.28706 20.0679 3.20012 18.2576 2.79766 16.2456C2.39534 14.2337 2.70257 12.1445 3.66682 10.3336C4.63125 8.52253 6.19326 7.10165 8.08699 6.31254C8.37616 6.19225 8.57902 5.92688 8.61942 5.61643L8.61943 5.61635C8.65964 5.30578 8.53138 4.99744 8.2826 4.80723L8.28259 4.80722C8.03387 4.61707 7.70255 4.57389 7.41349 4.69419L7.41343 4.69421C5.14613 5.63898 3.27625 7.34016 2.12172 9.50801L2.12172 9.50802C0.967232 11.6761 0.599604 14.177 1.08142 16.5856C1.56302 18.9942 2.8644 21.1613 4.76393 22.7187C6.66348 24.276 9.0438 25.1269 11.5002 25.1269C13.9564 25.1269 16.3366 24.276 18.2361 22.7187C20.1356 21.1615 21.437 18.9943 21.9186 16.5856C22.4004 14.1772 22.0328 11.676 20.8785 9.50802C19.7241 7.34021 17.8545 5.63915 15.5874 4.6945L15.5875 4.69419C15.2985 4.57389 14.9671 4.61707 14.7184 4.80722L14.7184 4.80722C14.4696 4.99743 14.3413 5.30576 14.3816 5.61635L14.3816 5.61644Z" fill="black" stroke="black" stroke-width="0.25"/>
<path d="M11.5044 10.875C11.7364 10.875 11.9591 10.7829 12.1231 10.6188C12.2872 10.4547 12.3794 10.2321 12.3794 10V1.74999C12.3794 1.43731 12.2126 1.14845 11.9419 0.992187C11.6712 0.835938 11.3376 0.835937 11.0669 0.992187C10.7962 1.14845 10.6294 1.43732 10.6294 1.74999V10C10.6294 10.2321 10.7216 10.4547 10.8857 10.6188C11.0497 10.7829 11.2724 10.875 11.5044 10.875Z" fill="black" stroke="black" stroke-width="0.25"/>
</svg>
