<svg width="200" height="200" viewBox="0 0 200 200" fill="none" xmlns="http://www.w3.org/2000/svg">
<rect width="200" height="200" fill="#000F9F"/>
<path d="M133.846 76.5098H131.688L131.152 79.5368H133.311C134.283 79.5368 134.959 78.9805 135.132 78.0315C135.305 77.0824 134.81 76.5098 133.838 76.5098H133.846Z" fill="white"/>
<path d="M168.401 70.5557H156.636L158.663 58.9711C159.338 55.8132 158.374 54.7578 155.194 54.7578H145.456C142.276 54.7578 140.925 55.8132 140.439 58.9711L138.412 70.5557H126.746C123.565 70.5557 122.214 71.611 121.728 74.769L119.99 84.4391C119.512 87.597 120.278 88.6524 123.458 88.6524H135.124L133.098 100.335C132.62 103.493 133.386 104.548 136.566 104.548H146.305C149.485 104.548 150.646 103.493 151.322 100.335L153.349 88.6524H165.114C168.294 88.6524 169.456 87.597 170.131 84.4391L171.87 74.769C172.348 71.611 171.581 70.5557 168.401 70.5557Z" fill="white"/>
<path d="M51.0653 127.317C68.0504 130.056 77.3234 123.675 77.3234 123.675C76.8595 123.708 76.401 123.708 75.9371 123.708C69.4421 123.694 63.2172 121.133 58.6246 116.587C54.0319 112.041 51.4454 105.88 51.431 99.4505C51.4454 93.0214 54.0319 86.8597 58.6246 82.3137C63.2172 77.7676 69.4421 75.2074 75.9371 75.1931C80.0801 75.1841 84.1573 76.2182 87.7855 78.1981C91.4136 80.1781 94.4734 83.0388 96.6773 86.5114C97.0484 87.0895 97.3868 87.6838 97.7088 88.278L107.167 78.9209L114.667 71.4924C110.618 65.9942 105.423 61.4214 99.4336 58.0833C92.2565 54.0984 84.1661 52.0038 75.9371 52.0001C69.5272 51.9904 63.1809 53.2582 57.2764 55.7278C51.5811 58.1085 46.4061 61.5595 42.0378 65.89C37.6625 70.2146 34.1744 75.3368 31.766 80.9738C29.2742 86.8212 27.9936 93.1042 28 99.4505C28 100.79 28.0601 102.152 28.1692 103.454C29.8284 116.814 39.7018 125.474 51.0653 127.317Z" fill="white"/>
<path d="M105.719 102.666H87.4216L97.0094 112.391L96.764 112.689C96.3659 113.241 95.9187 113.887 95.7169 114.147C94.8603 115.324 93.9041 116.424 92.8591 117.433C76.4977 134.873 47.8161 135.386 34.667 124.087C36.7182 127.632 39.2111 130.895 42.0842 133.796C46.4455 138.228 51.6174 141.758 57.3112 144.189C63.2115 146.718 69.5558 148.014 75.9632 147.999C83.6107 147.996 91.1471 146.146 97.9475 142.604C103.969 139.44 109.263 135.023 113.48 129.643L113.709 129.334L124 139.738V102.666H105.719Z" fill="white"/>
</svg>
