<?xml version="1.0" encoding="utf-8"?>
<!-- Generator: Adobe Illustrator 24.2.1, SVG Export Plug-In . SVG Version: 6.00 Build 0)  -->
<svg version="1.1" id="Capa_1" xmlns="http://www.w3.org/2000/svg" xmlns:xlink="http://www.w3.org/1999/xlink" x="0px" y="0px"
	 viewBox="0 0 26 26" style="enable-background:new 0 0 26 26;" xml:space="preserve">
<style type="text/css">
	.st0{fill:#1A44DB;}
</style>
<g>
	<path class="st0" d="M13.3,13.2c-0.4,0-0.7,0-1.1-0.1c-2.7-0.4-4.9-3.1-4.9-5.7V6.1c0-2.7,2.2-5.3,4.9-5.7C14,0,15.9,0.5,17.3,1.7
		c1.2,1.1,2,2.6,2,4.1v1.8c0,1.6-0.7,3.1-2,4.1C16.2,12.7,14.7,13.2,13.3,13.2z M13.3,2.3c-0.3,0-0.5,0-0.8,0.1
		c-1.7,0.3-3.2,2-3.2,3.7v1.4c0,1.7,1.5,3.5,3.2,3.7c1.3,0.2,2.6-0.1,3.5-0.9c0.8-0.7,1.2-1.6,1.2-2.6V5.8c0-1-0.4-1.9-1.2-2.6
		C15.2,2.6,14.3,2.3,13.3,2.3z"/>
	<path class="st0" d="M24.8,25.7c-0.4,0-0.8-0.2-0.9-0.6c-1.7-3.9-6.1-7.9-10.6-7.9c-4.5,0-9.4,4.2-11.1,7.9
		c-0.2,0.5-0.8,0.7-1.3,0.5c-0.5-0.2-0.7-0.8-0.5-1.3c1.9-4.4,7.4-9.1,12.9-9.1c5.5,0,10.5,4.7,12.4,9.1c0.2,0.5,0,1.1-0.5,1.3
		C25,25.7,24.9,25.7,24.8,25.7z"/>
</g>
</svg>
