<?xml version="1.0" encoding="utf-8"?>
<!-- Generator: Adobe Illustrator 24.2.1, SVG Export Plug-In . SVG Version: 6.00 Build 0)  -->
<svg version="1.1" id="Capa_1" xmlns="http://www.w3.org/2000/svg" xmlns:xlink="http://www.w3.org/1999/xlink" x="0px" y="0px"
	 viewBox="0 0 20 20" style="enable-background:new 0 0 20 20;" xml:space="preserve">
<style type="text/css">
	.st0{fill:#1A44DB;}
</style>
<path class="st0" d="M18.1,2.5l-4.9-1.8c-0.5-0.2-1.1-0.2-1.6,0L7.5,2.5l-4-1.5c-0.7-0.3-1.4-0.2-2,0.2c-0.6,0.4-1,1.1-1,1.8
	c0,0.1,0,0.1,0,0.2v11.6c0,0.8,0.5,1.6,1.2,2l4.8,2.4c0.3,0.2,0.6,0.2,1,0.2c0.4,0,0.8-0.1,1.1-0.3l3.8-2.2l3.8,1.9
	c0.7,0.3,1.5,0.3,2.1-0.1c0.7-0.4,1-1.1,1-1.9V4.6C19.5,3.6,18.9,2.8,18.1,2.5z M2.4,15.4C2.2,15.3,2,15,2,14.8V3.1C2,3.1,2,3,2,3
	c0-0.2,0.1-0.4,0.3-0.6c0.1-0.1,0.2-0.1,0.4-0.1c0.1,0,0.2,0,0.3,0l3.9,1.5c0,0.1-0.1,0.2-0.1,0.3v13.5L2.4,15.4z M8.3,17.6V4.1
	c0-0.1,0-0.2-0.1-0.3l3.4-1.5v12.9c0,0.1,0,0.2,0.1,0.4L8.3,17.6z M18,16.9c0,0.3-0.2,0.5-0.3,0.6c-0.1,0.1-0.4,0.2-0.7,0l-3.9-1.9
	c0-0.1,0.1-0.2,0.1-0.3V2.3l4.4,1.6C17.8,4,18,4.3,18,4.6V16.9z"/>
</svg>
