<?xml version="1.0" encoding="utf-8"?>
<!-- Generator: Adobe Illustrator 24.2.1, SVG Export Plug-In . SVG Version: 6.00 Build 0)  -->
<svg version="1.1" id="Capa_1" xmlns="http://www.w3.org/2000/svg" xmlns:xlink="http://www.w3.org/1999/xlink" x="0px" y="0px"
	 viewBox="0 0 18 20" style="enable-background:new 0 0 18 20;" xml:space="preserve">
<style type="text/css">
	.st0{fill:#2B52D3;}
</style>
<path class="st0" d="M14.6,0.5H3c-1.2,0-2.2,1-2.2,2.2V4C0.5,4.1,0.2,4.4,0.2,4.7s0.3,0.7,0.6,0.7v2C0.5,7.5,0.2,7.8,0.2,8.1
	s0.3,0.7,0.6,0.7v2c-0.3,0.1-0.6,0.4-0.6,0.7s0.3,0.7,0.6,0.7v2c-0.3,0.1-0.6,0.4-0.6,0.7s0.3,0.7,0.6,0.7V17c0,1.2,1,2.2,2.2,2.2
	h11.6c1.6,0,2.9-1.3,2.9-2.9v-13C17.5,1.8,16.2,0.5,14.6,0.5z M3,2h1.3v2.3C4.2,4.1,4,4,3.7,4H2.4V2.7C2.4,2.3,2.7,2,3,2z M4.3,7.7
	C4.2,7.5,4,7.4,3.7,7.4H2.4V5.5h1.4c0.3,0,0.5-0.1,0.6-0.3V7.7z M3.7,8.9c0.3,0,0.5-0.1,0.6-0.3v2.6c-0.1-0.2-0.4-0.3-0.6-0.3H2.4
	V8.9H3.7z M3.7,12.3c0.3,0,0.5-0.1,0.6-0.3v2.6c-0.1-0.2-0.4-0.3-0.6-0.3H2.4v-1.9H3.7z M3,17.7c-0.4,0-0.7-0.3-0.7-0.7v-1.3h1.4
	c0.3,0,0.5-0.1,0.6-0.3v2.3H3z M16,16.3c0,0.8-0.6,1.4-1.4,1.4H5.8V2h8.8C15.4,2,16,2.6,16,3.4V16.3z"/>
</svg>
