<svg width="21" height="17" viewBox="0 0 21 17" fill="none" xmlns="http://www.w3.org/2000/svg">
<path d="M16.0802 4.86054C16.0802 6.21843 14.9518 7.31579 13.5539 7.31579C12.156 7.31579 11.0276 6.21843 11.0276 4.86054V3.45525C11.0276 2.09736 12.156 1 13.5539 1C14.9518 1 16.0802 2.09736 16.0802 3.45525V4.86054Z" stroke="#1A44DB" stroke-width="1.5" stroke-linecap="round" stroke-linejoin="round"/>
<path d="M6.81718 5.3419C7.97988 5.3419 8.92244 4.45825 8.92244 3.36822C8.92244 2.27818 7.97988 1.39453 6.81718 1.39453C5.65447 1.39453 4.71191 2.27818 4.71191 3.36822C4.71191 4.45825 5.65447 5.3419 6.81718 5.3419Z" stroke="#1A44DB" stroke-width="1.5" stroke-linecap="round" stroke-linejoin="round"/>
<path d="M8.93929 9.79454C8.10561 9.22612 7.08666 8.89453 5.97508 8.89453C3.51614 8.89453 1.46982 10.5445 1.01508 12.7235C0.914031 13.1971 1.33508 13.6314 1.84877 13.6314H5.97508" stroke="#1A44DB" stroke-width="1.5" stroke-linecap="round" stroke-linejoin="round"/>
<path d="M13.5541 9.68408C10.1604 9.68408 7.34781 12.0367 6.88465 15.0999C6.80887 15.5735 7.21308 15.9999 7.72676 15.9999H19.3815C19.8952 15.9999 20.291 15.5735 20.2236 15.0999C19.7604 12.0367 16.9478 9.68408 13.5541 9.68408Z" stroke="#1A44DB" stroke-width="1.5" stroke-linecap="round" stroke-linejoin="round"/>
</svg>
