<svg width="17" height="23" viewBox="0 0 17 23" fill="none" xmlns="http://www.w3.org/2000/svg">
<path d="M7.97083 22.018L7.9708 22.0181L7.97328 22.0217C8.03747 22.1152 8.12346 22.1917 8.22383 22.2445L8.37525 21.957L8.22384 22.2445C8.3242 22.2974 8.43593 22.325 8.54936 22.325C8.66279 22.325 8.77451 22.2974 8.87488 22.2445L8.72347 21.957L8.87489 22.2445C8.97526 22.1917 9.06125 22.1152 9.12543 22.0217L9.1255 22.0217L9.12947 22.0156C9.12921 22.016 9.13288 22.0106 9.1434 21.995L9.18409 21.9347L9.33334 21.7139C9.46116 21.5247 9.64322 21.255 9.86543 20.925C10.3098 20.265 10.9149 19.3636 11.5679 18.3823C12.8713 16.4236 14.371 14.1387 15.1629 12.8216C15.9676 11.5415 16.4031 10.064 16.4212 8.55202L16.4212 8.55202L16.4212 8.5477C16.4185 6.46057 15.5882 4.4597 14.1124 2.98388C12.6365 1.50805 10.6357 0.677732 8.54855 0.675H8.5477L8.22312 0.674574V0.682103C6.25406 0.76576 4.38302 1.58473 2.98388 2.98388C1.50805 4.4597 0.677732 6.46057 0.675 8.5477H0.67497L0.675025 8.55212C0.693627 10.0633 1.12913 11.54 1.93351 12.8194C2.72889 14.1361 4.22844 16.4209 5.53141 18.3801C6.18407 19.3615 6.78864 20.263 7.23281 20.9234C7.4549 21.2536 7.63691 21.5235 7.76479 21.713L7.91426 21.9343L7.9552 21.9949L7.96656 22.0117L7.96979 22.0165L7.97083 22.018ZM8.55755 20.3769C7.30499 18.5163 4.35724 14.1171 3.14479 12.0933L3.14491 12.0932L3.13978 12.0852C2.4627 11.0267 2.09159 9.80157 2.06744 8.54532C2.0708 6.82836 2.75434 5.18262 3.96848 3.96848C5.18328 2.75368 6.83015 2.07006 8.54812 2.06744C10.2661 2.07006 11.913 2.75368 13.1278 3.96848C14.3421 5.18279 15.0256 6.82881 15.0288 8.54603C15.0104 9.80071 14.6459 11.026 13.9753 12.0866L13.9753 12.0866L13.9718 12.0924C12.7501 14.1164 9.8046 18.5186 8.55755 20.3769Z" fill="#2B52D3" stroke="#1A44DB" stroke-width="0.65"/>
<path d="M8.54772 12.4438H8.54817C9.32218 12.4438 10.0788 12.2143 10.7224 11.7843C11.3659 11.3542 11.8675 10.743 12.1637 10.028C12.4599 9.31287 12.5374 8.52601 12.3864 7.76687C12.2354 7.00774 11.8627 6.31043 11.3154 5.76312C10.7681 5.21581 10.0708 4.84309 9.31164 4.69209C8.55251 4.54109 7.76564 4.61859 7.05055 4.91479C6.33547 5.21099 5.72427 5.71259 5.29425 6.35615C4.86424 6.99971 4.63472 7.75634 4.63472 8.53035L4.63472 8.53079C4.63614 9.56815 5.04887 10.5626 5.78239 11.2961C6.51591 12.0296 7.51037 12.4424 8.54772 12.4438ZM8.54831 6.00933C9.04687 6.00936 9.53423 6.15722 9.94877 6.4342C10.3633 6.71121 10.6865 7.10494 10.8773 7.5656C11.0681 8.02625 11.118 8.53314 11.0207 9.02217C10.9235 9.5112 10.6834 9.9604 10.3308 10.313C9.97822 10.6655 9.52902 10.9056 9.03999 11.0029C8.55096 11.1002 8.04407 11.0503 7.58342 10.8595C7.12276 10.6687 6.72903 10.3455 6.45202 9.93095C6.17504 9.51641 6.02718 9.02905 6.02715 8.53049C6.02777 7.86203 6.29359 7.22112 6.76627 6.74845C7.23894 6.27577 7.87985 6.00995 8.54831 6.00933Z" fill="#2B52D3" stroke="#1A44DB" stroke-width="0.65"/>
</svg>
