<?xml version="1.0" encoding="utf-8"?>
<!-- Generator: Adobe Illustrator 24.2.1, SVG Export Plug-In . SVG Version: 6.00 Build 0)  -->
<svg version="1.1" id="Capa_1" xmlns="http://www.w3.org/2000/svg" xmlns:xlink="http://www.w3.org/1999/xlink" x="0px" y="0px"
	 viewBox="0 0 20 16" style="enable-background:new 0 0 20 16;" xml:space="preserve">
<style type="text/css">
	.st0{fill:#1A44DB;stroke:#1A44DB;stroke-width:0.5;}
	.st1{fill:#1A44DB;}
</style>
<path class="st0" d="M14.9,3.8L14.9,3.8L14.9,3.8c0,0.3-0.2,0.5-0.5,0.5c-0.3,0-0.5-0.2-0.5-0.5s0.2-0.5,0.5-0.5S14.9,3.5,14.9,3.8z
	 M14.3,2c-1,0-1.8,0.8-1.8,1.8c0,1,0.8,1.8,1.8,1.8s1.8-0.8,1.8-1.8C16.1,2.8,15.4,2,14.3,2z"/>
<path class="st1" d="M15.9,0.7H4c-1.9,0-3.5,1.7-3.5,3.8v7.1c0,2.1,1.6,3.8,3.5,3.8H16c1.9,0,3.5-1.7,3.5-3.8V4.4
	C19.5,2.3,17.9,0.7,15.9,0.7z M5.9,8.7l-1.8,4.9H4c-1,0-1.9-0.9-1.9-2v0L5.9,8.7z M4.9,7.3L2.2,9.4v-5c0-1.1,0.8-2,1.9-2H16
	c1,0,1.9,0.9,1.9,2v4.9l-3.2-2.5c-0.8-0.6-1.8-0.5-2.5,0.3L10,9.8L7.2,7.3C6.8,7.1,6.4,6.9,6,6.9C5.6,6.9,5.3,7,4.9,7.3z M13.4,8.2
	c0.1-0.1,0.1-0.1,0.2,0l4.2,3.2l0,0.2c0,1.1-0.8,2-1.9,2h-1.5l-3.2-2.7L13.4,8.2z"/>
</svg>
