<svg width="21" height="21" viewBox="0 0 21 21" fill="none" xmlns="http://www.w3.org/2000/svg">
<path d="M4.3704 7.08826L2.90831 4.65956L4.65961 2.90826L7.08826 4.37045C7.55087 4.1061 8.04656 3.89958 8.57525 3.75088L9.26087 1H11.7391L12.4247 3.75088C12.9534 3.89958 13.4491 4.1061 13.9117 4.37045L16.3404 2.90826L18.0917 4.65956L16.6296 7.08826C16.8939 7.55087 17.1005 8.04651 17.2492 8.5752L20 9.26087V11.7391L17.2492 12.4248C17.1005 12.9535 16.8939 13.4491 16.6296 13.9117L18.0917 16.3404L16.3404 18.0917L13.9117 16.6296C13.4491 16.8939 12.9534 17.1004 12.4247 17.2491L11.7391 20H9.26087L8.57525 17.2491C8.04656 17.1004 7.55087 16.8939 7.08826 16.6296L4.65961 18.0917L2.90831 16.3404L4.3704 13.9117C4.10605 13.4491 3.89953 12.9535 3.75083 12.4248L1 11.7391V9.26087L3.75083 8.5752C3.89953 8.04651 4.10605 7.55087 4.3704 7.08826Z" stroke="#1A44DB" stroke-linecap="round" stroke-linejoin="round"/>
<path d="M10.5001 14.218C12.5532 14.218 14.2175 12.5537 14.2175 10.5006C14.2175 8.44754 12.5532 6.7832 10.5001 6.7832C8.44705 6.7832 6.78271 8.44754 6.78271 10.5006C6.78271 12.5537 8.44705 14.218 10.5001 14.218Z" stroke="#1A44DB" stroke-linecap="round" stroke-linejoin="round"/>
</svg>
