<svg width="20" height="20" viewBox="0 0 20 20" fill="none" xmlns="http://www.w3.org/2000/svg">
<path d="M8.27726 18.4466L12.4686 16.0506L16.6566 18.148L16.657 18.1483C17.6064 18.623 18.7501 17.9395 18.7501 16.8589V4.56482C18.7501 3.95619 18.3723 3.42486 17.8176 3.21154L17.8176 3.21152L17.8119 3.20938L12.961 1.38856L12.9608 1.38847C12.6042 1.25473 12.219 1.2743 11.8878 1.41233L11.8878 1.41229L11.8811 1.41516L7.54653 3.27084L3.21271 1.6465C2.2588 1.28232 1.25879 2.00245 1.25879 3.00113C1.25879 3.04997 1.26353 3.09809 1.27268 3.14494V14.7809C1.27268 15.3135 1.56624 15.8291 2.0762 16.0736L6.91346 18.4888C6.91359 18.4889 6.91372 18.4889 6.91385 18.489C7.34547 18.7046 7.85558 18.6919 8.27726 18.4466Z" stroke="#1A44DB" stroke-width="1.5" stroke-linecap="round" stroke-linejoin="round"/>
<path d="M7.58252 17.9922V4.09277" stroke="#1A44DB" stroke-width="1.5" stroke-linecap="round" stroke-linejoin="round"/>
<path d="M12.4475 15.2123V2.00781" stroke="#1A44DB" stroke-width="1.5" stroke-linecap="round" stroke-linejoin="round"/>
</svg>
