<?xml version="1.0" encoding="utf-8"?>
<!-- Generator: Adobe Illustrator 24.2.1, SVG Export Plug-In . SVG Version: 6.00 Build 0)  -->
<svg version="1.1" id="Capa_1" xmlns="http://www.w3.org/2000/svg" xmlns:xlink="http://www.w3.org/1999/xlink" x="0px" y="0px"
	 viewBox="0 0 22.1 17.9" style="enable-background:new 0 0 22.1 17.9;" xml:space="preserve">
<style type="text/css">
	.st0{fill:#1A44DB;}
</style>
<g>
	<path class="st0" d="M14,8.5c-1.8,0-3.3-1.4-3.3-3.2V3.9c0-1.8,1.5-3.2,3.3-3.2s3.3,1.4,3.3,3.2v1.4C17.3,7.1,15.8,8.5,14,8.5z
		 M14,2.2c-1,0-1.8,0.8-1.8,1.7v1.4C12.2,6.3,13,7,14,7s1.8-0.8,1.8-1.7V3.9C15.8,3,15,2.2,14,2.2z"/>
	<path class="st0" d="M7.2,6.6c-1.6,0-2.9-1.2-2.9-2.7s1.3-2.7,2.9-2.7c1.6,0,2.9,1.2,2.9,2.7S8.8,6.6,7.2,6.6z M7.2,2.6
		c-0.7,0-1.4,0.5-1.4,1.2s0.6,1.2,1.4,1.2c0.7,0,1.4-0.5,1.4-1.2S8,2.6,7.2,2.6z"/>
	<path class="st0" d="M6.4,14.9H2.3c-0.5,0-1-0.2-1.3-0.6c-0.3-0.3-0.4-0.8-0.3-1.2c0.5-2.6,2.9-4.4,5.7-4.4c1.2,0,2.4,0.4,3.4,1
		c0.3,0.2,0.4,0.7,0.2,1c-0.2,0.3-0.7,0.4-1,0.2c-0.7-0.5-1.6-0.8-2.5-0.8c-2.1,0-3.8,1.4-4.2,3.2c0,0,0,0,0.1,0h4.1
		c0.4,0,0.8,0.3,0.8,0.8S6.8,14.9,6.4,14.9z"/>
	<path class="st0" d="M19.8,17.2H8.2c-0.5,0-0.9-0.2-1.2-0.6c-0.3-0.3-0.4-0.8-0.3-1.2c0.5-3.4,3.7-6,7.4-6c3.7,0,6.9,2.6,7.4,6.1
		c0.1,0.4-0.1,0.9-0.4,1.2C20.7,17,20.3,17.2,19.8,17.2z M8.1,15.7c0,0,0,0,0.1,0h11.7c0.1,0,0.1,0,0.1,0c-0.4-2.7-3-4.8-5.9-4.8
		S8.5,13,8.1,15.7L8.1,15.7z"/>
</g>
</svg>
