<svg width="18" height="24" viewBox="0 0 18 24" fill="none" xmlns="http://www.w3.org/2000/svg">
<path d="M13.06 3.6499H15.95C16.53 3.6499 17 4.1199 17 4.6999V21.3699C17 21.9499 16.53 22.4199 15.95 22.4199H2.05C1.47 22.4199 1 21.9499 1 21.3699V4.6999C1 4.1199 1.47 3.6499 2.05 3.6499H4.87" stroke="#1A44DB" stroke-width="1.5" stroke-miterlimit="10"/>
<path d="M11.7202 4.75V2.12C11.7202 1.5 11.2202 1 10.6002 1H7.28016C6.66016 1 6.16016 1.5 6.16016 2.12V4.75" stroke="#1A44DB" stroke-width="1.5" stroke-miterlimit="10"/>
<path d="M4.25 6.47021H13.59" stroke="#1A44DB" stroke-width="1.5" stroke-miterlimit="10"/>
<path d="M8.9798 4.33021C9.35536 4.33021 9.6598 4.02577 9.6598 3.65021C9.6598 3.27466 9.35536 2.97021 8.9798 2.97021C8.60425 2.97021 8.2998 3.27466 8.2998 3.65021C8.2998 4.02577 8.60425 4.33021 8.9798 4.33021Z" fill="#1A44DB"/>
<path d="M11.5899 9.9299L12.7699 11.1499C12.9299 11.3099 12.9299 11.5699 12.7699 11.7299L7.91993 16.7499C7.87993 16.7899 7.81993 16.8299 7.76993 16.8499L5.79993 17.5799C5.48993 17.6899 5.17993 17.4299 5.23993 17.1099L5.55993 15.3999C5.57993 15.3199 5.61993 15.2399 5.67993 15.1799L10.9999 9.9099C11.1599 9.7499 11.4299 9.7599 11.5899 9.9299Z" stroke="#1A44DB" stroke-width="1.5" stroke-miterlimit="10"/>
</svg>
