<?xml version="1.0" encoding="utf-8"?>
<!-- Generator: Adobe Illustrator 24.2.1, SVG Export Plug-In . SVG Version: 6.00 Build 0)  -->
<svg version="1.1" id="Capa_1" xmlns="http://www.w3.org/2000/svg" xmlns:xlink="http://www.w3.org/1999/xlink" x="0px" y="0px"
	 viewBox="0 0 17.4 23.5" style="enable-background:new 0 0 17.4 23.5;" xml:space="preserve">
<style type="text/css">
	.st0{fill:#2B52D3;}
	.st1{fill:#1A44DB;}
</style>
<g>
	<path class="st0" d="M8.2,22.3L8.2,22.3L8.2,22.3c0.1,0.1,0.2,0.2,0.3,0.2l0.2-0.3l-0.2,0.3c0.1,0.1,0.2,0.1,0.3,0.1s0.2,0,0.3-0.1
		l-0.2-0.3l0.2,0.3c0.1-0.1,0.2-0.1,0.3-0.2h0l0,0c0,0,0,0,0,0l0-0.1L9.5,22c0.1-0.2,0.3-0.5,0.5-0.8c0.4-0.7,1-1.6,1.7-2.5
		c1.3-2,2.8-4.2,3.6-5.6c0.8-1.3,1.2-2.8,1.3-4.3l0,0v0c0-2.1-0.8-4.1-2.3-5.6c-1.5-1.5-3.5-2.3-5.6-2.3h0l-0.3,0v0
		C6.4,1,4.6,1.8,3.2,3.2C1.7,4.7,0.9,6.7,0.9,8.8h0l0,0c0,1.5,0.5,3,1.3,4.3c0.8,1.3,2.3,3.6,3.6,5.6c0.7,1,1.3,1.9,1.7,2.5
		C7.6,21.5,7.8,21.8,8,22L8.2,22.3L8.2,22.3L8.2,22.3L8.2,22.3L8.2,22.3z M8.8,20.6c-1.3-1.9-4.2-6.3-5.4-8.3l0,0l0,0
		c-0.7-1.1-1-2.3-1.1-3.5c0-1.7,0.7-3.4,1.9-4.6C5.4,3,7,2.3,8.7,2.3c1.7,0,3.4,0.7,4.6,1.9c1.2,1.2,1.9,2.9,1.9,4.6
		c0,1.3-0.4,2.5-1.1,3.5l0,0l0,0C12.9,14.4,10,18.8,8.8,20.6z"/>
	<path class="st1" d="M8.9,22.9L8.9,22.9c-0.1,0-0.2,0-0.4,0l0,0L8,22.6l0,0c0,0-0.1-0.1-0.1-0.1l0,0l0.3-0.2l-0.3,0.1l-0.7-1
		c-0.4-0.7-1-1.6-1.7-2.5c-1.2-1.8-2.8-4.2-3.6-5.6C1,11.9,0.6,10.4,0.5,8.8c0-2.2,0.9-4.3,2.4-5.8c1.4-1.4,3.2-2.2,5.1-2.4v0l0.3,0
		l0.3,0c2.2,0,4.2,0.9,5.8,2.4c1.5,1.5,2.4,3.6,2.4,5.8c0,1.6-0.5,3.1-1.3,4.4c-0.7,1.1-1.9,3-3.6,5.6c-0.7,1-1.3,1.9-1.7,2.5
		l-0.7,1.1c0,0-0.1,0.1-0.1,0.1l0,0L8.9,22.9z M8.2,22.3L8.2,22.3L8.2,22.3z M8.6,22.2c0.1,0.1,0.2,0.1,0.3,0C9,22.2,9,22.1,9,22.1
		l0,0l0.1,0l0.1,0L9.1,22l0.7-1c0.4-0.7,1-1.6,1.7-2.5c1.7-2.6,2.9-4.5,3.6-5.5c0.8-1.2,1.2-2.7,1.2-4.1c0-2-0.8-3.9-2.2-5.3
		c-1.4-1.4-3.3-2.2-5.3-2.2l-0.2,0l-0.1,0c-1.9,0.1-3.7,0.9-5,2.2C2,4.9,1.2,6.8,1.2,8.8c0,1.5,0.4,2.9,1.2,4.1
		c0.8,1.4,2.4,3.8,3.6,5.6c0.7,1,1.3,1.9,1.7,2.5l0.7,1.1l0,0l0,0l0,0l0,0C8.5,22.1,8.5,22.2,8.6,22.2z M9.2,22.1l0.1,0L9.2,22.1
		L9.2,22.1z M8.8,21.2l-0.3-0.4c-1.5-2.3-4.3-6.4-5.4-8.3C2.3,11.4,2,10.1,1.9,8.8c0-1.8,0.7-3.5,2-4.8c1.3-1.3,3-2,4.8-2
		c1.8,0,3.5,0.7,4.8,2s2,3,2,4.8c0,1.3-0.4,2.6-1.1,3.7c-0.9,1.4-2.7,4.3-5.4,8.3L8.8,21.2z M8.7,2.7c-1.6,0-3.2,0.6-4.3,1.8
		C3.2,5.6,2.6,7.2,2.6,8.8c0,1.2,0.4,2.4,1,3.4c1.1,1.8,3.6,5.6,5.1,7.9c2.5-3.8,4.3-6.5,5.1-7.9c0.6-1,1-2.2,1-3.4
		c0-1.6-0.6-3.2-1.8-4.3C11.9,3.3,10.4,2.7,8.7,2.7z"/>
</g>
<g>
	<path class="st0" d="M8.7,12.7L8.7,12.7c0.8,0,1.5-0.2,2.2-0.7c0.6-0.4,1.1-1,1.4-1.8c0.3-0.7,0.4-1.5,0.2-2.3
		c-0.2-0.8-0.5-1.5-1.1-2s-1.2-0.9-2-1.1C8.7,4.8,8,4.9,7.2,5.2C6.5,5.5,5.9,6,5.5,6.6C5.1,7.3,4.8,8,4.8,8.8v0c0,1,0.4,2,1.1,2.8
		C6.7,12.3,7.7,12.7,8.7,12.7z M8.7,6.3c0.5,0,1,0.1,1.4,0.4c0.4,0.3,0.7,0.7,0.9,1.1c0.2,0.5,0.2,1,0.1,1.5
		c-0.1,0.5-0.3,0.9-0.7,1.3c-0.4,0.4-0.8,0.6-1.3,0.7c-0.5,0.1-1,0-1.5-0.1c-0.5-0.2-0.9-0.5-1.1-0.9C6.4,9.8,6.2,9.3,6.2,8.8
		C6.2,8.1,6.5,7.5,7,7C7.4,6.5,8.1,6.3,8.7,6.3z"/>
	<path class="st1" d="M8.7,13L8.7,13c-1.1,0-2.2-0.4-3-1.2s-1.2-1.9-1.2-3c0-0.8,0.2-1.7,0.7-2.4c0.5-0.7,1.1-1.2,1.9-1.6
		c0.8-0.3,1.6-0.4,2.4-0.2c0.8,0.2,1.6,0.6,2.2,1.2c0.6,0.6,1,1.3,1.2,2.2c0.2,0.8,0.1,1.7-0.2,2.4c-0.3,0.8-0.9,1.4-1.6,1.9
		C10.4,12.8,9.6,13,8.7,13z M8.7,5.2c-0.5,0-0.9,0.1-1.4,0.3C6.7,5.7,6.2,6.2,5.8,6.8c-0.4,0.6-0.6,1.3-0.6,2c0,1,0.4,1.9,1.1,2.5
		c1.2,1.2,3.1,1.4,4.5,0.4c0.6-0.4,1-1,1.3-1.6c0.3-0.7,0.3-1.4,0.2-2.1c-0.1-0.7-0.5-1.3-1-1.8c-0.5-0.5-1.1-0.8-1.8-1
		C9.2,5.2,9,5.2,8.7,5.2z M8.7,11.6c-0.4,0-0.7-0.1-1.1-0.2c-0.5-0.2-1-0.6-1.3-1c-0.3-0.5-0.5-1-0.5-1.6c0-0.8,0.3-1.5,0.8-2
		c0.5-0.5,1.3-0.8,2-0.8l0,0c0.6,0,1.1,0.2,1.6,0.5c0.5,0.3,0.8,0.8,1,1.3c0.2,0.5,0.3,1.1,0.2,1.6c-0.1,0.6-0.4,1.1-0.8,1.5
		c-0.4,0.4-0.9,0.7-1.5,0.8C9.1,11.6,8.9,11.6,8.7,11.6z M8.7,6.6c-0.6,0-1.1,0.2-1.6,0.6c-0.4,0.4-0.6,1-0.6,1.6
		c0,0.4,0.1,0.9,0.4,1.2c0.2,0.4,0.6,0.6,1,0.8C8.3,11,8.7,11,9.2,10.9c0.4-0.1,0.8-0.3,1.1-0.6s0.5-0.7,0.6-1.1
		c0.1-0.4,0-0.9-0.1-1.3c-0.2-0.4-0.4-0.7-0.8-1C9.6,6.7,9.2,6.6,8.7,6.6z"/>
</g>
</svg>
