<svg width="20" height="16" viewBox="0 0 20 16" fill="none" xmlns="http://www.w3.org/2000/svg">
<path d="M14.8832 3.81833V3.82571L14.8837 3.83307C14.8999 4.10776 14.6733 4.35686 14.3447 4.35686C14.0503 4.35686 13.8062 4.11267 13.8062 3.81833C13.8062 3.52399 14.0504 3.27979 14.3447 3.27979C14.639 3.27979 14.8832 3.52399 14.8832 3.81833ZM14.3447 1.99121C13.3418 1.99121 12.543 2.79001 12.543 3.79294C12.543 4.79586 13.3418 5.59466 14.3447 5.59466C15.3476 5.59466 16.1464 4.79586 16.1464 3.79294C16.1464 2.81807 15.3503 1.99121 14.3447 1.99121Z" fill="#1A44DB" stroke="#1A44DB" stroke-width="0.5"/>
<path d="M4.28301 13.704H12.5288L6.27529 8.31906L4.28301 13.704ZM4.28301 13.704L4.28293 13.68H4.03376C2.88529 13.68 1.92419 12.6734 1.92419 11.3923V11.227L5.7972 8.30883C5.96155 8.19864 6.14771 8.2094 6.27518 8.31897L4.28301 13.704ZM15.0039 0.75L15.0039 0.750043H4.03376C2.21708 0.750043 0.75 2.32835 0.75 4.26282V11.3924C0.75 13.3003 2.19233 14.9052 4.03376 14.9052H15.9662C17.7829 14.9052 19.25 13.3269 19.25 11.3924L19.2499 4.23864L19.2498 4.23552C19.2259 2.3281 17.7832 0.75 15.9437 0.75H15.0039ZM12.3113 7.10226L12.3109 7.10275L10.023 9.94701L7.00584 7.36006C7.00579 7.36002 7.00575 7.35998 7.00571 7.35995C6.46597 6.89557 5.68525 6.87005 5.09938 7.29954L5.09937 7.29952L5.09622 7.3019L1.92423 9.70507V4.23861C1.92423 2.95748 2.8853 1.95092 4.0338 1.95092H15.9663C17.1147 1.95092 18.0758 2.95744 18.0758 4.23861V9.62333L14.4339 6.84429C14.4336 6.8441 14.4334 6.8439 14.4331 6.8437C13.7613 6.32418 12.8439 6.44349 12.3113 7.10226ZM18.0533 11.3923C18.0533 11.3923 18.0533 11.3923 18.0533 11.3923C18.0533 12.6734 17.0922 13.68 15.9437 13.68H14.351L10.9202 10.7327L13.2148 7.90264C13.3578 7.73523 13.5911 7.71123 13.7504 7.8234L18.0532 11.1052L18.0533 11.3923Z" fill="#1A44DB" stroke="#1A44DB" stroke-width="0.5"/>
</svg>
