<svg width="20" height="22" viewBox="0 0 20 22" fill="none" xmlns="http://www.w3.org/2000/svg">
<path d="M17.7475 8.3068C16.0776 9.97668 13.363 9.97668 11.6931 8.3068C10.0232 6.63692 10.0232 3.92229 11.6931 2.25241C13.363 0.58253 16.0776 0.58253 17.7475 2.25241C19.4174 3.92229 19.4174 6.63692 17.7475 8.3068Z" stroke="#1A44DB" stroke-width="1.5" stroke-linecap="round" stroke-linejoin="round"/>
<path d="M14.0137 9.49712L5.68134 16.8875C5.00483 17.4783 3.97722 17.444 3.34353 16.8103L3.18087 16.6477C2.54717 16.014 2.51284 14.9864 3.10372 14.3098L10.494 5.97754" stroke="#1A44DB" stroke-width="1.5" stroke-linecap="round" stroke-linejoin="round"/>
<path d="M3.11355 16.5791L1.2981 18.3946" stroke="#1A44DB" stroke-width="1.5" stroke-linecap="round" stroke-linejoin="round"/>
<path d="M1.87124 20.6896C1.20329 20.0216 0.629496 19.0625 1.29745 18.3945" stroke="#1A44DB" stroke-width="1.5" stroke-linecap="round" stroke-linejoin="round"/>
<path d="M10.4349 9.55713L8.72217 11.2698" stroke="#1A44DB" stroke-width="1.5" stroke-linecap="round" stroke-linejoin="round"/>
</svg>
