<svg width="19" height="24" viewBox="0 0 19 24" fill="none" xmlns="http://www.w3.org/2000/svg">
<path d="M13.4705 5.39706C13.8847 5.39706 14.2205 5.06127 14.2205 4.64706V3.76471C14.2205 2.3799 13.0906 1.25 11.7058 1.25H7.294C5.9092 1.25 4.7793 2.3799 4.7793 3.76471V4.64706C4.7793 5.06127 5.11508 5.39706 5.5293 5.39706H13.4705Z" stroke="#1A44DB" stroke-width="1.5" stroke-linecap="round" stroke-linejoin="round"/>
<mask id="path-2-outside-1_3071_8766" maskUnits="userSpaceOnUse" x="0" y="1.76465" width="19" height="23" fill="black">
<rect fill="white" y="1.76465" width="19" height="23"/>
<path d="M15.2353 3.76465H17V22.2941H2V3.76465H3.76471"/>
</mask>
<path d="M15.2353 2.26465C14.4069 2.26465 13.7353 2.93622 13.7353 3.76465C13.7353 4.59308 14.4069 5.26465 15.2353 5.26465V2.26465ZM17 3.76465H18.5C18.5 2.93622 17.8284 2.26465 17 2.26465V3.76465ZM17 22.2941V23.7941C17.8284 23.7941 18.5 23.1225 18.5 22.2941H17ZM2 22.2941H0.5C0.5 23.1225 1.17157 23.7941 2 23.7941L2 22.2941ZM2 3.76465V2.26465C1.17157 2.26465 0.5 2.93622 0.5 3.76465L2 3.76465ZM3.76471 5.26465C4.59313 5.26465 5.26471 4.59308 5.26471 3.76465C5.26471 2.93622 4.59313 2.26465 3.76471 2.26465V5.26465ZM15.2353 5.26465H17V2.26465H15.2353V5.26465ZM15.5 3.76465V22.2941H18.5V3.76465H15.5ZM17 20.7941H2V23.7941H17V20.7941ZM3.5 22.2941V3.76465H0.5V22.2941H3.5ZM2 5.26465H3.76471V2.26465H2V5.26465Z" fill="#1A44DB" mask="url(#path-2-outside-1_3071_8766)"/>
<mask id="path-4-outside-2_3071_8766" maskUnits="userSpaceOnUse" x="2.76465" y="8.05859" width="7" height="5" fill="black">
<rect fill="white" x="2.76465" y="8.05859" width="7" height="5"/>
<path d="M3.76465 9.94095L5.52935 11.7057L8.17641 9.05859"/>
</mask>
<path d="M4.47176 9.23384C4.08123 8.84332 3.44807 8.84332 3.05754 9.23384C2.66702 9.62436 2.66702 10.2575 3.05754 10.6481L4.47176 9.23384ZM5.52935 11.7057L4.82225 12.4128C5.21277 12.8033 5.84594 12.8033 6.23646 12.4128L5.52935 11.7057ZM8.88352 9.7657C9.27404 9.37518 9.27404 8.74201 8.88352 8.35149C8.493 7.96096 7.85983 7.96096 7.46931 8.35149L8.88352 9.7657ZM3.05754 10.6481L4.82225 12.4128L6.23646 10.9985L4.47176 9.23384L3.05754 10.6481ZM6.23646 12.4128L8.88352 9.7657L7.46931 8.35149L4.82225 10.9985L6.23646 12.4128Z" fill="#1A44DB" mask="url(#path-4-outside-2_3071_8766)"/>
<path d="M10.8235 10.8237H14.3529" stroke="#1A44DB" stroke-width="1.5" stroke-linecap="round" stroke-linejoin="round"/>
<mask id="path-7-outside-3_3071_8766" maskUnits="userSpaceOnUse" x="2.76465" y="13.353" width="7" height="5" fill="black">
<rect fill="white" x="2.76465" y="13.353" width="7" height="5"/>
<path d="M3.76465 15.2354L5.52935 17.0001L8.17641 14.353"/>
</mask>
<path d="M4.47176 14.5283C4.08123 14.1377 3.44807 14.1377 3.05754 14.5283C2.66702 14.9188 2.66702 15.552 3.05754 15.9425L4.47176 14.5283ZM5.52935 17.0001L4.82225 17.7072C5.21277 18.0977 5.84594 18.0977 6.23646 17.7072L5.52935 17.0001ZM8.88352 15.0601C9.27404 14.6696 9.27404 14.0364 8.88352 13.6459C8.493 13.2554 7.85983 13.2554 7.46931 13.6459L8.88352 15.0601ZM3.05754 15.9425L4.82225 17.7072L6.23646 16.293L4.47176 14.5283L3.05754 15.9425ZM6.23646 17.7072L8.88352 15.0601L7.46931 13.6459L4.82225 16.293L6.23646 17.7072Z" fill="#1A44DB" mask="url(#path-7-outside-3_3071_8766)"/>
<path d="M10.8235 16.1177H14.3529" stroke="#1A44DB" stroke-width="1.5" stroke-linecap="round" stroke-linejoin="round"/>
</svg>
