<?xml version="1.0" encoding="utf-8"?>
<!-- Generator: Adobe Illustrator 24.2.1, SVG Export Plug-In . SVG Version: 6.00 Build 0)  -->
<svg version="1.1" id="Capa_1" xmlns="http://www.w3.org/2000/svg" xmlns:xlink="http://www.w3.org/1999/xlink" x="0px" y="0px"
	 viewBox="0 0 21.8 21.9" style="enable-background:new 0 0 21.8 21.9;" xml:space="preserve">
<style type="text/css">
	.st0{fill:#1A44DB;}
</style>
<g>
	<path class="st0" d="M12.1,20.9H9.7c-0.2,0-0.4-0.2-0.5-0.4l-0.6-2.5c-0.4-0.1-0.7-0.3-1.1-0.4L5.3,19c-0.2,0.1-0.4,0.1-0.6-0.1
		L3,17.1c-0.2-0.2-0.2-0.4-0.1-0.6l1.3-2.2C4,14,3.9,13.7,3.8,13.3l-2.5-0.6c-0.2-0.1-0.4-0.3-0.4-0.5V9.7c0-0.2,0.2-0.4,0.4-0.5
		l2.5-0.6C3.9,8.2,4,7.9,4.2,7.6L2.9,5.4C2.8,5.2,2.8,4.9,3,4.8L4.7,3c0.2-0.2,0.4-0.2,0.6-0.1l2.2,1.3c0.3-0.2,0.7-0.3,1.1-0.4
		l0.6-2.5c0.1-0.2,0.3-0.4,0.5-0.4h2.5c0.2,0,0.4,0.2,0.5,0.4l0.6,2.5c0.4,0.1,0.7,0.3,1.1,0.4l2.2-1.3c0.2-0.1,0.4-0.1,0.6,0.1
		l1.8,1.8C19,4.9,19,5.2,18.9,5.4l-1.3,2.2c0.2,0.3,0.3,0.7,0.4,1.1l2.5,0.6c0.2,0.1,0.4,0.3,0.4,0.5v2.5c0,0.2-0.2,0.4-0.4,0.5
		l-2.5,0.6c-0.1,0.4-0.3,0.7-0.4,1.1l1.3,2.2c0.1,0.2,0.1,0.4-0.1,0.6l-1.8,1.8c-0.2,0.2-0.4,0.2-0.6,0.1l-2.2-1.3
		c-0.3,0.2-0.7,0.3-1.1,0.4l-0.6,2.5C12.6,20.8,12.4,20.9,12.1,20.9z M10.1,19.9h1.7l0.6-2.4c0-0.2,0.2-0.3,0.4-0.4
		c0.5-0.1,0.9-0.3,1.4-0.6c0.2-0.1,0.4-0.1,0.5,0l2.1,1.3l1.2-1.2l-1.3-2.1c-0.1-0.2-0.1-0.3,0-0.5c0.2-0.4,0.4-0.9,0.6-1.4
		c0-0.2,0.2-0.3,0.4-0.4l2.4-0.6v-1.7l-2.4-0.6c-0.2,0-0.3-0.2-0.4-0.4c-0.1-0.5-0.3-0.9-0.6-1.4c-0.1-0.2-0.1-0.4,0-0.5l1.3-2.1
		L16.7,4l-2.1,1.3c-0.2,0.1-0.3,0.1-0.5,0c-0.4-0.2-0.9-0.4-1.4-0.6c-0.2,0-0.3-0.2-0.4-0.4l-0.6-2.4h-1.7L9.5,4.3
		c0,0.2-0.2,0.3-0.4,0.4C8.6,4.8,8.2,5,7.7,5.3c-0.2,0.1-0.4,0.1-0.5,0L5.1,4L3.9,5.2l1.3,2.1c0.1,0.2,0.1,0.3,0,0.5
		C5,8.2,4.8,8.7,4.6,9.2c0,0.2-0.2,0.3-0.4,0.4l-2.4,0.6v1.7l2.4,0.6c0.2,0,0.3,0.2,0.4,0.4c0.1,0.5,0.3,0.9,0.6,1.4
		c0.1,0.2,0.1,0.4,0,0.5l-1.3,2.1l1.2,1.2l2.1-1.3c0.2-0.1,0.3-0.1,0.5,0c0.4,0.2,0.9,0.4,1.4,0.6c0.2,0,0.3,0.2,0.4,0.4L10.1,19.9z
		"/>
	<path class="st0" d="M10.9,15.2c-2.3,0-4.2-1.9-4.2-4.2c0-2.3,1.9-4.2,4.2-4.2c2.3,0,4.2,1.9,4.2,4.2
		C15.1,13.3,13.2,15.2,10.9,15.2z M10.9,7.7c-1.8,0-3.2,1.4-3.2,3.2s1.4,3.2,3.2,3.2c1.8,0,3.2-1.4,3.2-3.2S12.7,7.7,10.9,7.7z"/>
</g>
</svg>
