<svg width="22" height="21" viewBox="0 0 22 21" fill="none" xmlns="http://www.w3.org/2000/svg">
<path d="M21.4214 19.8702H19.5571V2.82543C19.5567 2.56339 19.3717 2.33622 19.1103 2.2763L9.24485 0.0165925V0.0167895C9.07321 -0.0257683 8.89108 0.013637 8.75377 0.122988C8.61505 0.229974 8.53388 0.393114 8.53388 0.565706V4.52813H3.01628C2.69664 4.52813 2.43738 4.78111 2.43738 5.093V19.8701H0.578899C0.259256 19.8701 0 20.123 0 20.4351C0 20.747 0.259266 21 0.578899 21H21.4211C21.7407 21 22 20.747 22 20.4351C22 20.123 21.7407 19.8701 21.4211 19.8701L21.4214 19.8702ZM9.69201 1.27898L18.3995 3.26975V19.8702H13.4692V5.09311C13.4692 4.94337 13.4082 4.79954 13.2996 4.69374C13.1909 4.58774 13.0437 4.52824 12.8903 4.52824H9.69205L9.69201 1.27898ZM3.59597 5.65808H9.09135H9.11336H9.13658H12.3116L12.3114 19.8702H3.59613L3.59597 5.65808ZM15.1378 18.0862V18.0864C15.1378 17.7743 15.397 17.5215 15.7167 17.5215H16.702C17.0219 17.5215 17.2809 17.7743 17.2809 18.0864C17.2809 18.3983 17.0218 18.6513 16.702 18.6513H15.7167C15.5626 18.6513 15.4148 18.5914 15.3061 18.4846C15.1973 18.378 15.1367 18.2334 15.1377 18.083L15.1378 18.0862ZM11.1869 18.0862V18.0864C11.1869 18.2362 11.126 18.3798 11.0173 18.4858C10.9089 18.5918 10.7615 18.6513 10.608 18.6513H9.62387C9.30402 18.6513 9.04497 18.3983 9.04497 18.0864C9.04497 17.7743 9.30403 17.5216 9.62387 17.5216H10.608C10.9265 17.5216 11.1851 17.7724 11.1869 18.0831L11.1869 18.0862ZM11.1869 15.4786V15.4788C11.1869 15.6285 11.126 15.7721 11.0173 15.8781C10.9089 15.9841 10.7615 16.0436 10.608 16.0436H9.62387C9.30402 16.0436 9.04497 15.7907 9.04497 15.4788C9.04497 15.1667 9.30403 14.9139 9.62387 14.9139H10.608C10.925 14.9137 11.1831 15.1626 11.1869 15.4719L11.1869 15.4786ZM11.1869 12.8709V12.8711C11.1869 13.0209 11.126 13.1645 11.0173 13.2705C10.9089 13.3765 10.7615 13.436 10.608 13.436H9.62387C9.30402 13.436 9.04497 13.183 9.04497 12.8711C9.04497 12.5591 9.30403 12.3063 9.62387 12.3063H10.608C10.7619 12.3063 10.9095 12.366 11.0183 12.4724C11.127 12.579 11.1875 12.7232 11.1869 12.8733V12.8709ZM11.1869 10.2633V10.2635C11.1869 10.4132 11.126 10.5569 11.0173 10.6629C10.9089 10.7689 10.7615 10.8284 10.608 10.8284H9.62387C9.30402 10.8284 9.04497 10.5754 9.04497 10.2635C9.04497 9.95142 9.30403 9.69864 9.62387 9.69864H10.608C10.9265 9.69864 11.1851 9.94946 11.1869 10.2602L11.1869 10.2633ZM9.04477 7.65566L9.04497 7.65586C9.04497 7.34376 9.30404 7.09099 9.62387 7.09099H10.608C10.9279 7.09099 11.1869 7.34377 11.1869 7.65586C11.1869 7.96775 10.9279 8.22072 10.608 8.22072H9.62387C9.4696 8.22072 9.32179 8.16082 9.21316 8.05404C9.10453 7.94744 9.04395 7.80282 9.04496 7.6525L9.04477 7.65566ZM6.86342 18.0829C6.86342 18.2326 6.80244 18.3763 6.69381 18.4823C6.58538 18.5883 6.43798 18.6478 6.28451 18.6478H5.29916C4.97932 18.6478 4.72026 18.3948 4.72026 18.0829C4.72026 17.7708 4.97933 17.5178 5.29916 17.5178H6.28451C6.43798 17.5178 6.58538 17.5773 6.69381 17.6833C6.80245 17.7893 6.86342 17.933 6.86342 18.0829V18.0829ZM6.86342 15.4752C6.86342 15.625 6.80244 15.7686 6.69381 15.8746C6.58538 15.9806 6.43798 16.0401 6.28451 16.0401H5.29916C4.97932 16.0401 4.72026 15.7871 4.72026 15.4753C4.72026 15.1632 4.97933 14.9102 5.29916 14.9102H6.28451C6.60295 14.9102 6.8616 15.1612 6.86341 15.4717L6.86342 15.4752ZM6.86342 12.8676C6.86342 13.0173 6.80244 13.161 6.69381 13.267C6.58538 13.373 6.43798 13.4325 6.28451 13.4325H5.29916C4.97932 13.4325 4.72026 13.1795 4.72026 12.8676C4.72026 12.5555 4.97933 12.3026 5.29916 12.3026H6.28451C6.43899 12.3026 6.5872 12.3628 6.69583 12.47C6.80467 12.5772 6.86504 12.7224 6.86342 12.8731V12.8676ZM6.86342 10.26C6.86342 10.4097 6.80244 10.5533 6.69381 10.6593C6.58538 10.7653 6.43798 10.8248 6.28451 10.8248H5.29916C4.97932 10.8248 4.72026 10.5719 4.72026 10.26C4.72026 9.94789 4.97933 9.69491 5.29916 9.69491H6.28451C6.43798 9.69491 6.58538 9.75441 6.69381 9.86041C6.80245 9.96641 6.86342 10.11 6.86342 10.26V10.26ZM6.86342 7.65233C6.86342 7.80207 6.80244 7.9457 6.69381 8.0517C6.58538 8.15771 6.43798 8.21721 6.28451 8.21721H5.29916C4.97932 8.21721 4.72026 7.96422 4.72026 7.65234C4.72026 7.34025 4.97933 7.08727 5.29916 7.08727H6.28451C6.43798 7.08727 6.58538 7.14678 6.69381 7.25277C6.80245 7.35878 6.86342 7.50241 6.86342 7.65234V7.65233ZM15.1378 15.4719C15.1378 15.16 15.397 14.907 15.7167 14.907H16.702C17.0219 14.907 17.2809 15.16 17.2809 15.4719C17.2809 15.784 17.0218 16.0369 16.702 16.0369H15.7167C15.397 16.0369 15.1378 15.784 15.1378 15.4719ZM15.1378 12.8642C15.1378 12.5523 15.397 12.2994 15.7167 12.2994H16.702C17.0219 12.2994 17.2809 12.5523 17.2809 12.8642C17.2809 13.1763 17.0218 13.4293 16.702 13.4293H15.7167C15.4004 13.4293 15.1428 13.1818 15.1378 12.8733V12.8642ZM15.1378 10.2566C15.1378 9.9447 15.397 9.69172 15.7167 9.69172H16.702C17.0219 9.69172 17.2809 9.94471 17.2809 10.2566C17.2809 10.5687 17.0218 10.8217 16.702 10.8217H15.7167C15.3982 10.8217 15.1396 10.5706 15.1378 10.2601V10.2566ZM15.1378 7.64895C15.1378 7.33706 15.397 7.08409 15.7167 7.08409H16.702C17.0219 7.08409 17.2809 7.33707 17.2809 7.64895C17.2809 7.96104 17.0218 8.21402 16.702 8.21402H15.7167C15.3982 8.21402 15.1396 7.963 15.1378 7.65248V7.64895ZM15.1378 5.04131C15.1378 4.72942 15.397 4.47645 15.7167 4.47645H16.702C17.0219 4.47645 17.2809 4.72943 17.2809 5.04131C17.2809 5.3534 17.0218 5.60638 16.702 5.60638H15.7167C15.3982 5.60638 15.1396 5.35536 15.1378 5.04484V5.04131Z" fill="#1A44DB"/>
</svg>
