<?xml version="1.0" encoding="utf-8"?>
<!-- Generator: Adobe Illustrator 24.2.1, SVG Export Plug-In . SVG Version: 6.00 Build 0)  -->
<svg version="1.1" xmlns="http://www.w3.org/2000/svg" xmlns:xlink="http://www.w3.org/1999/xlink" x="0px" y="0px"
	 viewBox="0 0 21 21" style="enable-background:new 0 0 21 21;" xml:space="preserve">
<style type="text/css">
	.st0{display:none;}
	.st1{display:inline;}
	.st2{fill:none;stroke:#9A9AB0;stroke-width:2;stroke-linecap:round;stroke-linejoin:round;}
	.st3{fill:#9A9AB0;}
</style>
<g id="line" class="st0">
	<g class="st1">
		<path class="st2" d="M10.5,1C5.3,1,1,5.3,1,10.5c0,1.8,0.5,3.4,1.3,4.9l-1.2,4.5l4.5-1.2c1.4,0.9,3.1,1.3,4.9,1.3
			c5.2,0,9.5-4.3,9.5-9.5C20,5.3,15.7,1,10.5,1z"/>
		<path class="st2" d="M6,8.4H15"/>
		<path class="st2" d="M6,10.9H15"/>
		<path class="st2" d="M6,13.4H15"/>
	</g>
</g>
<g id="Capa_1">
	<g>
		<path class="st3" d="M10.5,20.5c-1.7,0-3.3-0.4-4.8-1.2l-3.9,1c-0.3,0.1-0.7,0-0.9-0.2s-0.3-0.6-0.2-0.9l1-3.9
			c-0.8-1.5-1.2-3.1-1.2-4.8c0-5.5,4.5-10,10-10s10,4.5,10,10S16,20.5,10.5,20.5z M5.9,17.3c0.2,0,0.3,0,0.5,0.1
			c1.3,0.8,2.7,1.1,4.1,1.1c4.5,0,8.1-3.6,8.1-8.1s-3.6-8-8.1-8S2.4,6,2.4,10.5c0,1.5,0.4,2.9,1.1,4.1c0.1,0.2,0.2,0.5,0.1,0.7
			L2.9,18l2.7-0.7C5.7,17.3,5.8,17.3,5.9,17.3z"/>
		<path class="st3" d="M14.8,9.5H6.2c-0.5,0-1-0.4-1-1c0-0.5,0.4-1,1-1h8.7c0.5,0,1,0.4,1,1C15.8,9.1,15.4,9.5,14.8,9.5z"/>
		<path class="st3" d="M14.8,11.8H6.2c-0.5,0-1-0.4-1-1s0.4-1,1-1h8.7c0.5,0,1,0.4,1,1S15.4,11.8,14.8,11.8z"/>
		<path class="st3" d="M14.8,14.2H6.2c-0.5,0-1-0.4-1-1c0-0.5,0.4-1,1-1h8.7c0.5,0,1,0.4,1,1C15.8,13.8,15.4,14.2,14.8,14.2z"/>
	</g>
</g>
</svg>
