<?xml version="1.0" encoding="utf-8"?>
<!-- Generator: Adobe Illustrator 24.2.1, SVG Export Plug-In . SVG Version: 6.00 Build 0)  -->
<svg version="1.1" id="Capa_1" xmlns="http://www.w3.org/2000/svg" xmlns:xlink="http://www.w3.org/1999/xlink" x="0px" y="0px"
	 viewBox="0 0 9 12" style="enable-background:new 0 0 9 12;" xml:space="preserve">
<style type="text/css">
	.st0{fill:#1A44DB;}
</style>
<g>
	<path class="st0" d="M4.5,11.5c-0.3,0-0.5-0.1-0.7-0.3C2.7,10,0.2,7.1,0.2,4.7c0-2.3,1.9-4.2,4.3-4.2s4.3,1.9,4.3,4.2
		c0,2.3-2.2,5-3.6,6.5C5,11.4,4.7,11.5,4.5,11.5z M4.5,1.5C2.7,1.5,1.2,3,1.2,4.7c0,2.1,2.5,4.9,3.3,5.8c0.7-0.8,3.2-3.7,3.2-5.8
		C7.8,3,6.3,1.5,4.5,1.5z"/>
	<path class="st0" d="M4.5,7.1c-1.3,0-2.3-1-2.3-2.3s1-2.3,2.3-2.3c1.3,0,2.3,1,2.3,2.3S5.8,7.1,4.5,7.1z M4.5,3.5
		c-0.7,0-1.3,0.6-1.3,1.3s0.6,1.3,1.3,1.3s1.3-0.6,1.3-1.3S5.2,3.5,4.5,3.5z"/>
</g>
</svg>
