<svg width="9" height="12" viewBox="0 0 9 12" fill="none" xmlns="http://www.w3.org/2000/svg">
<path d="M8.50003 4.73753C8.50003 6.9499 5.964 9.87608 5.05511 10.8603C4.8822 11.0466 4.58516 11.0466 4.40782 10.8603C3.4945 9.88051 0.958463 6.9632 0.962896 4.73753C0.962896 2.67147 2.6521 1 4.73146 1C6.81083 1 8.50003 2.6759 8.50003 4.73753Z" stroke="#1A44DB" stroke-linecap="round" stroke-linejoin="round"/>
<path d="M4.73145 6.57319C5.7109 6.57319 6.50489 5.7792 6.50489 4.79975C6.50489 3.8203 5.7109 3.02631 4.73145 3.02631C3.75201 3.02631 2.95801 3.8203 2.95801 4.79975C2.95801 5.7792 3.75201 6.57319 4.73145 6.57319Z" stroke="#1A44DB" stroke-linecap="round" stroke-linejoin="round"/>
</svg>
