<svg width="25" height="25" viewBox="0 0 25 25" fill="#9A9AB0" xmlns="http://www.w3.org/2000/svg">
<path d="M16.6667 15.1519C16.6667 15.9887 15.9883 16.667 15.1515 16.667C14.3147 16.667 13.6364 15.9887 13.6364 15.1519C13.6364 14.315 14.3147 13.6367 15.1515 13.6367C15.9883 13.6367 16.6667 14.315 16.6667 15.1519Z" fill="#9A9AB0"/>
<path d="M11.3637 9.84914C11.3637 10.686 10.6854 11.3643 9.84853 11.3643C9.01168 11.3643 8.33337 10.686 8.33337 9.84914C8.33337 9.01229 9.01168 8.33398 9.84853 8.33398C10.6854 8.33398 11.3637 9.01229 11.3637 9.84914Z" fill="#9A9AB0"/>
<path d="M9.32654 16.6673C9.06305 16.6673 8.81063 16.5626 8.62448 16.3765C8.4381 16.1903 8.33361 15.9377 8.33337 15.6744C8.33337 15.411 8.43785 15.1585 8.624 14.9721L14.959 8.63736C15.1442 8.4457 15.3983 8.33642 15.6649 8.33402C15.9313 8.33186 16.1873 8.43657 16.3758 8.62487C16.5641 8.81341 16.6688 9.06944 16.6667 9.33576C16.6643 9.60235 16.555 9.85646 16.3633 10.0416L10.0283 16.3764C9.8424 16.563 9.58972 16.6677 9.32649 16.6672L9.32654 16.6673Z" fill="#9A9AB0"/>
<path d="M12.5003 25C11.5835 25.0016 10.704 24.6382 10.0562 23.9897L8.86738 22.8024H8.86762C8.58095 22.5141 8.19123 22.3524 7.78468 22.3534H6.1026C5.18651 22.3513 4.3086 21.9864 3.6608 21.3387C3.013 20.6912 2.64839 19.8131 2.6463 18.8973V17.2146C2.64723 16.8082 2.48552 16.4185 2.19722 16.1318L1.00914 14.9433C0.362708 14.2942 0 13.4154 0 12.4994C0 11.5834 0.362755 10.7046 1.00914 10.0554L2.19656 8.86673V8.86696C2.48486 8.58031 2.64658 8.19062 2.64565 7.7841V6.10215C2.64774 5.18612 3.0126 4.30828 3.66038 3.66053C4.30794 3.01278 5.18609 2.64819 6.10195 2.64611H7.78402C8.19052 2.64704 8.58026 2.48533 8.86696 2.19705L10.0562 1.00906C10.7054 0.362681 11.5843 0 12.5004 0C13.4164 0 14.2953 0.362729 14.9445 1.00906L16.1333 2.1964H16.133C16.4197 2.48467 16.8094 2.64638 17.216 2.64545H18.8981C19.8141 2.64755 20.6921 3.01237 21.3399 3.66011C21.9877 4.30763 22.3523 5.18571 22.3544 6.10149V7.78344C22.3534 8.18992 22.5151 8.57963 22.8034 8.8663L23.9909 10.055V10.0548C24.6373 10.7039 25 11.5827 25 12.4987C25 13.4147 24.6372 14.2935 23.9909 14.9427L22.8034 16.1314C22.5151 16.4178 22.3534 16.8077 22.3544 17.214V18.8959C22.3523 19.812 21.9876 20.6898 21.3399 21.3376C20.6921 21.9853 19.8141 22.3501 18.8981 22.352H17.216C16.8095 22.3513 16.4197 22.5128 16.133 22.801L14.9445 23.9897C14.2967 24.6382 13.4171 25.0016 12.5004 25H12.5003ZM12.5003 1.92219C12.0936 1.92195 11.7036 2.08342 11.4162 2.37124L10.2281 3.55714C9.58154 4.20698 8.70196 4.57133 7.7854 4.56948H6.10332C5.69705 4.57041 5.3078 4.73212 5.02062 5.01923C4.73325 5.30635 4.57153 5.69581 4.57083 6.10186V7.78452C4.5727 8.70102 4.20831 9.58047 3.55842 10.2271L2.37034 11.4151C2.08344 11.7029 1.92242 12.0926 1.92242 12.4991C1.92242 12.9055 2.08344 13.2953 2.37034 13.5831L3.55777 14.7711C4.20765 15.4176 4.57203 16.2971 4.57018 17.2136V18.8956C4.57111 19.3018 4.73283 19.6911 5.01996 19.9782C5.3071 20.2656 5.69659 20.4273 6.10267 20.428H7.78546C8.70202 20.4261 9.58154 20.7905 10.2282 21.4403L11.4163 22.6276C11.7041 22.9145 12.0939 23.0755 12.5004 23.0755C12.9069 23.0755 13.2966 22.9145 13.5844 22.6276L14.7725 21.4403C15.4191 20.7905 16.2987 20.4261 17.2153 20.428H18.8973C19.3036 20.4273 19.6929 20.2658 19.9803 19.9784C20.2676 19.6911 20.4291 19.3019 20.4298 18.8956V17.2136C20.428 16.2971 20.7924 15.4177 21.4422 14.7711L22.6297 13.5831C22.9166 13.2953 23.0776 12.9055 23.0776 12.4991C23.0776 12.0926 22.9166 11.7029 22.6297 11.4151L21.443 10.2271C20.7931 9.58053 20.4287 8.70102 20.4305 7.78451V6.10257C20.4299 5.69633 20.2681 5.3071 19.981 5.0197C19.6936 4.73236 19.3044 4.57088 18.8981 4.57019H17.2153C16.2987 4.57205 15.4192 4.20769 14.7725 3.55785L13.5844 2.36986C13.2968 2.08274 12.9069 1.92151 12.5004 1.9222L12.5003 1.92219Z" fill="#9A9AB0"/>
</svg>
