<?xml version="1.0" encoding="utf-8"?>
<!-- Generator: Adobe Illustrator 24.2.1, SVG Export Plug-In . SVG Version: 6.00 Build 0)  -->
<svg version="1.1" id="Capa_1" xmlns="http://www.w3.org/2000/svg" xmlns:xlink="http://www.w3.org/1999/xlink" x="0px" y="0px"
	 viewBox="0 0 25.4 25.7" style="enable-background:new 0 0 25.4 25.7;" xml:space="preserve">
<style type="text/css">
	.st0{fill:#9A9AB0;stroke:#9A9AB0;stroke-width:0.5;stroke-miterlimit:10;}
</style>
<g>
	<path class="st0" d="M16.9,15.6c0,0.8-0.7,1.5-1.5,1.5c-0.8,0-1.5-0.7-1.5-1.5c0-0.8,0.7-1.5,1.5-1.5C16.2,14,16.9,14.7,16.9,15.6z
		"/>
	<path class="st0" d="M11.6,10.2c0,0.8-0.7,1.5-1.5,1.5S8.6,11,8.6,10.2C8.5,9.4,9.2,8.7,10,8.7C10.9,8.7,11.6,9.4,11.6,10.2z"/>
	<path class="st0" d="M9.5,17.1c-0.3,0-0.5-0.1-0.7-0.3c-0.2-0.2-0.3-0.4-0.3-0.7c0-0.3,0.1-0.5,0.3-0.7L15.2,9
		c0.2-0.2,0.4-0.3,0.7-0.3c0.3,0,0.5,0.1,0.7,0.3c0.2,0.2,0.3,0.4,0.3,0.7s-0.1,0.5-0.3,0.7l-6.4,6.4C10,17,9.8,17.1,9.5,17.1
		L9.5,17.1z"/>
	<path class="st0" d="M12.7,25.4c-0.9,0-1.8-0.4-2.4-1l-1.2-1.2l0,0c-0.3-0.3-0.7-0.5-1.1-0.4H6.3c-0.9,0-1.8-0.4-2.4-1
		s-1-1.5-1-2.4v-1.7c0-0.4-0.2-0.8-0.4-1.1l-1.3-1.3c-0.6-0.6-1-1.5-1-2.4s0.4-1.8,1-2.4l1.2-1.2l0,0C2.7,9,2.9,8.6,2.8,8.2V6.5
		c0-0.9,0.4-1.8,1-2.4c0.6-0.6,1.5-1,2.4-1h1.7c0.4,0,0.8-0.2,1.1-0.4l1.3-1.3c0.6-0.6,1.5-1,2.4-1s1.8,0.4,2.4,1l1.2,1.2l0,0
		C16.6,2.9,17,3,17.4,3h1.7c0.9,0,1.8,0.4,2.4,1s1,1.5,1,2.4v1.7c0,0.4,0.2,0.8,0.4,1.1l1.2,1.2l0,0c0.6,0.6,1,1.5,1,2.4
		s-0.4,1.8-1,2.4l-1.2,1.2c-0.3,0.3-0.5,0.7-0.4,1.1v1.7c0,0.9-0.4,1.8-1,2.4s-1.5,1-2.4,1h-1.7c-0.4,0-0.8,0.2-1.1,0.4l-1.2,1.4
		C14.5,25,13.6,25.4,12.7,25.4L12.7,25.4z M12.7,2.3c-0.4,0-0.8,0.2-1.1,0.4l-1.2,1.2c-0.6,0.6-1.5,1-2.4,1H6.3
		C5.9,5,5.5,5.1,5.2,5.4S4.8,6.1,4.8,6.5v1.7c0,0.9-0.4,1.8-1,2.4l-1.2,1.2c-0.3,0.3-0.4,0.7-0.4,1.1c0,0.4,0.2,0.8,0.4,1.1l1.2,1.2
		c0.6,0.6,1,1.5,1,2.4v1.7c0,0.4,0.2,0.8,0.4,1.1c0.3,0.3,0.7,0.4,1.1,0.4H8c0.9,0,1.8,0.4,2.4,1l1.2,1.2c0.3,0.3,0.7,0.4,1.1,0.4
		c0.4,0,0.8-0.2,1.1-0.4l1.2-1.2c0.6-0.6,1.5-1,2.4-1h1.7c0.4,0,0.8-0.2,1.1-0.4c0.3-0.3,0.4-0.7,0.4-1.1v-1.7c0-0.9,0.4-1.8,1-2.4
		l1.2-1.2c0.3-0.3,0.4-0.7,0.4-1.1c0-0.4-0.2-0.8-0.4-1.1l-1.2-1.2c-0.6-0.6-1-1.5-1-2.4V6.5c0-0.4-0.2-0.8-0.4-1.1
		C19.9,5.1,19.5,5,19.1,5h-1.7c-0.9,0-1.8-0.4-2.4-1l-1.2-1.2C13.5,2.5,13.1,2.3,12.7,2.3L12.7,2.3z"/>
</g>
</svg>
