<svg xmlns="http://www.w3.org/2000/svg" viewBox="0 0 100 100"><defs><style>.cls-1{fill:#000f9f;}</style></defs><g id="objects"><path class="cls-1" d="M50,5.12a3.91,3.91,0,0,1,3.57,2.22L65.23,31l.7,1.42,1.57.23L93.57,36.4a4,4,0,0,1,2.2,6.79L76.91,61.58l-1.14,1.1L76,64.25l4.45,26a3.86,3.86,0,0,1-.85,3.21,4.08,4.08,0,0,1-3.07,1.46,3.9,3.9,0,0,1-1.85-.48L51.4,82.15,50,81.41l-1.4.74L25.28,94.4a3.9,3.9,0,0,1-1.85.48,4.08,4.08,0,0,1-3.07-1.46,3.86,3.86,0,0,1-.85-3.21l4.45-26,.27-1.57-1.14-1.1L4.23,43.19a4,4,0,0,1,2.2-6.79L32.5,32.61l1.57-.23.7-1.42L46.43,7.34A3.91,3.91,0,0,1,50,5.12m0-3A6.92,6.92,0,0,0,43.72,6L32.07,29.63,6,33.41A7,7,0,0,0,2.12,45.35L21,63.74l-4.45,26a7,7,0,0,0,10.16,7.38L50,84.82,73.31,97.08A7,7,0,0,0,83.47,89.7L79,63.74,97.88,45.35A7,7,0,0,0,94,33.41L67.93,29.63,56.28,6A6.92,6.92,0,0,0,50,2.1Z"/></g></svg>