<?xml version="1.0" encoding="utf-8"?>
<!-- Generator: Adobe Illustrator 24.2.1, SVG Export Plug-In . SVG Version: 6.00 Build 0)  -->
<svg version="1.1" id="Capa_1" xmlns="http://www.w3.org/2000/svg" xmlns:xlink="http://www.w3.org/1999/xlink" x="0px" y="0px"
	 viewBox="0 0 20 20" style="enable-background:new 0 0 20 20;" xml:space="preserve">
<style type="text/css">
	.st0{fill-rule:evenodd;clip-rule:evenodd;fill:#9A9AB0;}
</style>
<path class="st0" d="M10.5,8c0-1.7-1.4-3-3-3c-1.7,0-3,1.3-3,3c0,1.7,1.3,3,3,3C9.2,11,10.5,9.6,10.5,8z M7.5,9c-0.6,0-1-0.5-1-1
	c0-0.6,0.4-1,1-1c0.6,0,1,0.4,1,1C8.5,8.5,8.1,9,7.5,9z M14,11c1.1,0,2-0.9,2-2c0-1.1-0.9-2-2-2s-2,0.9-2,2C12,10.1,12.9,11,14,11z
	 M10,0C4.5,0,0,4.5,0,10c0,5.5,4.5,10,10,10c5.5,0,10-4.5,10-10C20,4.5,15.5,0,10,0z M3.9,15.1C4.5,14.6,6.1,14,7.5,14
	c0.1,0,0.1,0,0.2,0C8,13.4,8.4,12.7,9,12.2C8.5,12.1,7.9,12,7.5,12c-1.3,0-3.4,0.4-4.7,1.4C2.3,12.4,2,11.2,2,10c0-4.4,3.6-8,8-8
	c4.4,0,8,3.6,8,8c0,1.2-0.3,2.3-0.8,3.4c-1-0.6-2.4-0.9-3.2-0.9c-1.5,0-4.5,0.8-4.5,2.7V18C7.2,17.8,5.2,16.8,3.9,15.1z"/>
</svg>
