<svg width="16" height="16" viewBox="0 0 16 16" fill="none" xmlns="http://www.w3.org/2000/svg">
<path d="M15.7597 14.61C15.8358 14.6856 15.8963 14.7755 15.9375 14.8745C15.9788 14.9736 16 15.0798 16 15.1871C16 15.2945 15.9788 15.4007 15.9375 15.4997C15.8963 15.5988 15.8358 15.6887 15.7597 15.7643C15.6837 15.8396 15.5937 15.8992 15.4947 15.9397C15.3957 15.9801 15.2897 16.0006 15.1828 16C15.0758 16.0006 14.9698 15.9801 14.8708 15.9397C14.7718 15.8992 14.6818 15.8396 14.6059 15.7643L8 9.14776L1.39414 15.7643C1.31821 15.8396 1.22817 15.8992 1.12918 15.9397C1.03018 15.9801 0.924175 16.0006 0.817241 16C0.710306 16.0006 0.604302 15.9801 0.505305 15.9397C0.406309 15.8992 0.316268 15.8396 0.240345 15.7643C0.164188 15.6887 0.10374 15.5988 0.0624893 15.4997C0.0212383 15.4007 0 15.2945 0 15.1871C0 15.0798 0.0212383 14.9736 0.0624893 14.8745C0.10374 14.7755 0.164188 14.6856 0.240345 14.61L6.85433 8.00166L0.240345 1.39328C0.0873425 1.24022 0.00138705 1.03262 0.00138705 0.816164C0.00138705 0.599704 0.0873425 0.392109 0.240345 0.239049C0.393347 0.0859882 0.600863 0 0.817241 0C1.03362 0 1.24113 0.0859882 1.39414 0.239049L8 6.85555L14.6059 0.239049C14.6816 0.163261 14.7716 0.103143 14.8705 0.0621267C14.9695 0.0211106 15.0756 7.98556e-10 15.1828 0C15.2899 -7.98554e-10 15.396 0.0211106 15.495 0.0621267C15.594 0.103143 15.6839 0.163261 15.7597 0.239049C15.8354 0.314837 15.8955 0.40481 15.9365 0.503831C15.9775 0.602853 15.9986 0.708984 15.9986 0.816164C15.9986 0.923344 15.9775 1.02947 15.9365 1.1285C15.8955 1.22752 15.8354 1.31749 15.7597 1.39328L9.14567 8.00166L15.7597 14.61Z" fill="black"/>
</svg>
